<svg id="Layer_1" data-name="Layer 1" xmlns="http://www.w3.org/2000/svg" viewBox="0 0 361.09 408.57"><defs><style>path{fill:#ff3fb4;}</style></defs><title>Catarina</title><g id="RPQl99"><path d="M17.7,251.51c-1.78,3.29-6.76,4.57-13.34,2.42-3.32-1.08-5.69-3.35-5-7.4l7.23,5.1c.16-4.61,1.93-8.06-3-9.89-.8-.3-1.28-3.76-.65-5.19,3-6.65,6.49-13.05,9.57-19.65,1-2.22,2.26-4.93,1.88-7.15-2.11-12.21,2.7-22.88,8.4-32.65a85.21,85.21,0,0,0,9.63-25c3.39-14.91,9-29.21,18.78-41.55C56.49,104,62.85,99.77,72,98.6c-6-11.25-5.41-22.53-2.53-33.91,2.36-9.3,6.23-17.84,12.84-24.95,1.84-2,2.21-3.77-.16-5.84-5.41-4.72-8.71-11.71-15.92-14.59-1-.41-2.07-2.45-2-3.68.22-4.18-2.43-4.85-5.7-5.53l-1.19,5.32c-3.16-3.13-3.45-6.33-1.16-9.2A34.23,34.23,0,0,1,63.83-.64c.87-.59,3,.61,5.15,1.55-5.12,1.22-5,3.79-2.81,6.88.43.6,1.58,1.42,1.9,1.24,5.32-2.92,5.34,2.15,7.27,4.56,1.43,1.78,3.41,3.12,5,4.75a34,34,0,0,1,4.19,4.72c3.13,4.63,6.57,9.16,8.87,14.2,1,2.18.16,5.85-1,8.24-3.36,6.68-7.54,13-11,19.57-4.59,8.69-5.47,15.55-3.43,25.13,4.77-4.47,9.74-8.09,13.35-12.75,6-7.73,13.28-12.39,23-13.36,1.24-.12,3.17-.39,3.54-1.17,3.5-7.59,10.15-8.36,17.24-8.13-.19-4.89-1.21-7.72-7.28-7.24-5,.38-10.2-1.52-15.29-2.52A3.84,3.84,0,0,1,110,43.65c-2.35-4.72-5.06-9.36-6.51-14.36-.77-2.65.74-6,1.23-9l8.72,2a35.75,35.75,0,0,0-1.89,3.9c-2.47,7.66.2,12.21,8,13.9,2.43.53,4.81,1.37,7.26,1.76,2.6.41,5.55-.21,7.84.79,4,1.74,7.56,4.49,11.43,6.59,2,1.09,4.27,2.39,6.43,2.41,18.3.19,36.62-.16,54.91.3,4.52.11,6.43-2.84,9.23-4.78,3.48-2.42,6.23-4.21,11.31-4,6.27.24,13.21-2.34,18.75-5.59,2.1-1.22,1.17-7.73,1.43-11.85,0-.81-.76-1.68-1.39-2.94,2.42-1,4.46-2.28,6.64-2.57,1-.13,3.16,1.77,3.12,2.67A44.42,44.42,0,0,1,254.87,34a42.62,42.62,0,0,1-4.69,9.19A5,5,0,0,1,247,45.06c-6.07.93-12.29,1.19-18.2,2.69-2,.5-3.22,4-5.45,7,8.64,0,15.36.58,18.84,8.22.36.78,2.3,1,3.54,1.16,9.72,1,17,5.63,23,13.37,3.57,4.64,8.45,8.27,13.39,13,1.8-8.17,1.42-15.18-1.85-21.74-3.63-7.29-7.7-14.37-11.74-21.45-2.45-4.31-5.07-8.08.27-12.57,2.5-2.11,3.57-5.93,5.25-9,1.9-3.44,3.16-7.17,7.95-8.25,1.52-.34,2.36-3.69,3.53-5.64,1.6-2.66,3-5.84,6.62-2.41,4.28-4.76,4.16-6.11-.4-8,3.88-3.3,5.3-3.06,7.83,1.08A8.31,8.31,0,0,0,302,4.59c4,2.75,4.26,6.45.55,10.42-.37-1.65-.71-3.16-1.11-4.92-3.26.71-5.89,1.36-5.72,5.56a5,5,0,0,1-2.39,4c-7.42,2.93-10.7,10.15-16,15.18-.75.7-.62,3.51.16,4.49,14,17.6,19.22,36.82,11.27,59.05,19,3.59,26.11,19,32.28,34.47,3.89,9.78,5.61,20.42,8.43,30.64a14.12,14.12,0,0,0,2.5,5.17c7.67,9.27,10.91,20.47,14,31.73.59,2.16-.12,4.64.05,7,.2,2.91.08,6.06,1.17,8.66,2.29,5.49,5.51,10.58,7.88,16,1.65,3.78,6.16,8.13-1.18,11.49-1.09.49-.72,4.18-1,6.4l1.11,1,6.22-3.75c.78,2.84-.57,5.43-4,6.7-5.34,2-12.28.52-13.64-2,1.91-1,4.32-1.46,5.43-2.93,2-2.69-.23-4.2-2.1-6.4-2.35-2.76-3.68-6.77-4.4-10.44-1-5-1-10.12-1.49-16.63l-8.74-8c-1.22,6.54-2.12,13-3.65,19.26-6.12,24.94-17.43,47.41-32.86,67.85-1.52,2-1.39,3.62-1.29,6.08.24,6,.41,12.74-1.93,18.07C285.38,332.53,278,345.78,271,359.22a7.76,7.76,0,0,1-3,3.28c-5,2.6-3.76,5.71-.64,8.54,4.53,4.1,9.34,7.91,14.12,11.72,2.17,1.73,4,2.83,2.25,6.42-.72,1.46,1.7,4.72,3.19,6.8.26.35,3.25-.92,4.67-1.89.95-.64,1.37-2.07,2.16-3.36.9,8.25-12.07,18.52-19.87,16.16,2.23-1.68,5.48-2.95,6.43-5.19.82-1.94-1-5-1.72-8.07l-4.43,2.9c-.8-2.39-1.42-4.39-2.13-6.35-1-2.85-1.87-5.48-6.09-5.12-1.25.11-3.39-2.79-4.07-4.68-1.78-5-1.39-10.84-6.18-14.72-.5-.4.53-3,1.17-4.45,5.79-13.09,11.66-26.15,17.47-39.23,1-2.23,1.8-4.55,2.81-7.13-7.7,5.39-15,10.42-22.23,15.58a104.59,104.59,0,0,1-50.81,19.17c-1.32.13-2.66.16-4,.19-9.18.18-17-1.82-19.54-12.2-.63.24-1.09.27-1.17.46-4.21,9.6-7.87,12.06-19.06,11.71-19-.58-36.24-6.79-52-17C99.83,327.22,91.72,321.12,83,315c1.08,2.85,2,5.68,3.19,8.38q8.52,19.17,17.19,38.25c1,2.22,1.27,3.73-.64,6s-2.5,5.56-3.5,8.46c-1.39,4-.5,9.72-7.7,9.2-1.07-.07-2.63,2.74-3.46,4.46-.93,1.89-1.28,4.06-2,6.56l-3.9-2c-4.91,7-4.45,8.34,4.65,12.4-5.82,2.88-9.72-1.44-13.19-3.64-3.89-2.46-9.17-5.45-7.51-12.52.8,1.34,1.14,2.61,2,3.14,1.57,1,4.72,2.58,4.94,2.27,1.5-2.07,3.92-5.33,3.2-6.79-2-3.94.45-4.88,2.68-6.68,4.88-3.95,9.72-8,14.32-12.23,2.77-2.57,3.2-5.23-.86-7.49a10.89,10.89,0,0,1-4-4.39C82,346.17,75.33,334,69.48,321.54c-3.32-7.07-5.12-14.79-2.38-22.78a4,4,0,0,0-.92-3C46.66,269.91,33.38,241.41,29.27,209a6.93,6.93,0,0,0-.46-1.35c-3.17,2.65-6.36,5.21-9.38,7.95a2.75,2.75,0,0,0-.45,2.57c2.54,4.56,1.17,9.17-.34,13.37-1.61,4.5-.46,10.61-6.63,13-.51.2-.42,3.94.51,5.21S15.74,250.93,17.7,251.51Zm148.15,94.57c2.76-1.79,5.52-2.57,6.22-4.21,2.1-4.95,4.46-10.17,4.79-15.41.89-14.29,1-28.63,1-43,0-23.15-.54-46.3-.47-69.45.07-22.29-2.33-44.19-8.4-65.67-2.18-7.73-6.62-13.36-14.29-16.13-5-1.8-10.08-3.36-15.06-5.18-8.41-3.08-16.89-6-25.13-9.5-10.57-4.47-20.82-9.7-31.42-14.08C72,98.91,61.61,102,54,111.14c-10.6,12.78-16.37,27.92-19.63,43.77-4.29,20.85-5,42.26-.83,63.1,9.37,46.38,32.44,84.14,73.25,109.8a9.88,9.88,0,0,0,2,.79c-1.24-5.52-3-10.79-3.52-16.17-1-9.78,2.78-14.28,12.64-14.41,12.94-.17,25.64,2.12,37.05,8.55,13.54,7.63,17.81,22.19,11.33,36.35A17.87,17.87,0,0,0,165.85,346.08Zm85.5-17.38a1.71,1.71,0,0,0,.67-.18c1.28-.78,2.53-1.6,3.79-2.41,35.75-23,57-56.33,68.09-96.52,6.4-23.26,6.37-47.14,2.3-70.86-3.05-17.74-9.24-34.31-20.91-48.46-4.92-6-11.14-9.58-18.73-8.32A78.56,78.56,0,0,0,266.21,108c-17.64,8.23-34.93,17.06-54.14,21.49-11.6,2.68-20.08,9.62-22.08,22.34-2.41,15.27-6.5,30.51-6.82,45.83-.91,43.29-.42,86.61,0,129.91,0,5,2.95,10,5.11,14.77.67,1.46,3.29,2,5,3-5-17.11-2.89-28.41,8.59-36.59,12.56-9,27.31-11.21,42.31-10.5,8.07.38,11.17,4.57,10.54,12.76C254.29,316.91,252.55,322.68,251.35,328.7ZM227.23,119.45c-.47-1.16-.81-1.89-1.06-2.66-2.13-6.32-2.49-12.5,2.4-17.8s11.22-6.39,17.87-4.16a56.3,56.3,0,0,1,11.66,5.45c8.5,5.23,11.55,5.11,18.65-1.66,3.21-3.06,3.14-7.38.25-10a146,146,0,0,1-12-11.71c-6.55-7.4-14.22-11.29-24.28-9.27A18.14,18.14,0,0,1,226,64.61C218.33,59,209.56,58,200.53,57a197.2,197.2,0,0,0-40.79,0c-9.21,1-17.88,2.47-26,7.53a22,22,0,0,1-13.64,3c-11.2-1.63-19.32,2.2-26.11,10.78A57.61,57.61,0,0,1,83.6,88.16c-3.47,2.63-3.47,5.52-1.73,8.68,3.59,6.53,11.78,8.33,18.15,4.71,4.87-2.76,9.88-5.76,15.21-7.12,13.15-3.36,23.1,7.7,19.17,20.69-.42,1.39-.94,2.75-1.51,4.39A39.69,39.69,0,0,0,138,122c11.38,3.69,22.68,7.76,34.27,10.66a35.4,35.4,0,0,0,16.28-.15c10.64-2.58,21-6.26,31.46-9.64A63.76,63.76,0,0,0,227.23,119.45ZM100.32,362c-2.9-6.82-5.93-13.45-8.56-20.23-3.86-10-11.14-18.64-11.06-30,0-.41-.48-.86-.82-1.21-3.25-3.42-6.53-6.83-10.49-11a35,35,0,0,0,3,22.4c5.81,11.94,12,23.69,18,35.53C92.57,361.6,96.06,362.6,100.32,362Zm190.47-61.42c-3.77,3.49-7.09,6.49-10.3,9.61a5.69,5.69,0,0,0-1.25,2.53c-1.31,4.56-2.06,9.34-3.89,13.67-5,11.9-10.52,23.62-15.91,35.6,4.24.55,7.79-.08,9.83-4.1,6.33-12.42,12.77-24.79,18.83-37.35A31.83,31.83,0,0,0,290.79,300.53Zm-262-128.82c-6.49,8.9-10.06,18.54-12.31,28.61-.67,3,.44,6.5,1.21,9.65.2.79,3.09,1.82,3.27,1.59,2.75-3.54,7-7.06,7.48-11C29.57,191.26,28.83,181.74,28.83,171.71Zm302.59.33c0,6.7,0,13.14,0,19.58,0,3.16-1.26,6.88,0,9.34a35.9,35.9,0,0,0,9,10.79c1.3,1.07,4.38-6.53,3.14-11.43C341.09,190.3,337.66,180.62,331.42,172ZM283,99.7c10.92-10.86,8.07-44.52-10.5-61.54-3.87,1.67-4.25,4.18-1.84,7.44.69.93,1.13,2,1.77,3C282.45,63.91,290.37,79.68,283,99.7ZM87.55,38.16C68.25,55.57,66.34,91.31,77.17,99.08c-.33-1.35-.49-2.27-.79-3.14-4.22-12.07-2.84-23.49,3.76-34.4,3.18-5.25,6-10.72,9.27-15.91C91.57,42.22,91.43,39.84,87.55,38.16ZM78.64,386l5.45,4.91c1.23-3.28,2.28-6.07,3.57-9.53Zm202.57,0-9-4.68c1.41,3.65,2.49,6.46,3.73,9.65ZM86.27,33.22,81,22.34C77.27,25.1,78.56,27.9,86.27,33.22ZM273.73,33c8.21-5.85,9.15-8,5.17-10.48ZM264,372.67c.71,3.09.78,5,1.62,6.39.47.79,2.25.79,3.45,1.15,0-1.1.44-2.53-.09-3.23C268,375.63,266.45,374.7,264,372.67Zm-168,1.7-1.66-1L90,379.24l2.8,1.49Zm251.1-134.29c7-3.84,7.08-4.09,2.95-8.53C349.19,234.2,348.39,236.52,347.16,240.08ZM9.75,231.34c-3.88,5.08-3.81,5.26,3,8.41Z" transform="translate(0.74 0.9)"/><path d="M173.19,229.3c-1.7,15.61-1.74,30.82-8.33,44.61-8.57,17.95-31.06,24.36-48.56,14.91-16.6-9-20.73-24.08-20.13-40.87.57-15.62,9.81-26.5,23.27-33.64,4-2.14,8.71-3.28,13.21-4.35,11.79-2.8,18.6-11,23.59-21.2,1.6-3.28,2.57-6.87,4.25-10.1.8-1.54,2.58-2.57,3.92-3.83,1.07,1.55,2.65,3,3.1,4.68a84.76,84.76,0,0,1,2.35,12.74C171.12,204.81,172.14,217.41,173.19,229.3Z" transform="translate(0.74 0.9)"/><path d="M159.26,158c-.5,10.9-4.53,22.85-16.21,31-2.5,1.73-5.62,2.57-8.49,3.76-3.21,1.32-6.47,2.54-9.69,3.87-2.61,1.07-5.09,2.53-7.77,3.31-10,2.9-18.16-1.42-19.77-11.68a82.11,82.11,0,0,1,.13-22.74c.77-6.17,3.3-12.14,5.2-18.16s6.3-10,12.18-12.34c8.9-3.48,18-4.67,27.37-2.18C153.72,135.89,159.36,143.37,159.26,158Z" transform="translate(0.74 0.9)"/><path d="M100,136.81c-1.29,4.18-1.94,8.38-3.79,11.95-6,11.63-8.74,24-9.56,36.94a41.26,41.26,0,0,1-2.12,11.2c-2.89,8-8.59,10.12-16.29,6.23-10.11-5.1-15.38-14.24-16.78-24.68-2.24-16.79-1.6-33.56,6.4-49.27,7.88-15.5,27.91-17.65,38.08-3.6C98.16,128.6,98.66,132.85,100,136.81Z" transform="translate(0.74 0.9)"/><path d="M41.85,215.73a45.94,45.94,0,0,1,.25-5c.83-5.29,5.27-7.29,9.42-4,2.58,2,4.65,4.71,7,7.08s4.86,3.76,8.32,1.48c3.77-2.48,6.48-.08,8.15,3,4.63,8.61,9.84,17.07,13.2,26.18,5.16,14,9.2,28.43,13.17,42.82,1,3.64.5,8-.3,11.77-1,5-4.57,6.35-9.07,3.91a41,41,0,0,1-7.59-5.62c-22.93-20.66-36.9-46.3-42.21-76.67A43.06,43.06,0,0,1,41.85,215.73Z" transform="translate(0.74 0.9)"/><path d="M186.15,230.55c2.08-17.3,4-33.8,6.19-50.25.26-2,2.24-3.65,3.43-5.47,1.42,1.62,3.23,3,4.19,4.91,2.35,4.57,4.12,9.44,6.46,14,6.06,11.84,17.43,15.8,29.15,18.9,14.27,3.78,27.45,19.58,28.46,34.47.61,9-1.4,17.56-4.68,25.76-5.05,12.63-21,20.86-35.05,20.51-13.78-.34-27.49-10.61-31.22-24.71C189.74,256.07,188.32,243,186.15,230.55Z" transform="translate(0.74 0.9)"/><path d="M264.46,178c-.78,4.22-1.09,8.59-2.42,12.63-2.71,8.2-9.34,11.85-17.67,9.56-4.75-1.31-9.17-3.8-13.74-5.76-5.11-2.2-10.89-3.51-15.19-6.77-12.8-9.71-16-23.71-14.25-38.8.87-7.39,6.32-12.41,13.31-15,12-4.34,23.68-3,34.59,3.26a19,19,0,0,1,7.13,8A87.54,87.54,0,0,1,264.46,178Z" transform="translate(0.74 0.9)"/><path d="M309.38,166.71c.75,9-1,19.64-8.33,28.38a36.3,36.3,0,0,1-11.7,8.86c-5.68,2.76-10.59.61-13.07-5.26a37.24,37.24,0,0,1-2.89-12,105.53,105.53,0,0,0-10-38.85c-6.47-13.89-1.94-23.48,9.15-29.85,9.62-5.53,24.21.39,29.56,11.23C307.53,140.25,309.44,149.49,309.38,166.71Z" transform="translate(0.74 0.9)"/><path d="M319,216.5c-1.93,7.88-3.24,16-5.93,23.58-8.32,23.6-20.93,44.47-40.95,60.18a23,23,0,0,1-4.57,3c-4.23,1.9-7.4.7-8.48-3.74-.84-3.47-1.43-7.39-.69-10.79,5.23-23.95,12.53-47.21,25.3-68.38,3.94-6.52,4.11-6.18,11.38-4.27,1.76.46,4.42-.79,6.07-2,2.34-1.78,3.88-4.64,6.26-6.35,1.81-1.31,5.11-2.76,6.45-2,2,1.18,3.06,4.21,4.13,6.62.5,1.11.09,2.62.09,3.95Z" transform="translate(0.74 0.9)"/><path d="M159.65,87.1c0,1.21,0,1.55,0,1.88-.77,5.25-1,11-6.81,13.45s-10.12-1.71-13.36-5.41a81.54,81.54,0,0,1-11.73-17c-2.85-5.68-1.2-8.17,4.62-10.93,4.19-2,8.45-3.85,12.56-6,3-1.54,5.27-1.25,7.45,1.37,3.92,4.69,7,9.61,6.72,16.1A43.2,43.2,0,0,0,159.65,87.1Z" transform="translate(0.74 0.9)"/><path d="M199.81,87.44c.95-8.1,1.12-16,7.22-22.43,2.77-2.9,5.08-3.6,8.64-1.64a130.12,130.12,0,0,0,13,6.15c3.67,1.53,5.3,4.06,4.32,7.82-3,11.41-10.16,19.64-20.26,25.23-3.68,2-8.41-.29-10.18-4.65C201.23,94.6,200.7,91,199.81,87.44Z" transform="translate(0.74 0.9)"/><path d="M247.21,74.39c3.4.53,6.79.16,9,1.59a131.42,131.42,0,0,1,15.81,12c1.18,1,.92,3.71,1.32,5.63-1.9.06-3.92.55-5.7.1-4.32-1.07-8.52-2.63-12.79-3.9-3.74-1.1-6-3.06-5.92-7.41C249,80.24,248.05,78,247.21,74.39Z" transform="translate(0.74 0.9)"/><path d="M112.26,75.3c-.5,3.42-.42,6.67-1.56,9.41a10.14,10.14,0,0,1-5,4.81,141.58,141.58,0,0,1-15,5c-1.07.32-3,.16-3.51-.54a5.06,5.06,0,0,1-.79-4c1.26-4,18.71-15.54,23-15.39A14.22,14.22,0,0,1,112.26,75.3Z" transform="translate(0.74 0.9)"/><path d="M198,104.24c-.85,5.69-6,13-10.9,14.71-3.61,1.24-6.11-.18-5.26-3.79A127.55,127.55,0,0,1,188,96.36c1.22-3,4.26-2.79,6-.36S196.73,101.47,198,104.24Z" transform="translate(0.74 0.9)"/><path d="M162.65,103.77c.29-1.18.29-3.25,1.26-4.62,1.34-1.89,3.22-4.06,5.23-4.52,1.06-.24,3.47,2.67,4.25,4.58a112,112,0,0,1,4.69,14.65c.38,1.5-.2,4.38-1.17,4.81a6.73,6.73,0,0,1-5.48-.58C166.44,115,163.05,110.61,162.65,103.77Z" transform="translate(0.74 0.9)"/></g></svg>