<svg id="Layer_1" data-name="Layer 1" xmlns="http://www.w3.org/2000/svg" viewBox="0 0 669.26 694.4"><defs><style>path{fill:#ff3fb4;}</style></defs><title>Chinche</title><g id="IAo6uW"><path d="M139,198.46c3.49-3.88,6.58-8.2,10.51-11.56,33.73-28.83,67.64-57.45,101.41-86.25,4.74-4.05,8.5-9.37,13.54-13,8.71-6.2,19-6.68,29.18-5.07,8.85,1.4,17.28,4.28,26.69,2.08,4.31-1,9.53,1.91,15.8,3.4,4.6-3.32,11-4.24,18.85-2.76,6.12,1.16,13-2.23,19.48-2.24,8.9,0,18,.25,26.59,2.38,4.7,1.16,8.66,6.11,12.5,9.82a1279.94,1279.94,0,0,0,105.19,90.83c4.33,3.36,7.54,8.17,11.28,12.31-1.74-1.13-3.6-2.12-5.21-3.41-7.91-6.34-15.76-12.76-23.64-19.15,8.63,11.93,23.35,17.64,29.76,31.57,4.07-3.5,4.07-3.5-1.09-9.14,4.49.05,6.7,2.43,8.86,6.44,9,16.71,19.68,32.6,27.67,49.76a666.67,666.67,0,0,1,26.57,66.31c3.76,11,3.88,23.34,5.24,35.12a35.48,35.48,0,0,0,11,22.5c16.65,16.37,32.48,33.59,50.06,52-2.43-7.9-3.68-14.94-6.7-21.13-7.24-14.88-16.12-29-22.92-44.06-22-48.75-42.57-98-55.8-150.09-8.76-34.45-17.84-68.84-27.93-102.91-3.26-11-9.34-21.45-15.62-31.19-7.59-11.79-19.08-16.12-33.36-13.77A63,63,0,0,1,476.62,67c-6.8-1.12-7.91-5.09-4.84-11.07,1.15-2.25,1.35-5,2.19-7.38.69-2,1.67-3.85,2.52-5.77l1.56.43c.39,1.83.78,3.67,1.18,5.5l1.87-.43c-.83-2.74-1.1-5.85-2.59-8.16-6-9.33-4.58-18.64,4.57-24.17,7,7.39.14,16.06,2.52,24.21l8.73-6-.17.14h4c-1.82,8.05-14.89,7.37-11.65,18.13,8.45,2.17,17.77,4.82,27.21,6.9,15.78,3.47,25.4,14,33.24,27.22,17.55,29.65,26.42,62.57,36.3,95.11,20.36,67,40.67,134,71,197.51,5.88,12.29,10.14,25.51,13.67,38.69,1.8,6.73.85,14.39.1,21.51-.3,2.83-3.17,5.62-5.35,8-2.34,2.52-5.29,4.46-7.91,6.72-3.31,2.84-6.1,2.77-9-.81-5.21-6.46-10.5-12.86-16.09-19-8.26-9.08-16.8-17.89-25.23-26.82l-2,.52c1,9,2,17.95,2.93,26.93a15.28,15.28,0,0,1-.13,5.65c-5.71,19.47-11.65,38.88-17.31,58.37-1.85,6.35-3.7,12.8-4.49,19.33-1.46,11.9-6.2,22.44-11.75,32.78-9.29,17.31-19.27,34.29-27.52,52.08C537.49,617.51,527,627.78,514,635.86c-23.81,14.84-47.62,29.75-72.11,43.41-7.69,4.29-17.45,5.47-26.44,6.66-19.94,2.61-40,4.23-60,6.45-17,1.88-33.8,1-50.71-1.16S270.84,688,253.94,686c-12.2-1.43-23.83-4.11-34.62-11.16C199.53,662,179.11,650,158.61,638.2c-18.82-10.8-30.52-27-39.05-46.43-5-11.27-11.38-21.92-17.45-32.67-8.06-14.29-14-29-17.23-45.43-3.32-17-10.22-33.31-15.24-50a234.61,234.61,0,0,1-6.17-25c-.49-2.66,2-5.74,2.12-8.68.33-7.27.11-14.56.11-22.55a20.8,20.8,0,0,0-3.17,2.14c-10.83,11.05-21.72,22.05-32.35,33.28-2.53,2.66-3.87,6.45-6.37,9.14-1.65,1.77-4.84,3.95-6.6,3.43C8,452.74-1,440.86-.17,430.67a98.66,98.66,0,0,1,6.44-27.49c10.22-26.1,22.37-51.48,31.83-77.85C53,283.76,66.34,241.62,80.31,199.71c9.71-29.11,18.58-58.53,29.4-87.22,5.62-14.91,12.63-29.63,24.22-41.51,8.94-9.16,20.56-11.55,32.1-14.48,5.76-1.46,11.56-2.74,16.92-4C186,42,172.78,42.18,171,33.15l13.23,6.71c1.09-7.82-4-16,1.37-23.69,9.18,3.49,11.45,14,5.59,23.28-1.57,2.47-2.3,5.47-3.42,8.23l1.88.76,2.15-6.56c1.58,2.21,3,3.5,3.55,5.09,1.33,3.61,2,7.47,3.41,11.05,2.09,5.37-1.34,8.06-5.22,8.71-6.41,1.09-13.3,2-19.56.82-16-3.13-27.53,2.47-36.53,15.34-10.46,15-15.79,32-20.45,49.33-10.53,39-19.66,78.47-31.45,117.1-8.56,28-19.49,55.47-31.15,82.4-11.29,26.11-25,51.14-37.29,76.86-3.1,6.51-4.54,13.8-7.09,21.8,19.13-19.85,37.25-38.19,54.68-57.17,3.39-3.69,4.9-9.72,5.84-14.92,2-11.24,2.11-22.89,4.83-33.91,3-11.95,7.94-23.39,12.13-35,9.57-26.54,22.83-51.22,37.78-75.05,2.1-3.36,3.47-7.27,6-10.27,2-2.41,5.2-3.84,7.86-5.7-4.82,6-4.82,6-1.82,8,5.32-5.25,10.17-10.44,15.46-15.15,6.9-6.15,14.15-11.92,21.25-17.86L173,172c-9.72,7.9-19.41,15.83-29.18,23.66A35,35,0,0,1,139,198.46ZM424.77,677.09c3.21-1,6.58-1.49,9.28-3.08q44.26-26,88.33-52.41a8.87,8.87,0,0,0,3.34-2.91c12.47-22.84,25.11-45.6,37.08-68.7a175.21,175.21,0,0,0,12-29.11c4.87-15.8,7.53-32.33,13.09-47.85,7-19.53,9.57-39.18,8.84-59.8-.41-11.5-2.58-21.13-12-28.45-3.81-2.95-7-6.69-10.43-10.16Q509.29,308.26,444.4,241.83c-11.36-11.66-22.27-23.75-33.78-36.06,1.86,11.71,5.27,22.62,4.87,33.4-.49,13.49,5.8,21.35,15.35,29.11,23.33,19,46.12,38.6,69.05,58.05,2.1,1.78,5.49,4.49,5.19,6.21-1.24,7-2.45,14.53-6,20.51-6.12,10.37-14,19.73-21.06,29.54-4.32,6-8.59,12-12,16.78,6.32,6.9,11.44,12.69,16.78,18.27,5.5,5.75,11.14,11.36,16.84,16.91,5.11,5,10.39,9.76,15.14,14.21-3,2.75-5.17,4.15-6.59,6.08-6.88,9.35-12.78,19.56-20.54,28.08-8.42,9.24-18.51,16.95-28.55,25.92,1.77,3.12,3.61,6.39,6,10.64-2.56,6.13-10,7.35-18.1,1.23-7.06,7.86-14.32,15.57-21.14,23.66-6.16,7.3-15.51,13.43-11,25.43a1.78,1.78,0,0,1-.12,1.3c-4.42,7.89,1.13,11,6.71,14.21,3.07,1.74,6.54,3.13,9,5.54s5.49,6.37,4.8,8.55c-1.57,5,1,7.91,2.73,11.59,3.4,7.35,7,14.63,9.77,22.22,2.34,6.4-4.66,7.62-7.64,10.87-1.33,1.46-4.6,1.14-7,1.63-.11-.57-.21-1.14-.32-1.71l6.75-6.29-9.06-2.53c9.72-3.68,9.94-4.15,7.38-12.67-1.2-4-2.31-8.07-3.64-12-2.83-8.45-4.64-10-14.23-11.19l11.69,12.24-1.47,2c-4.31-3-9.44-5.27-12.7-9.14-3.52-4.17-5.29-9.82-7.22-13.64l-7.07,2.59a44.77,44.77,0,0,1-.53-7c.14-1.93,1.37-3.78,1.58-5.72.85-7.84,4.27-16.9,1.53-23.27-3.84-9,2.12-10,6.13-13.44a42.88,42.88,0,0,0,4.54-3.8c10.47-11.87,20.86-23.81,31.53-36-2.4-4.17-5.06-8.76-7.34-12.71l-7.12,6.29c-1.52-2.69-3.89-5.23-4.35-8.08a75.67,75.67,0,0,1-.37-15.06c.08-2.08,1.64-4.08,1.83-6.18,1-10.88.83-22,2.87-32.6,1.51-7.82,5.79-15.09,8.77-22.43l-13-12.67c2,54.81-10.16,106.62-41.39,153.72-6.23-7.65-12.05-8.57-19.28-2-5.13,4.67-9,10.72-13.38,16.21-1,1.3-1.86,2.78-3.54,5.33,1-10.17,1.86-18.56,2.61-26.08H314.9c.8,7.55,1.71,16,2.61,24.51-2.9-3.09-4.63-6.64-7-9.73a62.74,62.74,0,0,0-8.48-9.21c-8.14-7.17-13.25-6.94-20.78.7-31-47-43.33-98.83-41.12-153.85l-14.57,13.29c12.24,14.15,11.76,31.76,14.3,48.49.46,3.07-.73,6.35-.64,9.51.18,6.25,1.19,12.51.88,18.72-.12,2.53-2.77,4.94-4.26,7.4-1.85-2-3.68-3.94-5.55-5.89a8.79,8.79,0,0,0-1.5-.88l-7.91,14.39c14.59,14.81,29,29.32,43.19,44,.94,1,1.22,3,1.09,4.53-.24,2.81-1.72,5.65-1.43,8.33,1,8.87,2.6,17.65,3.74,26.5.19,1.48-.55,4.28-1.28,4.44a8.79,8.79,0,0,1-5.25-1.16c-.87-.45-1.19-2-2.11-3.71-2,14.38-12.34,24.67-21.25,23.56l11.68-12.82c-10.09.46-12.23,6.87-14.47,13.1-1.12,3.12-1.95,6.34-2.94,9.5-2.93,9.29-2.78,9.67,6.73,13.82L230,637.84l6.79,6.23-.56,1.8c-2.59-.74-6-.71-7.61-2.39-2.89-2.94-9.51-4.15-6.92-10.44,3.33-8.08,7.24-15.93,10.74-23.94,1-2.27,2.6-5.16,1.94-7.09-1.62-4.77.24-7.84,3.56-10.38a88.17,88.17,0,0,1,10-6.34c5.65-3.21,10.86-6.44,6.75-14.29a5.77,5.77,0,0,1-.16-3.92c1.65-5.57.77-9.57-3.79-14.19-10-10.17-18.9-21.5-28.21-32.32-8.26,6.26-15.95,5-18.21-1,2.37-4.51,4.14-7.87,5.94-11.31-6.22-5.18-11.89-9.75-17.4-14.51-11.59-10-22.55-20.55-29.9-34.29-2-3.69-4.51-7.06-7.4-11.51l48.51-47.35c-3.78-5.55-6.88-11.25-11-16-12.39-14.15-25-27.64-27.48-47.95-.65-5.32.22-7.3,3.33-9.92,23.3-19.69,46.45-39.57,70.05-58.91,8.9-7.29,16.56-14.5,14.36-27.31a6.18,6.18,0,0,1,.24-2c1.68-10.66,3.36-21.33,5-31.59-1.62,1.41-3.59,2.86-5.25,4.6-19.68,20.63-39.12,41.5-59,61.91-38.43,39.42-77.14,78.57-115.66,117.9-2,2-4.53,4.52-4.67,6.92-1.3,21.78-3.1,43.46,4.23,64.92,6.46,19,11,38.6,16.47,57.92,1.73,6.09,2.91,12.57,5.86,18.06C114,564.33,127.94,589.16,141.84,614c1.61,2.87,3.37,6.27,6,7.86,28.72,17.39,57.52,34.64,86.57,51.47,4.94,2.86,11.15,3.53,16.77,5.21l.55-1.67c-27.46-6.41-47-26.68-70.53-40.1,7.83,2.74,15.09,6.7,22.7,9.84,24.34,10,46.2,26,73.06,30,12.65,1.9,25.11,5.84,37.8,6.61,22.66,1.36,45.43,1.58,67.77-4.42,10.65-2.87,22.23-3.25,32.19-7.53,20.25-8.7,39.67-19.32,59.48-29.06,4.45-2.19,9.09-4,13.64-6l.75,1.5ZM251.31,167.37c4.32-4,7.51-6.14,9.71-9.05,8.6-11.4,19.81-19.46,32.28-25.92,4.75-2.45,5.88-6.39,6.16-11.09a32.39,32.39,0,0,1,.58-4.5c1.53-7.38,3.11-14.75,4.67-22.13L303,93c-5.22,1.86-10.4,3.85-15.67,5.54s-11.12,5.3-15.43,4c-8.29-2.6-13.21.8-18.07,5.78a669.82,669.82,0,0,1-84.38,73.54C156,191.63,143,202.55,134.21,216.55,114.16,248.38,97.48,282,86,318c-1.25,3.92-1.57,8.14-2.53,12.17-2.52,10.54-5.15,21.06-7.74,31.59l1.16.13L263.72,167.37Zm342,195.39c-2.78-14.41-3.61-28.41-8.31-41A743.81,743.81,0,0,0,554,250.33c-8.34-16.72-18.75-32.6-29.8-47.7-5.72-7.81-14.51-13.56-22.5-19.46a695.79,695.79,0,0,1-87.76-76.62c-2.94-3-9.5-6.42-12.22-5.12-8,3.81-13.54-.33-19.94-3-5-2.11-10.34-3.62-16.05-5.58.41,7.43.41,13,1.15,18.46.43,3.13,2.87,6.07,3,9.15.22,6.09,2.28,10.11,8,12.87,15.76,7.55,27.05,20.38,39.29,34.06H405.68ZM333.4,221c-2.63-1.06-6.56-1.89-6.57-2.77-.07-7-7.15-9.21-9.16-14.39-3-7.81-9.16-7.63-15.9-8.12,9,10.11,10.86,20.7,5.05,27l-9.18-12c-.76,1.9-1.27,2.89-1.55,3.94a19.69,19.69,0,0,0-.34,2.91c7.15,2,7.49,2.77,3.24,7.73-1-.74-2-2.13-3-2.15-6.26-.12-7.66-2.37-3.76-7.5a2.42,2.42,0,0,0,.2-1.79c-1.66-6.17-1.68-12.13,2.06-16.55l-21.9-6.12c-1.24,2.59-4.54,8.28-4,8.64,5.94,4.24,2.73,8.16.56,10.81l4.69,2.2c-1.13,1.64-2.27,3.27-4.14,6l6.52,3.7-1.78.92c1.47,3.53,2,8.15,4.6,10.39,7,6.06,8.48,13.66,8.33,22.07-.1,5.85-.42,12.82-6.94,14.32-7,1.6-10.1-5-12.73-10.4-2-4.14-3.52-8.53-5.25-12.81-1.47,12,1.23,22.53,8.32,31.93.73,1,.57,3.49-.2,4.57-5.28,7.41-5.56,12.14-1,20.15.49.86.17,3.25-.26,3.39-6.34,2-4.28,7.71-5.41,11.93-1,3.68-1.59,7.47-2.36,11.21l-1.57-.41q-.72-6.66-1.45-13.34c-1.91,3.53-2.4,7-2.93,10.47-2,12.87-4.72,25.68-5.88,38.63-2.11,23.49-5.58,47.2-4.2,70.57,1.26,21.32,6.76,42.75,13.07,63.31,5.11,16.64,14.21,32.05,21.59,48.13,13.79-7.13,22.29.61,31.8,8.22,0-9.38-.72-17.61.12-25.67,4.2-40,9.38-79.9,13.05-119.94,2.23-24.39,2.53-49,3.18-73.47.09-3.39-2.68-6.91-4.34-10.27-.87-1.77-2.36-3.23-3.27-5a29,29,0,0,1-1.55-4.69c-6.72,2.67-7.4,2.16-7.16-5.26-9.77,6.85-4.77-8.2-11.07-7q.42-3.79.83-7.58c-10,0-10.56-.3-5.87-10a243.77,243.77,0,0,1,17.34-30.34c5.38-7.94,8.28-15.93,6.93-25.44a45,45,0,0,1-.05-6.36l2.12-.07c2.76,6.71,4,13.85,2,21-3.18,11-7,21.84-10.84,32.67-2.25,6.41-4.39,12.75-3.11,19.75C325.81,295.4,336.21,259.85,333.4,221Zm29.21,1.63-2.53.11c0-4.78-.89-9.79.24-14.29s4.29-8.63,6.67-13.13c-3.61.83-8.81.51-11.42,3-5,4.72-8.64,11-12.8,16.65-1.67,2.26-3.22,4.61-4.83,6.93l-1.45-1c-4.52,21.2-.82,45.42,10,64.61a84.35,84.35,0,0,0,7.26,10.94c.85,1.07,3.07,1,4.67,1.52.46-1.59,1.58-3.33,1.27-4.74-1.25-5.58-2.8-11.1-4.51-16.56-3.42-11-7.45-21.75-10.36-32.84a23.32,23.32,0,0,1,3.39-19,4.86,4.86,0,0,1,1.16,3.57c-2.2,12,2.21,21.63,9,31.38,6.62,9.49,11.49,20.27,16.65,30.72,2.61,5.3,1.13,6.85-4.62,6.2-1-.12-2-.27-3.8-.51,1.87,4.13,4.83,7.23-1.36,10.32-2.22,1.12-1.09,8.89-8,5.22.4,7.2-.28,7.68-7.27,5-.73,3.09-.73,8.18-2.26,8.69-7.9,2.63-7.21,9.06-7,14.65,1.2,28.26,2,56.58,4.55,84.73,3.14,34.33,8.11,68.49,11.82,102.78.95,8.82.14,17.82.14,28.22,10.07-8,18.52-15.31,31-8.7,6.1-11.43,13.63-22.17,17.78-34.08,6.13-17.63,9.51-36.21,14.71-54.19,6.69-23.16,4.4-46.59,2.17-69.84-1.94-20.2-5.89-40.21-8.94-60.31-.62-4.07-1.17-8.14-1.75-12.21l-1.44.05q-.74,6.72-1.49,13.46l-1.73.21c-.86-5.28-1.58-10.59-2.67-15.82-.44-2.08-1.21-5-2.73-5.8-5.72-2.94-2.38-5.1-.73-6.42L397.19,298l4.92-3.87,2.13-.21c-1.93-3.55-4-7-5.7-10.7-.54-1.15-.77-3.26-.1-4.06,7.81-9.32,9.49-20.29,9.06-31.91-1.44,2-2.13,4.17-3.16,6.23-2.24,4.53-4,9.51-7.14,13.34-5.07,6.2-10.45,5-13.69-2.24-3.71-8.28-1.57-23,4.86-28.61,4.45-3.9,7.74-7.63,4.84-13.63l7.31-3.9-2.37-.63-2.44-6.43,1.82-.9,3.06,2.17c-.9-3.2-3.48-8.13-2.39-9.17,6.92-6.52-.18-8.83-2.26-12l-20.85,5.82c.75,2,2.15,4.52,2.58,7.19A106.4,106.4,0,0,1,378.94,219a5.22,5.22,0,0,1-2.37,3.92c-2.12,1.1-4.67,1.4-7.23,2.08-5-6,1.26-6.07,4.76-7.65-.84-2.19-1.53-4-2.52-6.6ZM212.54,393.49c11.09-10.51,21.39-20.13,31.46-30a11.15,11.15,0,0,0,3.18-6.29c2.36-24,4.48-47.93,6.59-71.9.13-1.55-.42-3.16-.77-5.58-2.48,2-4.21,3.35-5.86,4.77-19.9,17.19-39.69,34.5-59.74,51.5-3.4,2.89-7.91,4.48-13.1,7.32C181.92,362.76,200.66,375,212.54,393.49Zm203.81-114c-.39,2.56-.7,3.43-.63,4.28q3.18,36.92,6.49,73.84a8.16,8.16,0,0,0,2,4.75c10.54,10.26,21.23,20.36,32.63,31.23,11.72-19,31.21-30.72,38.37-51.11-4.39-1.67-8.39-2.15-11-4.32-18.89-16-37.5-32.26-56.2-48.45C424.46,286.57,420.86,283.42,416.35,279.49ZM339,452.86l2.18-.18q3.56,22.32,7.1,44.62c-2.94-34.18-6.86-68.22-9-102.38s-2.48-68.3-3.61-102.46a4.58,4.58,0,0,0-1.77,3.86c-.51,21.62-.08,43.32-1.68,64.86-3.14,42.09-7.41,84.1-11.2,126.14-.19,2.06-.32,4.13-.48,6.19l1.18.13q3.25-20.43,6.5-40.86l2.29.34c-1.22,11.6-3.11,23.19-3.48,34.82-.52,16.72,0,33.47.24,50.21.07,5,3.09,6.53,8,6.54,5.09,0,6.93-2.83,7-6.92.15-17.39.37-34.8-.17-52.19C341.69,474.65,340.05,463.76,339,452.86Zm161.65,1.75c-13.22,2-18.63-6.9-25.39-12.44-7.07-5.8-13.51-12.37-21.58-19.86-2.32,6.35-4,11.16-5.84,15.94-1.58,4.2-3,8.46-4.95,12.52-.85,1.8-3.74,3.09-3.84,4.72-.37,6.17,0,12.39.18,18.58a7,7,0,0,0,1.11,3.7c5,7,10.09,13.84,16,21.84,13.24-11.51,26-22.21,38.24-33.53C497.56,463.3,498.67,458.49,500.65,454.61Zm-284.75-32c-3,2.47-4.63,3.82-6.24,5.25-8.6,7.58-16.91,15.53-25.91,22.6-3.44,2.7-8.44,3.39-14.49,5.66,7.25,20.4,29.07,27.85,43.5,42.81,2.26-2.68,3.9-4.45,5.34-6.37,3.86-5.15,9.28-9.87,11-15.68,2.08-6.87,1-14.71,1.22-22.13,0-.54-.67-1.08-1-1.64-2.59-4.81-5.46-9.5-7.68-14.47S218.05,428.65,215.9,422.63Zm430.47-37.06,1.76-.77q-35.43-92-70.88-183.93l-1.74.67C577.63,232.58,630.59,370.09,646.37,385.57ZM21.2,384.91l1.46.91C39,370.6,95,224.36,92.1,200.73ZM266.29,159.79c4.44,2.52,8.5,4.35,12,6.94,3.82,2.82,8.48,5.68,10.42,9.66,5.59,11.44,15.07,9.11,24.54,8.88,14.54-.35,29.08-.06,43.62,0,4.19,0,8.46.65,12.53,0a15.69,15.69,0,0,0,7.94-4.09c7.88-7.64,13.33-18.18,26.53-20.35a40.17,40.17,0,0,0-22.31-18.45,26.3,26.3,0,0,0,4.15,4.28c1.65,1.46,3.37,2.86,4.94,4.41,4.39,4.31,4.14,8-.69,11.45a17.55,17.55,0,0,0-3,2.4c-5.27,6-11,6-16.54-.11a52,52,0,0,1-3.36-4.62c-5.49,18.22-10.58,21.79-29.27,21.18-4.63-.15-9.28.11-13.91,0-10.44-.29-17.48-5.95-20.05-15.94-.41-1.58-.82-3.16-1-4-3.7,2.65-6.92,5.55-10.64,7.48-5.79,3-8.16-2-11.06-5.5-.38-.47-1.21-.53-1.74-.91-4.85-3.48-5.08-7.12-.67-11.43,1.57-1.54,3.3-2.93,5-4.38s3.25-2.84,4.88-4.26C278.76,145.74,270.77,151.08,266.29,159.79ZM126.85,313.55l.46.4,148-145.22c-.37-.75-.74-1.51-1.12-2.27-2.42.83-5.26,1.12-7.15,2.61-2.73,2.16-4.63,5.32-7.1,7.85Q198,240.22,136.05,303.47C132.87,306.72,129.91,310.19,126.85,313.55Zm412-2.79.69-.62c-1.6-1.75-3.15-3.54-4.81-5.23-14.28-14.48-28.69-28.84-42.85-43.43Q447.13,215.35,402.55,169c-2.56-2.65-5.09-4.15-8.4-.18Zm-327,93.57c-13,6.72-24.25,15.33-33.06,26.66-1.65,2.12-1.29,5.79-1.86,8.75,3.22-.11,7.5,1.06,9.5-.57,8.35-6.8,16.07-14.38,23.92-21.79,4-3.78,7.8-7.79,11.68-11.69l-.81-.8L206,415.77l-1.71-2Zm236,.4-1.61,1.69c4.53,4,9.08,7.94,13.57,12,8.05,7.22,15.85,14.72,24.25,21.5,1.67,1.35,5.55,0,8.4-.17-.31-2.59.28-5.87-1.08-7.67-9-11.86-20.59-20.78-34.06-27.75q3.89,4.74,7.79,9.47l-1.67,2.08ZM56.53,390.6c-6.68,6.37-13.44,12.64-20,19.15-2.3,2.29-4.66,4.92-5.78,7.86-.74,1.93-.07,5.83,1.36,6.8,1.8,1.21,6.11,1.47,7.43.18,7-6.88,13.56-14.29,20-21.74a6.37,6.37,0,0,0,.75-5.25C59.53,395.09,57.82,392.86,56.53,390.6Zm556-2.28c-.61,3.52-.38,5.32-1.14,6-5.65,5-1.76,9.14,1.4,12.84,4.86,5.7,10.15,11,15.39,16.39,2.72,2.78,6.59,4.51,9.08.91,1.5-2.16,1.59-7.32,0-9.21C629.82,406.32,621.6,398.07,612.49,388.32ZM189.86,324.23c6.93-.15,20.8-10.81,22.51-17,.4-1.44.15-3.82-.8-4.68s-3.71-1.19-4.71-.45q-10,7.5-19.42,15.68c-.95.83-1.18,3.37-.68,4.72C187.13,323.55,189.23,323.92,189.86,324.23Zm294-2.22c-.69-1.68-.8-2.77-1.39-3.27-6.87-5.73-13.55-11.77-20.88-16.85-2.94-2-5.83,1.26-4.82,5,1.68,6.24,16,17.61,22.13,17.23C480.6,324,482.2,322.77,483.88,322ZM319.56,189.15c1.67,15.69,7.35,22.15,16.67,21.4,7.94-.63,13.24-8.75,12.66-21.31a98,98,0,0,1-9.91,2.67,27.33,27.33,0,0,1-8.37.15C327.24,191.55,324,190.35,319.56,189.15Zm217.53,22.07c21.36,36,39.76,73.32,52.89,113.14C590.27,308.35,550.74,223.76,537.09,211.22ZM86.27,301.46c14.49-29.15,29.79-59.94,45.08-90.72C112.23,239.66,96.71,270.35,86.27,301.46ZM601.44,444.6l-2.27-.49-25.77,90,2.12.58Zm-73.2,174.92,2.46,1.33q21.25-40,42.53-80.06l-1.62-.88Q549.92,579.72,528.24,619.52ZM69.62,444.22l-1.74.36,26,90.06C90.29,503.3,78.12,474.25,69.62,444.22Zm69.07,176.69,2.47-1.35L97.62,539.7l-1.6.87Zm118,55.1c26,9.43,53,13.42,80.45,14.6.19-1.14.38-2.29.58-3.43C309.53,690.23,283.72,679.59,256.64,676Zm2-123.71,1.35-2.18c-17.63-12.66-27.27-33.44-46.9-45.63,13.48,15.21,26.17,29.63,39,43.88C253.76,550.17,256.44,551,258.63,552.3Zm174.85,126c.41.68.82,1.36,1.22,2.05l76.51-46-.93-1.58Zm-274.6-45.68-1.17,1.47,76.76,46.12,1.2-2ZM454.44,506.51l-1.53-1.37L409.77,551c2.73.19,5.41-.33,6.88-2C429.37,535,441.87,520.71,454.44,506.51ZM298.49,88c-20.86-3.07-26.92-2.11-30,3.88C279.82,101.46,288.5,90.12,298.49,88Zm103.36,3c-9.92-7.51-20.64-4.16-31.07-3.11C380.76,89.79,389.25,101.64,401.85,91Zm46.34,325.48c-12.16,14-15.26,28.17-9.72,31.32,1.75-3.45,3.73-6.82,5.21-10.4A131.35,131.35,0,0,0,449,422.53C449.48,420.71,448.49,418.48,448.19,416.43Zm-224.77.49-2.51-.29c0,2.51-.68,5.27.13,7.48,3,8.13,6.43,16.07,9.68,24C236.16,444,233.14,430.44,223.42,416.92Zm273-67.2c-9.82,17.14-27.24,28.62-35.14,47.2C473.6,381.62,488.8,368.48,496.45,349.72ZM486.07,167.14l1.47-1.7-59.39-51.53-1.32,1.53Zm-245-50.44-1.42-1.5-58,50.37,1.46,1.69ZM177.16,355.47l-2.09,1.63,32.07,40.56,1.77-1.35C201.36,380.37,186.68,369.9,177.16,355.47Zm145-203.72,1.47.71c3-5.75,6.49-11.28,8.78-17.28,2.64-6.9-.44-15.92-5.17-15.62-7.23.46-14.35,2.84-21.52,4.41l.58,2.11c4.39-1,8.75-2.21,13.19-2.85,10.09-1.46,13.54,3,10,12.61-.83,2.27-2.09,4.37-3.11,6.57C324.92,145.51,323.53,148.64,322.13,151.75Zm21.46,536.18A524.87,524.87,0,0,0,428,680.18Zm19.46-561.84.53-1.79c-6.22-1.73-12.37-3.89-18.69-5.07-5.18-1-7.39,2.67-8.22,7.35-1.88,10.51,4.86,17.63,9.87,25.49a6.73,6.73,0,0,0-.68-3.61c-1.86-4-4-7.87-5.66-11.93-4.14-10.07-.43-14.85,10.25-13.19C354.69,124,358.85,125.16,363.05,126.09ZM325.66,95.55c6.48,5.65,12.4,5.33,18.06-.24-.58-1.9-1.11-3.66-2.05-6.71-4.75,6.11-9.53,3.67-14.43.87C326.63,91.82,326.15,93.64,325.66,95.55ZM376.73,188l.32,2,13.65-.69c-2.44-4.44-4.14-7.53-5.75-10.48Zm-92.41-9.2L279,189h14.68ZM248.16,674.13l1.23-2.27-28.22-13.79c-.33.66-.65,1.32-1,2ZM448.9,660.19c-.32-.71-.63-1.43-.94-2.14L420,672l1.08,2.16ZM326.16,170.31c-9.25-9.42-14.13-20.59-14-33.89C309.42,149.92,316,166,326.16,170.31Zm30.75-33.82c1.16,13.6-5.27,24.18-15,35.18C353.64,165.56,360,149.66,356.91,136.49Zm30.24,544.23c0,.68-.07,1.35-.11,2l26.14-5.58c-.15-.7-.3-1.4-.46-2.1ZM360.29,108.79l-16.4-6.71,12.61,11.44Zm-35.77-6.2-15.72,6.25,4.36,4.61C316.9,109.88,320.17,106.76,324.52,102.59Z" transform="translate(0.23 1)"/><path d="M494.33,34.09l-8,2c1.81-2.47,2.88-3.79,3.79-5.21C493.94,25,497.8,19.1,501.35,13c.73-1.24.27-3.22.24-4.86,0-1.86-1-4.54-.14-5.38,1.69-1.64,4.38-2.24,7.84-3.8-1.68,6.8-2.87,11.59-3.8,15.38L516.27,7,519,15.74l-2.36.72-2.5-4.76L494.17,34.23Z" transform="translate(0.23 1)"/><path d="M160.37.48c8,0,9.1,1.63,6.88,8.15a6.77,6.77,0,0,0,.88,5c4.32,7.29,8.89,14.45,13.64,22.1-13.44-2.86-18.45-14.69-25.7-24.91l-3.54,5.84c-3.23-3.39-2.52-7,.44-9.09,1-.73,4.89,1.67,6.88,3.33,1.73,1.44,2.64,3.85,4.63,5.51Z" transform="translate(0.23 1)"/><path d="M252.75,391.43c3.64,4.36,6.57,8.83,10.45,12.21,3,2.65,7.24,4,10.93,5.87,1.2-4,4-8.39,3.25-12.06a40.13,40.13,0,0,0-7.26-15.94c-5-6.7-8.42-13.61-7.36-21.95,1.15-9.17,2.82-18.27,4.56-27.35a9.47,9.47,0,0,1,4.36-5.84c-.62,2.22-1.34,4.42-1.85,6.67-2.69,11.91-1,22.94,7.55,32.08,5.84,6.24,10.58,5.16,13.92-2.81,1-2.4,2.1-5.19,1.81-7.63-1.28-10.64-3.06-21.22-4.65-31.82l-3.08.45c1.06,8,2.2,16,3.13,24,.23,2,.5,5-.57,5.85-1.28,1-4.2.78-6.06.11-8.18-2.95-10.09-7.44-8.16-16.38,1.81-8.41,2.89-17,4.85-25.36a8.68,8.68,0,0,1,4.87-5.34c1.2-.4,4.49,2.07,5.15,3.87,6.93,18.87,14.28,37.76,9.87,58.52-2.7,12.68-5.66,14.09-18,9.26-.81-.32-1.68-.47-3.81-1,.86,2.87,1,5.24,2.17,7,8.66,13.47,9.19,27.75,2.68,41.77-5.75,12.37-7.84,25.19-8.7,38.49a64.11,64.11,0,0,1-1.12,6.53h-1.8c-.62-2.58-1.23-5.16-2.12-8.88-2.3,4.66-4.2,8.52-6.15,12.49C247,462.89,240.34,404.48,252.75,391.43Zm1.41,52.21,1.74-.1c1.93-12.66.61-22.21-5.73-29.33Z" transform="translate(0.23 1)"/><path d="M290,403c11.5,3.32,11.53,3.32,12.18,15.08.58,10.58,1.11,21.16,2.47,31.82q1.14-18,2.29-36.08c.19-3.09-.41-6.42.58-9.21,1.17-3.3,3.29-8.35,5.66-8.74,6.73-1.13,7.32-5.19,7.52-10.32a14.2,14.2,0,0,1,.94-3.14c3.93,3.85,2.51,42.45-2.95,58.24l-3.84-15.72-1,.06c0,10.74-.28,21.49.1,32.22.28,8.17-9.68,18.83-17.84,17.76-1.68-.21-4-3.08-4.24-4.95-.28-2.35.84-5.2,2.14-7.36,9.58-15.94,3.61-32.89,3-49.48v17.22a94.5,94.5,0,0,1-8.31,39.88c-2.06,4.5-4.83,7.41-10.23,6.1-4-1-4.31-2.68-2-6.09a99.57,99.57,0,0,0,6.75-12.51c2-4.1,4-8.24,5.66-12.49,1.1-2.82,2.26-5.88,2.24-8.82-.09-9.25-.73-18.5-1.12-27.76C289.9,407,290,405.29,290,403Z" transform="translate(0.23 1)"/><path d="M315.76,471.75c-2.67,19.16-5.26,37.73-7.85,56.29l-2.75,2.35c-1.15-2.27-2.34-4.51-3.45-6.8-5.19-10.68-10.41-21.35-15.52-32.06-1.87-3.92-.59-6.63,3.41-8.47,7.51-3.46,14.89-7.19,22.35-10.77C312.49,472,313.2,472.1,315.76,471.75Z" transform="translate(0.23 1)"/><path d="M255.71,480.35c7.22,6.65,14.22,13.08,21.19,19.55a25.82,25.82,0,0,1,3.64,3.83c8.63,12.21,17.25,24.44,25.72,36.76,1.33,1.93,1.95,4.35,3.48,7.9-11-5.58-20.64-9.95-29.69-15.25A21.15,21.15,0,0,1,272,523.8c-5.63-12.89-10.6-26.06-15.71-39.17A15.59,15.59,0,0,1,255.71,480.35Zm35,51.68,1.79-1.31q-10-13.17-20.11-26.35l-2,1.56C274.86,516.4,280.24,526.18,290.71,532Z" transform="translate(0.23 1)"/><path d="M301.4,310.43c1.11,2.17,1.93,4.56,3.37,6.47,4.11,5.47,8.17,11,12.79,16.05,8.21,8.9,9.87,19.45,8.59,30.81-.21,1.93-1.93,3.69-3,5.54-1.57-1.28-3.21-2.48-4.69-3.86-13.91-12.84-17.19-30.28-20.57-47.67a13.23,13.23,0,0,1-.27-3.26c0-.57.55-1.12.84-1.68Zm6,22-1.94,1.05,13.15,24.23,1.75-.95C320.9,346,313.51,339.57,307.35,332.46Z" transform="translate(0.23 1)"/><path d="M290.63,233.68l17,4.22a18.92,18.92,0,0,1,.2-5.18c.12-.44,3.64-.7,3.86-.23,3.07,6.54,5.54,13.1,0,19.81-3.61,4.38-6.7,9.18-10.18,13.67-.68.87-2.09,1.19-3.16,1.76-.67-1.26-2-2.57-1.89-3.78.2-3.33-.32-5.61-4.21-6.07-.68-.08-1.66-1.58-1.71-2.48-.39-6.41-.62-12.83-.79-19.25A7.57,7.57,0,0,1,290.63,233.68Z" transform="translate(0.23 1)"/><path d="M318.34,207.41l3.24,11.28-2.24.66c-2.81-3.25-6.15-6.34-3.69-11.15Z" transform="translate(0.23 1)"/><path d="M416.53,391.72c11.92,9.84,6.89,68.49-8.79,83.08-2-4.48-3.75-8.53-5.81-13.2-.92,3.25-1.73,6.11-2.53,9l-1.51.1c-.51-2.36-1.35-4.7-1.46-7.07-.58-13.36-3.11-26.06-8.73-38.46-6.13-13.52-5.75-27.47,2.43-40.59,1.19-1.92,1.7-4.27,3.14-8-3.94,1.39-6.28,2.28-8.65,3-6.85,2.19-10.29.24-12.65-6.5-5.53-15.83-1-31,2.81-46.22a110.15,110.15,0,0,1,6.35-17.34c.72-1.63,3.31-3.52,4.86-3.38s4,2.4,4.36,4.11c2.52,10.73,4.92,21.52,6.67,32.4.86,5.36-8.89,13.15-13.9,11.27-1.39-.52-2.54-4.05-2.35-6.05.81-8.25,2.17-16.45,3.33-24.66l-3.32-.5c-1.52,11.18-3.91,22.34-4.11,33.54-.07,4.26,4.86,8.62,7.51,12.93,4-3.12,9.39-5.46,11.81-9.54,5.07-8.55,6.65-18.19,3.16-28.08a9.27,9.27,0,0,1-.22-5.93c1,2.11,2.66,4.13,3,6.34,1.72,11.28,4,22.61,4.18,33.94.07,5.06-3.86,10.58-7,15.18-4.62,6.75-8.74,13.43-7,21.95.49,2.35,1.86,5.63,3.63,6.28s5.07-.8,7-2.27c2.74-2.14,4.82-5.11,7.16-7.75C412,396.89,414.17,394.42,416.53,391.72Zm-4.6,51.67,2.59.27c1.61-10,6.52-19.66,2.8-30.13l-1.85-.21Z" transform="translate(0.23 1)"/><path d="M354.7,423.44,351,440.51l-2.05,0c-2.24-19.19-4-38.4-3.8-57.75l2.67-1.34a10.44,10.44,0,0,1,.64,2.56c0,6.18,1.32,10.73,8.69,12.38,2.21.5,4.38,5.94,4.68,9.28,1.32,14.95,1.95,30,3.7,45,.39-7.67.75-15.35,1.17-23,.21-4,.36-8,.79-11.91,1.13-10.18,1.19-10.17,12.26-12.35-.19,2.31-.43,4.37-.52,6.44-.43,8.82-1.24,17.65-1,26.45.1,3.69,2.41,7.32,3.75,11,1.59,4.32,3,8.7,4.86,12.92,1.36,3.18,3.21,6.15,4.87,9.19.89,1.64,1.86,3.24,2.79,4.86-2.15.84-4.89,2.95-6.33,2.27-2.88-1.34-5.94-3.76-7.34-6.53-6.15-12.26-8.34-25.53-8.46-39.16-.06-6.16,0-12.32-1.21-18.56-.28,7.9-.62,15.8-.8,23.71-.07,3.53.81,7.18.2,10.59-1.5,8.45,5.14,14.24,6.39,21.69.32,1.92.39,4.88-.72,5.79-1.34,1.09-4.33,1.22-6.11.5-3.86-1.55-7.91-3.36-10.91-6.12a13.3,13.3,0,0,1-3.78-8.56c-.42-12-.17-24-.17-36.05Z" transform="translate(0.23 1)"/><path d="M361.49,528q-3.93-27.87-7.87-55.74l2.13-.68c4.07,2.44,8.07,5,12.25,7.27a40,40,0,0,0,8.53,3.48c8.05,2.15,9.13,4.21,5.57,11.53-4.51,9.3-8.9,18.67-13.57,27.89-1.31,2.58-3.42,4.74-5.17,7.1Z" transform="translate(0.23 1)"/><path d="M413.8,480.07c-.39,2.1-.47,4.66-1.35,6.9-4.93,12.48-9.42,25.2-15.44,37.13-2.44,4.84-7.94,8.61-12.81,11.64-7.22,4.5-15.12,7.91-24.25,12.56,1.14-3.12,1.49-5.33,2.64-7,8.87-12.84,17.89-25.59,26.9-38.34a15.67,15.67,0,0,1,2.28-2.4C399,493.8,406.27,487.06,413.8,480.07Zm-36.55,50.22c.66.52,1.33,1,2,1.54,9.9-6.19,15.53-15.57,19.76-26l-2.09-1.58Z" transform="translate(0.23 1)"/><path d="M371.17,311.66c.2,2.45.67,4.06.4,5.53-3.3,17.91-7.09,35.64-21.09,48.93a38.13,38.13,0,0,1-4.43,3.16c-1-1.65-2.71-3.24-2.83-4.95-.65-9.06-1.29-18.24,4.81-26.07q9.38-12,18.93-23.89C367.71,313.45,369.05,313,371.17,311.66Zm-22.1,44.91,1.9,1,13-24.11-2.09-1.12C356.1,339.63,348.38,345.88,349.07,356.57Z" transform="translate(0.23 1)"/><path d="M360.11,230.91l2.32,6.9,16.6-4.25c0,2.1.16,4.07,0,6-.38,3.89-1.73,7.86-1.21,11.59s2.12,6.76-3.36,7.79c-.76.15-.81,3.41-1.45,5.13a8.34,8.34,0,0,1-2.19,3.55c-.35.29-2.42-.75-3-1.64-4.59-7.12-9.27-14.2-13.29-21.63-.88-1.62.63-4.67,1.35-7a55.56,55.56,0,0,1,2.58-5.81Z" transform="translate(0.23 1)"/><path d="M352.89,207.93c2.4,4.78,2.25,5.35-3,11.38l-1.88-.42,2.67-11.32Z" transform="translate(0.23 1)"/><path d="M323,194.33c8.07,5.72,15.49,4.87,23,.75-.34,7.13-5.35,12.45-10.85,12.75S324.08,202.93,323,194.33Z" transform="translate(0.23 1)"/></g></svg>