<svg id="Layer_1" data-name="Layer 1" xmlns="http://www.w3.org/2000/svg" viewBox="0 0 317.47 633.77"><defs><style>path{fill:#ff3fb4;}</style></defs><title>Chinche2</title><g id="e4oQHo"><path d="M282.35,411.68c-4.31,1.63-4.79,3.86-1.09,12,1.26,2.74,2.83,5.37-.63,6.11,1.29,3.4,3.35,6.58,3.34,9.76,0,1.58-3.82,3.14-6.66,5.28-.92,7.72.09,14.45,3.11,19.14l-8.62.92c1.14-8.19,2.18-15.71,3.36-24.23-2.64,1.09-3.86,2.06-5,1.95-2.18-.23-5.16-.43-6.2-1.83s-.72-4.52,0-6.47c1.62-4.15,4.93-7.85,5.73-12.08,2.46-13,8.4-24.85,11.76-37.45,3.12-11.67,4.34-23.85,6.28-35.82a40.33,40.33,0,0,0,.05-6.15c-12.91,2.77-24.69-7.22-37.09-1.29,1.74,9.12,4.62,18.18,5,27.35,1.19,28.44,1.61,56.92,1.9,85.39.05,4.92,1.54,6.59,5.85,9,10,5.51,19.2,12.52,28.72,18.91.29,5.75,4.56,10.59,2.44,17.08-6.43,19.78-12.3,39.75-18.21,59.71-1.74,5.9-2.56,12.07-4.36,18-1.18,3.86-3.36,7.41-5.09,11.1l-1.09-.61c.82,4.07,1.7,8.13,2.42,12.22.13.74-.11,2-.59,2.3-2.84,1.55-1.5,3.48-1.12,5.68.25,1.51-.45,4.14-1.57,4.77-5.85,3.34-4.28,8.86-4.68,13.85-.16,1.94-.13,4-.88,5.73-.21.48-3.61.48-4.25-.33-1.29-1.63-1.69-4-2.46-6l1.45-.64,2.67,3.05c.93-5.9,1.69-10.79,2.39-15.25-2.65-.27-5.61.12-6.07-.77-.93-1.8-.59-4.3-.59-6.51a43.8,43.8,0,0,1,.41-6.17,11.42,11.42,0,0,1,1.21-3.73c2.59-4.83,5.43-9.55,4.91-15.39a5.86,5.86,0,0,1,.6-2.4c6.51-17.28,13.19-34.5,19.5-51.85,3.34-9.21,6.13-18.63,8.93-28,.58-1.93.09-4.19.09-6.26-9.74-.59-14.83-7.9-21.5-12.54-2.64-1.84-5.23-3.73-8.9-6.36-.4,5.81-.58,10.1-1,14.36-2.16,21.54-4.13,43.1-6.69,64.59-1.71,14.37-4.15,28.66-6.56,42.94-2.22,13.24-8.75,23.74-22.13,27.66-16.43,4.82-33.16,8.58-49.81,12.57-1,.25-3.52-1.4-3.66-2.4a77.38,77.38,0,0,1-.48-11.4c0-2.61.31-5.22.46-7.53H148c.09,2,.18,4.22.29,6.47.14,2.66.51,5.33.42,8-.26,7.36-.77,7.82-7.79,6.11-15.51-3.78-31.12-7.22-46.41-11.76-13.56-4-20.08-14.65-22.27-28.12C70,580.35,67.61,566.57,66,552.69c-2.6-21.82-4.64-43.71-6.85-65.58-.43-4.26-.59-8.55-1-14.23-3.4,2.24-5.9,3.69-8.18,5.43-4.77,3.61-9.29,7.55-14.18,11-1.91,1.33-4.52,1.66-7.79,2.78,0,1.84-.64,4.72.12,7.17,3.06,9.83,6.41,19.58,9.92,29.26,6,16.58,12.78,32.91,18,49.72,2,6.26,3.25,12.59,6.15,18.65,1.78,3.74,1.87,8.59,1.68,12.89s-3.6,3.24-7.28,1.87c.74,5.42,1.41,10.23,2.22,16.1l3.84-3.5c-.1,2.37.41,4.4-.37,5.27a9.48,9.48,0,0,1-5.08,2.63c-.55.11-2.17-2.26-2.27-3.57-.26-3.24.43-6.56.07-9.77-.28-2.56-.78-5-4-6.66-1.59-.82-1.32-5.21-1.52-8.12-3.78-5.6-.56-11.11.42-15.31-2.21-3.66-4.61-6.3-5.51-9.38-7.55-25.71-14.87-51.48-22.15-77.26-1.37-4.85-3.93-9.92.85-14.47-1.66-7.48,5.18-8.79,9.1-11.55,7.57-5.33,15.9-9.55,23.69-14.58,1.33-.85,2.19-3.41,2.2-5.19.08-19.83-.3-39.66,0-59.48.24-18,1.91-35.95,7.15-53.34a10.91,10.91,0,0,0,.25-1.81c-12.62-6.25-24.42,4-37.6.93.39,6.39,0,12.47,1.24,18.21C32.38,376,34,391.86,43,405.31c.36.53.93,1.32.77,1.76-2.67,7.35,2,12.82,4.71,18.81,1.35,3.05,2.7,6.11,3.93,9.21,1.95,4.91-.85,8.45-6.07,7.63-1.4-.22-2.72-.93-5.49-1.91,1.13,8.27,2.14,15.79,3.26,24l-7.46-.73,3-19.88C29.58,441.22,29,438,35,431.8c-.21-3.54-.59-5.62-.39-7.64A20.58,20.58,0,0,1,36.12,419c1.52-4,1.67-7.25-4.12-7.44,1.7-10.61-1.79-20-4.69-29.56-4-13.08-4.7-26.5-3.78-40,.17-2.52-3.11-5.64,1.12-7.58,2.61-1.2,5.08-3.11,7.81-3.57,12.6-2.12,25.27-3.83,37.9-5.77a3.44,3.44,0,0,0,2.34-1.5c4.13-8.61,12.28-10.64,20.43-12.66,3.51-.87,7.05-1.58,10.8-3.53-1-.34-2.06-1.08-3-1-17.14,2.17-34.27,4.47-51.42,6.66-6.37.81-12.76,1.74-19.17,2-4.13.19-8.29-4.16-7.47-8.22A164.27,164.27,0,0,1,29.17,284C35.19,267.21,41.7,250.66,48,234a4.39,4.39,0,0,0,0-1.5c-7.3,6.55-6.95,6.72-11.17,15.31-4.88,9.93-10.47,19.51-15.73,29.25a22,22,0,0,0-1.66,3.59c-4.26,13.24-7.79,26.76-12.9,39.66-4.74,12-.64,23.94-1.78,35.85-.24,2.47,1.71,5.32,3.08,7.75,2.94,5.22,6.25,10.24,9.22,15.45a43.29,43.29,0,0,1,2.4,6.07l-1.41,1c-1.17-.89-2.72-1.55-3.43-2.72C7.86,372.57,1.28,361.12-.06,348A88.41,88.41,0,0,1,1.1,322.31C4,307.68,9.66,293.82,14.64,279.74c5.75-16.26,15.68-29.85,23.11-44.94,3.63-7.38,7.87-14.45,12.13-22.18-3.85-7.7-3.85-7.7.43-9.9-2.26-7.68-1.88-8.39,5.55-10.83V168.06l-1.1-.29-2.13,3.55L51.41,171c.49-1.67.61-4.48,1.55-4.8a37.86,37.86,0,0,1,10.86-1.88c.87,0,1.8,2.85,2.7,4.4l-1,.8-2.68-1c-3.43,10.1-3.22,20.37-2.17,30.68l1.5.61c1.83-3.49,3.56-7,5.51-10.45a25.34,25.34,0,0,1,3.8-5.2c4.79-4.87,9.85-9.48,14.54-14.44,1.5-1.59,2.09-4,3.24-6,.55-.93,1.28-2.15,2.17-2.41,4.88-1.43,4.07-3.79,1.45-6.78-.68-.79-.9-2-1.92-4.33,9,2.26,16.7,4.27,23.18,9.5,2.15,1.73,4.2,3.45,6.87.53-9.48-9.2-13.85-21.06-17.6-33.12-1.09-3.51-.8-7.65-.34-11.4,1.73-14.11,0-27.9-2.95-41.66-1.49-7-2.62-14.08-3.74-21.15a15.68,15.68,0,0,1,.75-8.11l1.91,5.46,1.28.29c1.15-3.28,2.22-6.59,3.46-9.83,3.66-9.62,6.83-19.48,11.26-28.74A19,19,0,0,1,135.38,1.4a28.38,28.38,0,0,1,3.56,1.39,32.72,32.72,0,0,1-4.05,2.62c-6.83,3-8.09,10-11.19,15.6-1.33,2.4-.32,6-1.28,8.76-1.91,5.48-5,10.59-6.53,16.15-1.08,4,.17,8.57-.62,12.69-.59,3-.44,4.83,3.2,5.82-5.55,4.73,1.9,6.76,1.17,10.84l4.78-.66c.07.64.33,1.22.14,1.54a32,32,0,0,1-3,4.56c-2.79,3.29-4.61,6.47-3,11.22,2.18,6.45,4.25,13.08,5.06,19.79,1,8.6,5.62,15.57,10,22.23,3.91,6,8.09,11.82,11.33,17.79,2.82,1.21,5.57,2.14,8.07,3.52a9.54,9.54,0,0,0,10.36-.24c2.17-1.3,4.68-2,7.93-3.39,2.19-4.27,3.7-11,7.88-14.51,6.34-5.34,7.49-13.15,12-19.2,2-2.72,1.89-7.07,2.77-10.68,1.38-5.69,3.32-11.31,4-17.08.31-2.75-1.57-5.89-2.91-8.63-1-2.13-2.78-3.93-4.88-6.79l6.28.37c-1.62-3.9,7.18-5.4.86-10.3,6.93-2,2.53-6.64,3.07-10.09.94-6.08-.89-11.86-3.19-17.41-1.25-3-2.88-5.87-4.35-8.79-.3-.59-1.07-1.4-.9-1.71,2.72-4.9-1.94-8.2-2.76-12.31-.43-2.16-2.45-4.18-4.14-5.89a82.36,82.36,0,0,0-6.84-5.71c6.48-5,19.21,1.3,22.54,8.51,3.89,8.44,7.17,17.16,10.5,25.84,1.64,4.28,2.8,8.73,4.18,13.11h1.38c.64-1.83,1.27-3.66,1.91-5.5l1.56.19c-.61,4.88-1.17,9.77-1.83,14.64-2,15-4.19,30-6.17,45a22,22,0,0,0,.22,6.47c3.07,18-4.95,32.36-14.72,46.19a20.49,20.49,0,0,1-2.88,2.73c2.43,2.78,4.22,1.25,6.56,0,6.46-3.32,13.15-6.21,19.8-9.16.77-.34,1.86,0,3.09.12-.23,1.09-.13,2.1-.6,2.59-3.36,3.53-4.2,6.43,1.66,8a1.16,1.16,0,0,1,.75.62c2.26,10.05,12.31,13.56,17.6,21,1.93,2.73,3.09,6,4.93,8.8,1.7,2.58,3.86,4.86,5.81,7.27l1.7-.32c-.55-10.1-1.1-20.21-1.69-30.94l-5,1.61c.77-2.2,1.27-4.92,1.8-4.93a43.92,43.92,0,0,1,11.29,1c1.08.28,1.47,3.26,2.17,5l-1.46.49c-.59-1.2-1.18-2.39-1.78-3.59l-1.16.09V191.7c7.52,3.73,7.52,3.73,5.3,10.94,7.08,3.66.48,7.25,0,11a.6.6,0,0,0,.11.33c13.08,16.55,21.6,35.89,31,54.41A200.18,200.18,0,0,1,316,326.09c3,18.09-1.12,35-10.58,50.67-2.05,3.38-4.27,6.66-6.41,10l-1.74-.72c0-1.17-.33-2.46.07-3.48a24.05,24.05,0,0,1,2.85-5.25,59.46,59.46,0,0,0,11.71-36.56c0-14.53-4.32-27.42-8.77-40.62-.1-.32-.25-.62-.33-.94-3.61-14.84-11.19-28-17.86-41.49-3.29-6.67-6.88-13.22-10.81-19.53-1.39-2.22-4.18-3.56-6.08-5.09,0-.24-.22.41,0,.9,6.18,16.5,12.59,32.92,18.56,49.49a162.38,162.38,0,0,1,6.54,22.83c.95,4.74-3,8.85-7.88,8.88-4.58,0-9.17-.8-13.75-1.32-14.22-1.59-28.44-3.15-42.64-4.87-4.29-.52-8.5-1.57-12.77-2.27a24.08,24.08,0,0,0-3.8,0l-.21,1.69c3.74.87,7.51,1.66,11.23,2.61,8,2,15.91,4.12,20,12.5.42.87,2.1,1.39,3.27,1.58,13.12,2,26.32,3.64,39.38,6.06,5,.91,8,3.69,6.68,10.37-1.41,7.37.14,15.26-.71,22.8-.83,7.38-3.13,14.6-4.64,21.92C285.61,394.42,284.09,402.67,282.35,411.68ZM191.31,199c0-6.51-.41-12.6.19-18.58.26-2.61,2.19-6.65,4.08-7.12,2.73-.68,6.7.52,9.1,2.31,6.87,5.14,10.55,17,6.92,24.92-2.95,6.44.25,12.57-1.74,18.28,12.9,5.13,22.9-2.25,33.9-5.84-3.14,3.42-6.91,6-10.06,9.23-3.43,3.5-8.51,7.35-8.93,11.45a73.26,73.26,0,0,0,2.34,27.13c.48,1.7,2.83,3.28,2.64,4.7-1,7.78,5.28,8.12,9.8,9.88,4,1.56,8.43,2,12.52,3.35,2.2.73,4.09,2.42,6.11,3.67-10.94-3.45-22.41-.71-30.86,8.14,18.77,8.33,38.62,11.35,59.69,12.58-.82-3.11-1.34-6-2.35-8.71-4.13-11.07-8.13-22.21-12.71-33.09-4.26-10.11-9.18-19.94-13.86-29.87-1-2.23-3.11-4.35-3.17-6.57,0-1.85,2.14-3.76,3.52-5.94l-4.73,1.81c-2.51-4.21-10.24-6.67-4.36-12-2.36-10-9.49-15.86-14.84-23s-11-14.2-15.93-20.45l-20,3.43-.13-1.19-2.79,4.89c-2.22-7.47-4.51-8.79-8.5-6.72l5.09,8.52c-3-.55-4.84-.47-6.18-1.21-4.38-2.4-8.32-1.66-12.15,1.07-2.18,1.53-4.44,3-6.49,4.66-6.2,5.11-7.31,16.42-3.27,23.59,3.07,5.46,4.1,12.21-4.78,13.13,0-2-.09-4,0-5.92.2-3.79.69-7.56.75-11.34.12-6.46-.11-12.93.09-19.39a4.68,4.68,0,0,1,2.27-3.18c6-3.26,12.11-6.23,18.1-9.45a38.64,38.64,0,0,0,4.77-3.59c-2.07-2.43-3.72-4.38-5.35-6.31,3.35-2.93,6.78-5.17,9.25-8.2,9.46-11.54,13.66-25.44,16.34-39.76,2-10.78,2.45-21.87,4.83-32.54,2.2-9.83,5.35-18.94.47-29.16S203,25.13,198.72,14.53c-2.4-5.89-7.43-9-13.72-10,.83,1.11,2.31,1.69,2.84,2.74,2.64,5.29,5.15,10.64,7.45,16.08,1.15,2.74,1.65,5.74,2.64,8.55.36,1,1.74,1.82,1.9,2.83,1.07,7,5.42,13.46,3.38,21a4.37,4.37,0,0,0,0,2c1.89,8.6-2.21,15.22-6.16,20.53,1.4,4.45,3.72,8.29,3.5,12-.36,6.14-2.08,12.27-3.75,18.26a98.29,98.29,0,0,1-5,12.93c-1.89,4.33-4,8.56-6.13,12.78s-3.47,9.67-6.88,12.49c-4.22,3.49-4.57,6.16-1.45,10.39l-.95,1.11-8.73-2.24c-.39,3.71-3.7,4.09-6.87,3.91-4.73-.27-10.56,2.08-12.5-3.71l-8.8,1.8-.63-1.4c3.15-3.77,3.47-6.92-1.39-9.29-.88-.43-1.29-1.87-1.85-2.88-2.38-4.31-4.85-8.58-7.06-13-2.54-5.07-5.37-10.09-7.1-15.44-1.91-5.89-2-12.41-4.19-18.18-2.68-7.15-2.88-13.32,2.48-18.33-1.65-2.6-3.53-4.61-4.29-7a82.86,82.86,0,0,1-3-13.39c-.36-2.53.24-5.21.52-7.81s.32-5.42,1.2-7.88c2-5.47,4.62-10.7,6.52-16.19.75-2.18-.5-5.17.46-7.16,2.67-5.54,6-10.75,8.87-15.71.39-.07-.26,0-.84.17-6.22,2.09-10.78,6.16-13,12.25-3.94,10.58-6.69,21.7-11.49,31.85-3.5,7.4-2.17,13.85-.76,21,2.1,10.57,3.74,21.24,5.37,31.9,2.57,16.8,6.78,33,17.52,46.65,2.5,3.17,6.1,5.48,9.3,8.28l-6,6.93c7.85,4.16,14.92,8.06,22.15,11.65,2.23,1.11,3.82,1.8,3.79,4.87-.09,9.08.27,18.16.43,27.24,0,2.89,0,5.78,0,8.86-6.95-3-7.91-3.72-5.58-9.91A45.4,45.4,0,0,0,154,186.39a8.23,8.23,0,0,0-2.44-5,107.44,107.44,0,0,0-9.48-7.3c-3.8-2.77-7.76-3.46-12.14-1.06-1.35.73-3.15.64-6.18,1.19l5.4-9c-1,0-3.17-.65-4.19.14-2,1.54-3.35,3.88-5.22,6.2-.77-1.39-1.58-2.87-2.39-4.35l-.43,1.54-19-3.4c-2,2.07-4.51,4.46-6.73,7.12-6.76,8.15-13.4,16.4-20.07,24.62a7.13,7.13,0,0,0-1.17,2.08c-1,2.92-1.87,5.86-3.1,9.74,5.55,5.49-2,7.87-4.78,11.76l-4.45-1.55c2.1,2.7,5.46,4.4,2.76,8.57-13.91,21.49-20.27,46.25-30,69.57-.75,1.82-.67,4-1,5.88,20.86-1.3,40.62-4.29,60.06-12.94-10-6.36-19-13.15-31.57-7.33a18.74,18.74,0,0,1,6.51-4.29A87.94,87.94,0,0,1,77,275.39c7.8-1.34,9.56-7.86,12.24-13.64a13.37,13.37,0,0,0,1.62-4.55c.29-5-.09-10.11.46-15.1.58-5.28.92-10.29-3.27-14.33-2.75-2.65-5.62-5.16-8.47-7.71-2.5-2.24-5-4.44-7.58-6.66,11.27,3.18,21.27,10.55,33.52,5.68.35-4.26.76-8.65,1-13.06,0-.7-.61-1.46-1-2.18-4.42-9-2.34-21.49,5.42-27.87,2.4-2,6.61-3.3,9.44-2.63,1.94.45,3.84,4.8,4.15,7.58.63,5.82.19,11.75.19,17.83l3.93-1.6c2,5.33,3.67,10.32,5.61,15.21,4.3,10.83,11.34,15.32,23.71,15.32s19.42-4.49,23.71-15.32c2-5,3.75-10.12,5.72-15.48Zm-111.14,173a18.88,18.88,0,0,0-1.8,2.28c-.54,1.22-1,2.48-1.5,3.7-7.23,16.94-8.5,35-8.53,53,0,13.94,2.67,27.9,2.4,41.82-.28,14.13,5.92,27,6.16,41,.11,6,1.49,12.26,1.52,18.58a137.79,137.79,0,0,0,2,23.84c2.67,14.68,6.18,29.21,9.17,43.83.26,1.29-.75,2.84-1.17,4.27-1.17-.77-2.91-1.28-3.39-2.36-2-4.38-4.19-8.8-5.13-13.45-2.59-12.72-4.67-25.54-6.76-38.36-1.26-7.72-2.06-15.51-3.26-23.24-1.13-7.32,4.63-14.83-.64-22-.08-.11,0-.33,0-.49-.32-3.57-.42-7.17-1-10.7-1.37-8.54-3.75-17-4.3-25.55-.93-14.61-.71-29.29-1.09-43.94-.65-25.1,5.64-49,14.07-72.16,4.18-11.48,1.4-23.22,4.59-34.7-2.71,2-5.06,4.16-6.3,6.83-1.59,3.43-1.84,7.48-3.46,10.89-6,12.59-8.07,26.12-9.11,39.7a829.93,829.93,0,0,0,.55,126.34c2.48,32.15,8,64.09,12.69,96.05,1.42,9.72,7.13,18,16.45,21.18,17.23,5.87,35,10.25,53.74,15.6,0-6.32-.15-11.07,0-15.81q.51-13.7,1.34-27.37c.3-5,1.11-9.91,1.35-14.88.93-19.64,1.49-39.29,2.62-58.91,1.39-24.08,4.13-48.12,4.66-72.21.87-39.81.46-79.65.5-119.48a6.62,6.62,0,0,0-1.41-3.91c-2.29-2.8-4.8-5.42-7.34-8-2-2-4.19-3.89-6.3-5.82l-1.91,1.07c1.38,4.44,2.82,8.86,4.12,13.32,2.84,9.71,5.79,19.4,8.28,29.2.65,2.6-.1,5.59-.42,8.38-.51,4.28-1.68,8.53-1.71,12.8,0,6.14.79,12.28,1,18.44.06,1.7-.68,3.43-1.05,5.15-1.49-.75-2.94-1.6-4.48-2.23s-3.7-1.74-4.25-1.22a5.94,5.94,0,0,0-1.62,4.62c.44,2.74,1.68,5.37,2.64,8,1.75,4.84,4,9.56,5.08,14.54.48,2.27-1.43,5-2.25,7.57-2.35-1.19-5.33-1.85-6.92-3.69-2.66-3.09-4.43-6.93-6.64-10.57-.74,1.55-1.38,2.9-2,4.25l-1.78-.06-2.43-20.74,1.77-.3L139.53,416l1.28-.53c-1.08-5.14-2.52-10.24-3.12-15.44a36.32,36.32,0,0,1,.69-10.94c.66-3.33-.94-6.47-5-7.51v11.23c-9.36-4.37-10.2-6.26-7.18-15.23a16.65,16.65,0,0,1,2-4.57c1.29-1.76,3-4.37,4.57-4.45s3.78,2.17,5.13,3.85a72.67,72.67,0,0,1,4.81,7.67l2.11-1c-1.82-5.27-4.9-10.5-5.13-15.84-.25-5.62,2.24-11.36,3.41-16.52-2.09-.84-4.14-1-4.66-2a43.22,43.22,0,0,1-3.49-9c-2.13-7.86-4.18-15.74-5.92-23.7-.61-2.8-1.91-3.44-4.44-3.37-2.69.08-3.48,1.43-3.25,3.83.6,6.29,1.15,12.58,1.77,18.87.33,3.3,1.06,6.6,1,9.9,0,3.68-2.26,4.63-5.27,2.47-1.87-1.35-3.39-3.24-5.36-4.39-5-2.93-8.51-7.05-9.76-12.69-1.06-4.79-1.55-9.71-2.34-14.92-3.44,0-6.35.71-6.69,5.77-1.23,18.64-2,37.22,1.95,55.71,1.2,5.67,1.55,11.52,2.19,17.31s1.14,11.79,1.78,17.68c.41,3.79,1.14,7.55,1.39,11.35.1,1.53-.69,3.13-1.2,5.23-1.31-1-1.87-1.31-2.33-1.75-5.87-5.75-7.56-9.85-4.84-14.25,3.83-6.24-5.17-9.34-3.16-15a18.48,18.48,0,0,0,.6-5.44c.09-2.67,0-5.34,0-8-7.48,9.17-10.35,19.24-6.14,30.17,2.18,5.68,5.53,11,8.68,16.22,3.5,5.84,8,11.16,11,17.23,5.93,12,4,27.42-4.39,34.9-5.29,4.7-10.39,9.25-13.52,15.75a5.81,5.81,0,0,1-3.85,2.49c-1.53.27-3.25-.46-6.12-1-.6-2.21-2.41-5.71-2.32-9.15.35-13.43,1.3-26.84,2-40.26.37-6.77,1-13.53,1.08-20.31.17-11.61-.25-23.23.13-34.83C77.8,385.45,79.16,379.39,80.17,372.05ZM170,632.83c6.84-1.47,12.57-2.45,18.16-4,11.72-3.18,23.55-6.09,35-10.15,9.22-3.29,15.11-11,16.81-20.39,3.94-21.78,7.27-43.7,10.12-65.66,5.65-43.41,5.25-87.11,4.73-130.75a266.49,266.49,0,0,0-3.58-41.76c-2.07-12-6.32-23.69-10.1-35.35-1-3-3.82-5.32-5.81-7.95l-1.28.84c3.06,13.48,2.18,27.3,7.25,40.86a199.18,199.18,0,0,1,12.18,81c-.8,14.94-1.08,30.07-3.87,44.68-1.76,9.18-.91,19.14-5.95,27.67a2.24,2.24,0,0,0,.23,1.9c3.77,5.67,2.51,11.9,1.68,17.89-1.9,13.69-3.86,27.38-6.49,40.93-1.86,9.58-4.72,19-7.49,28.34-.4,1.38-2.77,2.18-4.22,3.24-.26-1.65-.93-3.37-.68-4.94.72-4.59,1.85-9.12,2.75-13.68,1.54-7.81,2.41-15.81,4.68-23.39,3.22-10.74,3.55-21.6,3.65-32.62.07-8.13-.54-16.66,1.7-24.27,3.38-11.49,4.44-23.09,6-34.8a268.28,268.28,0,0,0,.55-66.28,93.42,93.42,0,0,0-9.45-31.13,13.41,13.41,0,0,0,.05,4.43c2.69,16.82,4.66,33.62,1.83,50.7a35,35,0,0,0,.47,14.87c3.63,12.76,3.34,25.74,3.23,38.7-.05,5.27-1.79,10.52-2.85,16.26-2.51-1.29-3.85-2.6-4.81-2.36-3.94.95-3.7,1-5.92-2.14-2.86-4-5.55-8.41-9.23-11.57-9.58-8.2-12.86-18.25-10.48-30.34,1.89-9.65,7.94-17.1,13.55-24.76,5.91-8.06,10.57-16.67,10.67-27,.07-7.44-2.93-13.84-7.49-19.66a18.62,18.62,0,0,0-.69,6.9c.41,5.19,2,10.41-2.08,15.09a6.16,6.16,0,0,0-1,5c2.53,8.15,1.18,12.21-7.62,17.65.21-4.34.18-7.76.6-11.13.78-6.39,2-12.73,2.72-19.12.79-7.08.57-14.35,2-21.29,3.79-18.68,3.26-37.39,1.87-56.2-.38-5.13-3.45-5.46-7.74-5.3,2.83,15.27-5.23,24.57-16.61,32-2.75,1.8-5,1.24-5-2.46,0-3.47.75-6.93,1.11-10.4.75-7.2,1.47-14.41,2.18-21.47-7.21-1.49-7.17-1.48-8.38,4.28a93.2,93.2,0,0,1-2.26,9.22c-2.06,6.4-4.2,12.78-6.57,19.07-.67,1.79-2.24,3.24-3.4,4.85l-2-.52a70.57,70.57,0,0,0,2,6.94c2.08,5.29,3.12,10.3,0,15.77-1.71,2.95-2,6.7-3,10.09l1.76.63c1-1.46,2-2.89,2.95-4.38s1.74-3.24,2.82-4.71c2.74-3.71,6-3.49,8.11.63a41.5,41.5,0,0,1,3,7.89c2.29,8.64,1.44,10.06-7.73,13.13v-11.2c-4.78.77-6,5-4.85,7,3.31,5.71.7,10.64-.33,15.9-.74,3.77-1.29,7.58-1.92,11.38l1.11.32,12.66-20,1.3.41c-.28,7.06-.14,14.18-3.42,22.4L184.7,413c-2.62,4.12-4.74,8.13-7.56,11.56-1.23,1.51-4.34,3-5.79,2.4s-2.78-3.73-2.68-5.68c.18-3.23,1.35-6.46,2.44-9.57,1.69-4.86,3.87-9.56,5.38-14.47.42-1.37-.8-3.23-1.26-4.87-1.6.51-3.24.93-4.79,1.56s-2.76,1.39-4.13,2.1a23.74,23.74,0,0,1-1.18-4.6c-.12-1.8.38-3.64.41-5.46.08-7.31,1.37-14.92-.22-21.86a44.4,44.4,0,0,1,.71-23.08c2-6.68,4.49-13.19,6.62-19.82,1.34-4.19,2.41-8.47,3.6-12.71l-2.08-1c-2.24,2.32-4.53,4.6-6.71,7-1.68,1.83-2.91,4.27-4.91,5.55-2.66,1.71-3.21,3.68-3.19,6.61.21,29.82,0,59.66.47,89.48.38,25,1.43,49.9,2.19,74.85,0,.67.11,1.33.16,2,1.35,18.09,2.74,36.19,4,54.29,1.27,17.58,2.54,35.17,3.62,52.77.36,5.8.13,11.63.15,17.45C170,622.43,170,627.37,170,632.83ZM111.32,271.35c1.32,5,2.35,9.64,3.92,14.13.41,1.18,2.47,1.79,3.78,2.66a20.67,20.67,0,0,0,2.11-3.54,22,22,0,0,0,.55-4q2.14-14.5,4.32-29c.2-1.32.46-2.63.55-4,.22-3-.18-6.42-3.66-6.49-1.83,0-4.81,2.52-5.37,4.45C115.08,254.09,113.33,262.73,111.32,271.35Zm93.45.14c-2.12-8.73-4.12-17.8-6.68-26.7-.47-1.63-3.24-2.6-5-3.87-1.24,1.92-3.29,3.74-3.52,5.77-.31,2.67.82,5.51,1.32,8.28,1,5.56,2.15,11.09,2.91,16.67.58,4.28.52,8.65,1,12.94.16,1.25,1.34,2.37,2.06,3.55,1.31-.86,3.37-1.44,3.79-2.62C202.31,281.19,203.33,276.68,204.77,271.49ZM27.61,312.05c3.33.43,6.09,1.42,8.62,1,11.46-1.88,22.88-4.06,34.27-6.38,1.72-.35,3.18-2,4.76-3l-.65-1.56a12.49,12.49,0,0,0-3.12,0,106.58,106.58,0,0,1-36,3.64C30.85,305.46,28.55,308.15,27.61,312.05Zm260.71-.24c-.91-3.86-3.44-5.77-8.18-6.11-11.71-.84-23.38-2.24-35.06-3.37a37.82,37.82,0,0,0-3.84,0L241,304c6.65,5.35,15.21,4.67,23,6.3S279.6,314.43,288.32,311.81ZM122.05,201.63c-4,1.64-7.23,3-10.48,4.38a6.06,6.06,0,0,0-2.71,1.72c-2.26,3.62-.47,8.48,3.81,10.87,4.47,2.49,9.13,1.52,11.23-2.35S124.84,204.63,122.05,201.63Zm71.26-.19a70,70,0,0,0-2.19,8.81c-.48,3.79.43,7.42,4.31,9.19,3.47,1.58,9.25-.56,11.46-3.89s1-8.46-2.21-9.58C201.21,204.76,197.83,203.25,193.31,201.44ZM29.5,341.52l35.33-8.77c-1.68-3.23-3-3.84-8.13-3.17l-23.19,3.09c-1.76.24-3.5.58-5.2.87C28.68,336,29,338.05,29.5,341.52Zm220.87-9.4.45,1.82c1.5.11,3,.17,4.51.36,3.43.43,6.94.59,10.24,1.49,5,1.33,9.75,3.37,14.7,4.77,2.06.58,4.36.31,6.39.41.36-2.94.63-5.09.91-7.34-10.46-1.43-20.79-3-31.17-4.11C254.5,329.32,252.38,331.2,250.37,332.12Zm12.92,251.54,2.5,1.25c1.34-2.35,3.26-4.55,3.94-7.08,3-10.92,5.55-21.93,8.27-32.91.23-.9.41-1.81.61-2.72l-.91-.25ZM51,584.78l1.76-1-14.54-42c2.48,12.92,5.41,25.67,8.7,38.32C47.38,581.88,49.59,583.23,51,584.78Zm238.37-97.1-.08-1.7-26.93-18.91-1.13,1.45c7.48,6.55,14.86,13.22,22.56,19.5C284.84,488.89,287.46,487.84,289.36,487.68Zm-263-1.42c2.49,2.87,4.76,3.2,7.42.82,4.09-3.68,8.3-7.21,12.39-10.89,2.88-2.6,5.64-5.33,8.46-8l-1-1.15ZM41,406c-8.61-12.75-10.56-27.62-14.48-41.84a115,115,0,0,0,2.41,15.25q3,14.26,6,28.51c.15.7.65,1.76,1.14,1.86a3.42,3.42,0,0,0,2.5-.66A18.19,18.19,0,0,0,41,406ZM290.3,364.05l-1.52-.14c-3.09,14.57-5.25,29.45-13.74,42.08a19.11,19.11,0,0,0,2.36,3,3.08,3.08,0,0,0,2.43.8c.63-.24,1.11-1.4,1.28-2.23,1.79-8.53,3.47-17.09,5.25-25.63C287.61,376,289,370,290.3,364.05ZM145.71,297.51a67.73,67.73,0,0,0-1.6-7.74,6.26,6.26,0,0,0-2.32-2.6c-3,2-5.83,4.26-8.71,6.45,2,1.2,4,2.72,6.18,3.48C141,297.71,143.1,297.39,145.71,297.51Zm24.77.27c3.69-.48,7-.64,10.08-1.47.94-.25,2.18-3.25,2-3.41-2.58-2.13-5.4-4-8.15-5.87-1.1,2-2.34,4-3.23,6.06C170.67,294.24,170.77,295.63,170.48,297.78Zm117.29-42.11-1.31.75c3.4,6.14,5.2,13.24,10.11,18.47l1.7-1Zm-258.12.74-1.53-.71L17.73,274.1,20,275.35Zm254.8-2.51,2-1.07q-5.18-9.09-10.34-18.18l-1.06.6Q279.74,244.57,284.45,253.9ZM41,235.27l-1.11-.63L29.69,252.82l1.95,1Zm157-36.91,2.67-.78-3.87-12.65-2.77.85Q196,192.07,197.94,198.36Zm-82.45-.72c4.82-2.83,6.42-8.5,3.63-12.72Zm88.77-64,1.58.53,4.89-17.42-1.6-.45Q206.7,124.92,204.26,133.59Zm-94.11.47,1.64-.36-5-17.63-1.64.46ZM308.23,305.69l-.88.39,5.67,20,1.64-.5ZM1.34,325.55l1.76.4q2.78-10,5.54-20.08l-.84-.24Q4.58,315.59,1.34,325.55Zm300.33-39.94-1.22.35q2.94,8.16,5.86,16.31l1.88-.7Zm-286.19.33-1.12-.42-6.5,16.15,1.93.72Q12.64,294.17,15.48,285.94Zm298.73,50.75-.57-.06q-.27,6.11-.56,12.21l1.13.05Zm-311.83.13L1,336.7,1.64,349l.74-.08Z" transform="translate(0.5 -1.08)"/><path d="M100.45,507.72l-5.38-.88c-.78,2.42-1.56,4.83-2.77,8.61-3.24-5.14-4-9.55-3.08-14.08a24.49,24.49,0,0,1,3.4-8.22c.76-1.2,3.36-2.42,4.47-2,3.66,1.48,5.23-.68,7-3a35.18,35.18,0,0,0,6.63-16.95c2.19-16.29-1.63-31.73-5.21-47.34a107.47,107.47,0,0,1-2.66-21.66c-.25-12.82-.14-25.51-2.73-38.26-1.87-9.19-1.48-18.85-2-28.32-.09-1.68.47-3.4.95-6.53,1.57,2.2,2.2,3.26,3,4.17,2.8,3.21,5.38,6.68,8.55,9.46,4.56,4,4.62,9.06,4.06,14.21a73.33,73.33,0,0,1-2.74,14.7c-7.55,23.21-5.28,46.23,0,69.47a86,86,0,0,1-2,45.36,38.43,38.43,0,0,0-1.82,12.21,53.6,53.6,0,0,1-5.54,25.1c-.92,1.88-4,4.12-5.78,3.85-3.48-.54-3-4-1.92-6.48S98,516.85,99,514.48C99.87,512.54,100,510.25,100.45,507.72Z" transform="translate(0.5 -1.08)"/><path d="M128.18,574.19c-.25,1.8-.37,3.64-.75,5.42-2.22,10.29-2.57,20.43,1.86,30.34.53,1.18.58,3.66,0,4-1.17.69-3.42.91-4.47.21-8.77-5.91-17-11.76-16.8-24,.08-5.55-3-11.1-4.31-16.74-1.43-6.12-3-12.3-3.4-18.52-.17-2.52,2.49-5.23,3.87-7.85,2.09,1.29,4.4,2.34,6.23,3.94,3.84,3.35,7.17,7.32,11.18,10.42C125.9,564.76,128.23,568.71,128.18,574.19ZM116.81,577l1.15-.54c-.86-6.49-3.14-12.35-8.32-16.9Z" transform="translate(0.5 -1.08)"/><path d="M116.62,496.48a5.13,5.13,0,0,1,.68,1.69c.23,7.88.11,15.78.7,23.63a47,47,0,0,0,3,13.35c.86,2.22,3.71,3.65,6,5.7,1.42-3.49,2.41-5.9,3.54-8.67-3.71-1.89-6.06-4.61-2.66-9a1.84,1.84,0,0,0,.47-1.37c-1.67-4.85-2.77-10-5.29-14.42-3.9-6.77-4.16-17.69.63-23.61.8-1,2.27-1.4,3.43-2.08l1.13.81a37.35,37.35,0,0,1-1.47,5.3c-2.72,6.22-2.63,11.94,2.47,17a3.71,3.71,0,0,1,.92,1.18c2.52,6.35,5.34,12.62,7.34,19.13.76,2.46.55,6.14-.84,8.16-4.1,6-3.32,12.47-3.38,19a17.19,17.19,0,0,1-.75,4.88c-.76,2.46-2.68,3.29-4.58,1.55-9.69-8.88-20.45-17.35-18.67-32.65,1-8.57,2.68-17.06,4.2-25.56a19.39,19.39,0,0,1,1.84-4.26Z" transform="translate(0.5 -1.08)"/><path d="M90.26,528.69c1,6.5,3.22,13.09,2.76,19.49-1.17,16.53,3,31.71,10,46.19,2.27,4.62,6.54,8.25,9.82,12.4,2.25,2.84,4.47,5.71,6.44,8.73a3.32,3.32,0,0,1-.25,3.14c-.41.5-2,.27-3,0a36.58,36.58,0,0,1-7.46-2.67c-8-4.48-12.94-10.67-13.28-20.61C95,586,93,576.66,91.9,567.3c-.54-4.6-.84-9.25-.94-13.88s.51-9.24-2.37-13.87c-1.62-2.61-.29-7-.29-10.67Z" transform="translate(0.5 -1.08)"/><path d="M134.06,618.76c-.92-2-2.7-4-2.63-6q.7-19.59,2.23-39.14c.13-1.61,2.42-3,3.71-4.57,1.14,1.61,3,3.13,3.23,4.84a21.54,21.54,0,0,1-.63,9.33,77.25,77.25,0,0,0-4,30.86,28,28,0,0,1-.32,4.17Z" transform="translate(0.5 -1.08)"/><path d="M126.76,424.29c7.26.35,17.21,10.39,15.87,16.61-.39,1.83-2.57,3.28-3.93,4.91-1.39-1.42-2.91-2.75-4.15-4.29-1.46-1.81-2.68-3.8-4-5.71a8.92,8.92,0,0,1-1.62-2.35C128.11,430.53,127.51,427.54,126.76,424.29Z" transform="translate(0.5 -1.08)"/><path d="M116.8,386.94c.09-9.77-.52-18.28,2.52-26.47.9-2.44,2.4-5.43,5.75-3.87s4.44,5.89,2.42,8.06c-5.22,5.6-6.83,12.24-8,19.28C119.31,384.68,118.32,385.26,116.8,386.94Z" transform="translate(0.5 -1.08)"/><path d="M138.06,496.48c-10.32-8.52-1.31-16.32-.2-24.26C141.39,474,141.65,489.62,138.06,496.48Z" transform="translate(0.5 -1.08)"/><path d="M118.21,444.5c1.08,2.72,2.08,4.24,2.25,5.84.67,6.11,1.12,12.23,1.52,18.36a8.12,8.12,0,0,1-.73,3.83A2.9,2.9,0,0,1,119,474a2.65,2.65,0,0,1-1.83-1.88c-.35-8.4-.54-16.81-.71-25.22C116.46,446.53,117,446.13,118.21,444.5Z" transform="translate(0.5 -1.08)"/><path d="M139.68,562.72c-3.76-3.68-2.88-15.09,1.53-23.06C144.19,544.81,143.38,559.3,139.68,562.72Z" transform="translate(0.5 -1.08)"/><path d="M118.54,412.92c-4.77-4.91-5.93-14.63-3-18.5.51-.68,1.8-1.51,2.32-1.3.9.38,2.14,1.55,2.1,2.34C119.65,400.93,119.09,406.38,118.54,412.92Z" transform="translate(0.5 -1.08)"/><path d="M141,450.38c.69,4.57,1.66,9.13,1.81,13.71,0,.91-3.08,1.93-4.74,2.9a17.36,17.36,0,0,1-1.29-4.1,37.58,37.58,0,0,1,.26-7.11,44.63,44.63,0,0,1,1.4-5.49Z" transform="translate(0.5 -1.08)"/><path d="M128.6,437.83c.91,3.48,2.11,6.92,2.55,10.46.15,1.16-1.64,2.57-2.55,3.87-.57-1.16-1.55-2.29-1.62-3.48-.22-3.61-.08-7.23-.08-10.85Z" transform="translate(0.5 -1.08)"/><path d="M136.66,498.26c1.51.24,1.79.26,1.79.28,0,3.06,0,6.12,0,9.17a10,10,0,0,1-2.06-.4C136.37,504.32,136.52,501.34,136.66,498.26Z" transform="translate(0.5 -1.08)"/><path d="M128.23,462.33c-1.42-2.57-3.73-5.15,1.53-8.51v8.53Z" transform="translate(0.5 -1.08)"/><path d="M216.88,329.41c.47,2.74,1.12,4.43,1,6.06-1,12.07-2.27,24.12-3.34,36.19-.55,6.29-1.6,12.64-1.2,18.89,1,16.2-1.38,31.87-5.94,47.28-3.74,12.65-3.34,25.47-1.14,38.12.85,4.94,4.48,9.49,7.28,13.95.64,1,3.07.91,4.68,1.33s3.83.34,4.81,1.38c5,5.4,5.44,14.9.73,22.2L220.93,507l-4.56.62c-.46,3.27-1.4,5.73,2.41,8.23,2.12,1.39,2.18,6.22,2.66,9.58.1.74-2.08,2.63-3,2.5-1.56-.23-3.83-1.34-4.25-2.6-2.32-6.89-5.3-13.84-5.87-20.95a143.53,143.53,0,0,0-3.81-23.47,90.67,90.67,0,0,1-.89-38.64c1.77-9.49,4.3-19,4.84-28.53s-.41-19.53-1.64-29.18c-1.11-8.73-3.67-17.25-5.23-25.93-1.26-7-.76-13.25,6.51-17.76C211.59,338.67,213.49,334,216.88,329.41Z" transform="translate(0.5 -1.08)"/><path d="M217.22,555.36c-2.62,9.17-5.12,17.57-7.4,26-.94,3.48-1.08,7.19-2.14,10.63-1.39,4.48-2.57,9.37-5.27,13s-7.15,6.35-11.08,9.09c-1.05.73-3.27.56-4.5-.08-.61-.31-.67-2.83-.16-4,4.5-10.08,4-20.34,1.84-30.83-1.95-9.43.39-13.9,8.33-19.43,3.18-2.21,5.6-5.53,8.35-8.38,2-2,3.45-6.18,6.88-4C214.43,548.89,215.45,552.48,217.22,555.36Zm-17.95,21.56q3.55-8.7,7.1-17.4A20.7,20.7,0,0,0,199.27,576.92Z" transform="translate(0.5 -1.08)"/><path d="M185.49,532.14c1.12,2.77,2.1,5.19,3.6,8.87,2.34-2.29,5.42-3.93,6.08-6.25,1.49-5.29,2-10.89,2.54-16.39.78-7.24,1.27-14.52,2-23.21,1.3,2.25,2.44,3.43,2.67,4.76,1.61,9.32,3.15,18.66,4.47,28a19.66,19.66,0,0,1-4.51,15.42,154.36,154.36,0,0,1-13,14.37c-3.28,3.14-5.68,2-6.32-2.51-.39-2.75.21-5.64-.16-8.4-.61-4.61-.41-9.14-3.36-13.62-3.18-4.81-1.33-10.51,1.82-15.5,1.43-2.28,2.15-5,3.2-7.54.74-1.8,1.08-4,2.34-5.31,5.12-5.38,5.12-11.16,2.26-17.5a27.28,27.28,0,0,1-1.25-4.9l1.11-.79c1.23.81,2.85,1.35,3.63,2.47,4.85,6.94,4.55,16.64-.28,23.93-1,1.55-1.33,3.6-1.89,5.44-.61,2-1.22,4-1.66,6.06-.28,1.29-.73,2.84-.29,4C190.41,528.48,190.18,529.47,185.49,532.14Z" transform="translate(0.5 -1.08)"/><path d="M228.62,529.08c-.79,4.28-1.55,8.56-2.36,12.83-.43,2.23-1.13,4.42-1.36,6.66-1.25,12-2.41,24-3.56,36-.36,3.79-.71,7.6-.83,11.41A22.61,22.61,0,0,1,204,617.23c-.8.23-1.6.44-2.42.59-1.62.3-3.26.55-4.89.83.41-2,.26-4.4,1.35-5.92,2.19-3.08,5.11-5.63,7.64-8.49,11.16-12.61,15.5-27.9,17.15-44.2a48.82,48.82,0,0,0,0-5C222.92,546.14,221.13,537,228.62,529.08Z" transform="translate(0.5 -1.08)"/><path d="M180.08,618.1a45.93,45.93,0,0,0,0-5.75c-1.23-9.47-2.68-18.91-3.84-28.39a72.3,72.3,0,0,1-.44-11.77c0-1.08,1.88-3.07,2.56-2.94,1.34.26,2.65,1.56,3.57,2.75a6.19,6.19,0,0,1,.93,3.31c.71,11.9,1.52,23.79,1.89,35.7.08,2.57-1.48,5.19-2.28,7.78Z" transform="translate(0.5 -1.08)"/><path d="M189.17,424.42c-.7,3.13-.86,6.53-2.24,9.33a50.2,50.2,0,0,1-7.37,11c-2.25,2.53-4.87.86-5.79-1.76-1.36-3.89-1.46-7.93,2.37-10.83,4.09-3.09,8.26-6.09,12.39-9.13Z" transform="translate(0.5 -1.08)"/><path d="M197.23,386a58.1,58.1,0,0,0-1.88-7.26c-1.55-3.9-3.51-7.63-5.17-11.49-.87-2-2.2-4.24-2-6.22a6.65,6.65,0,0,1,3.65-4.53c.92-.37,3.65,1.64,4.25,3.11a37,37,0,0,1,2.61,10.54c.42,5.15.11,10.35.11,15.54Z" transform="translate(0.5 -1.08)"/><path d="M177.14,496.43a78.92,78.92,0,0,1-1.24-24.36,8.74,8.74,0,0,1,1.71.1c1,5.41,5.5,9.54,5.19,15.67C182.59,491.89,181.34,494.26,177.14,496.43Z" transform="translate(0.5 -1.08)"/><path d="M194.23,468.48c.42-6.12.7-12.26,1.39-18.36.17-1.48,1.7-2.8,2.6-4.19.39,1.53,1.1,3.07,1.1,4.6,0,6-.08,11.92-.49,17.86-.13,2-1.34,3.86-2.06,5.79l-3.6-5.14Z" transform="translate(0.5 -1.08)"/><path d="M175.47,563.17c-4.84-8.09-.61-15.95-1.54-23.54C179,546.2,180,559.42,175.47,563.17Z" transform="translate(0.5 -1.08)"/><path d="M197.46,412.69c-.58-6.25-1.17-11.56-1.47-16.89-.05-.87,1-2.1,1.86-2.61.48-.29,1.9.34,2.45.95C203.49,397.71,202.28,408.26,197.46,412.69Z" transform="translate(0.5 -1.08)"/><path d="M177.29,450.36c.62,1.4,1.6,2.75,1.79,4.2a54.28,54.28,0,0,1,.42,9.53c-.06,1-2,3-2.25,2.85-1.58-.77-4.17-2.07-4.13-3.11.17-4.46,1.14-8.89,1.81-13.34Z" transform="translate(0.5 -1.08)"/><path d="M189,437.85c0,4.34.06,8.69-.11,13,0,.44-1.92,1.33-2.16,1.12-.89-.78-2.15-2.05-2-2.93.63-3.81,1.71-7.56,2.63-11.33Z" transform="translate(0.5 -1.08)"/><path d="M177,509.17V497.7C181.12,502.22,181.3,505.13,177,509.17Z" transform="translate(0.5 -1.08)"/><path d="M187.61,454.72c4.11,2.47,1.22,5,.48,7.6l-2.05.11-.5-7.5Z" transform="translate(0.5 -1.08)"/></g></svg>