<svg id="Layer_1" data-name="Layer 1" xmlns="http://www.w3.org/2000/svg" viewBox="0 0 401.92 556"><defs><style>path{fill:#ff3fb4;}</style></defs><title>Chinche3</title><g id="BETfXq"><path d="M31,393.11c-4.18,3-8,4.95-11.86-.79-3.6,4-7,7.33-9.7,11.09-.7,1,.53,3.33.83,4.81-1,.55-2.4,2-3.63,1.87a8.45,8.45,0,0,1-4.94-2.54C-1.28,404.22.31,398.88,4.42,396c3.18-2.27,6-5,9.1-7.44,1.68-1.3,3.56-3.28,5.37-3.29,4.44,0,6.92-2.55,9.56-5.41a46.53,46.53,0,0,1,5.66-4.89c3.49-2.71,8.52-3.6,9.63-9.16.28-1.43,3.14-2.23,4.6-3.56,1-.95,2.55-2.57,2.29-3.42-.42-1.41-2.14-3.47-3.25-3.43-3.66.14-7.29,1.09-11.1,1.76,1.42-1.86,3.13-4,4.69-6.19,5.9-8.41,12.33-16.51,17.45-25.37s10.71-17.22,19.12-23.36c.89-.65,2-1.53,2.22-2.48,1.82-8.44,8.5-9.89,15.43-10.89,7.66-1.1,15.36-.81,22.78-4.48,8-4,16.2-2.74,23.11,3.8.95.9,2.79.86,4.23,1.26a23.9,23.9,0,0,0,.76-4.31c-.11-10.79-.36-21.57-.48-32.36a56.81,56.81,0,0,1,.47-5.72c-9.44,1.07-18.6,2.88-27.76,3-12,.11-24-1-34.78-7.31-5.25-3.12-10.73-6.75-9.84-13.73.55-4.32,3.27-8.37,4.65-11.68.37-5.73-.07-11.11,1.23-16a141.69,141.69,0,0,1,7.62-20.54c4.07-9.29,8.35-18.52,13.06-27.5,2.86-5.44,6.71-10.36,10.12-15.52L112,138c-2-1.58-4.3-2.94-6-4.81-2.16-2.36-3.82-5.16-5.76-7.73A11.7,11.7,0,0,0,98,123.19c-1.33-1-2.87-1.71-4.16-2.75-5.89-4.71-5.79-7.13.32-11.16a26.54,26.54,0,0,0,2-1.81,20.52,20.52,0,0,1-15.8-9c-5-7-4.67-8.47,3.57-12.24-2-3.22-4.23-6.29-5.95-9.61a29,29,0,0,1-3.23-8.77c-.26-1.75.92-5,2.16-5.37,1.76-.58,5.13.14,6.12,1.52,3.73,5.2,6.78,10.9,10.34,16.83,11.91,0,13.19,1.5,14.51,17.76l1.16-.88c1.28,1.47,2.94,2.77,3.75,4.47,2.06,4.34,3.49,8.89,5.7,13.26,3.91,7.72,8.23,15.25,12.06,23,3.91,7.91,3.4,8.09-3.09,14.12-1.3,1.2-1.87,3.19-3.17,4.38-1.7,1.55-3.8,2.65-6.63,4.56h5.46c-8.24,12.34-20.12,21.21-24.68,35.08-2.23,6.75-5,13.33-7.39,19.66,7.9,8.32,16.78,8.57,26.69,3.46,5.78-3,11.91-2.6,17.62,1.1,4.59,3,9.3,5.74,13.89,8.55l26.15-38.87,4.35,6.17c0-8.07-.47-14.85.21-21.5.3-2.91,3-5.56,4.53-8.36.74-1.34,1.77-2.73,1.88-4.16.36-4.65-.24-9.43.6-14,1.87-10.06-3.44-18.37-6-27.32-.27-.95-2.58-1.5-4-1.88-3.43-.9-7.56-.58-7.82-5.91,0-.8-1.94-1.63-3.09-2.23-7.09-3.68-14.34-7.08-21.28-11-4.9-2.77-9.31-6.26-7.07-13.14.16-.5-.24-1.22-.47-1.8-1.87-4.76-4.48-9.36-5.49-14.29-1.54-7.53-1.78-15.33-3-22.94-.62-3.94-2.31-7.7-3.21-11.61-.51-2.19-.22-4.56-.57-6.81-.65-4.11-1.93-8.16-2.13-12.28a18.45,18.45,0,0,1,2-7.93A92.69,92.69,0,0,1,129.86.56c4,4.34,5.43,16.21,3,21.78-1,2.42-1,5.43-.92,8.15a73.57,73.57,0,0,0,1.26,10.87c1.09,6,2.21,12,3.74,17.83,2.07,8,4.53,15.83,6.39,22.22,4.18,2.12,7.59,3.1,10,5.22,4.34,3.85,8,8.46,12.1,12.61,3.35,3.39,5.61,8.22,11.51,8.45,1.17,0,2.26,2.27,3.44,3.56.57-.47,1.15-.69,1.27-1.07,2.82-8.83,8.81-9,16.76-6.43,1.38.44,3.21.79,4.4.25,9.14-4.13,13.83-2.5,18.12,6.26,11.49-3.74,17.47-13.94,25.62-21.71,3-2.91,7.09-4.77,10.67-7.11l1.3,1.31c3.16-11.28,6.52-22.51,9.36-33.86.85-3.4.18-7.16.41-10.75.13-2.09.77-4.14,1-6.24.3-3.12,1.71-7.07.35-9.21-2.62-4.13-2-8-1.2-12,.72-3.82,2.11-7.51,3.29-11.57,2.32,4,4.17,7.28,6.13,10.51s2.18,6.53.76,10.4c-1.29,3.5-1.05,7.56-1.55,11.37-.26,2.05-.68,4.08-1,6.12-.68,4.06-1.25,8.15-2.06,12.18-1,5.16-2.34,10.25-3.37,15.41-.78,3.82-.55,8-2.11,11.47-4,8.77-1.68,21-14,25.41-5.6,2-10.8,5.17-16.11,7.94-2.5,1.3-5.1,2.1-6.08,5.76-.44,1.66-4.54,2.77-7.16,3.29s-3.31,1.74-4.67,3.93c-7.79,12.55-4.43,26.21-4.69,39.49,0,1.26.53,3.19,1.44,3.7,4.63,2.63,5.39,7.06,5.6,11.58.27,5.73.07,11.49.07,18.24l3.84-5.8L252.94,229c4.48-2.73,9.28-5.54,14-8.53,5.73-3.67,11.93-4,17.64-1,10,5.19,18.76,4.65,27.29-4.13-5.08-10.66-9.87-22.18-16-32.95-3.09-5.47-8.58-9.56-12.91-14.35a9,9,0,0,1-1.1-2.7l1.25-1-3.63-2.83h4.38a17.29,17.29,0,0,0-1.39-1.68c-3.85-3.5-7.81-6.89-11.52-10.53-.95-.92-1.93-2.91-1.55-3.87,2.06-5.21,4.47-10.29,6.91-15.34,1.1-2.3,2.76-4.34,3.76-6.67,1.84-4.28,1.66-9.66,7-11.94.58-.25.42-2.08.73-3.14a67.57,67.57,0,0,1,2.66-8.46c.42-1,2.1-1.38,4.08-2.58a56,56,0,0,1,.76-6.52c2.21-10.41,3.63-11.36,13.72-10,2.84-5.21,5.47-10.36,8.42-15.32,1.72-2.89,4.5-5.11,7.92-3.37s2.95,5.53,1.61,8.4c-2.45,5.23-5.47,10.18-8.26,15.26,7.93,4.77,8.54,6.49,1.94,13.58-3.53,3.8-8.63,6.12-13,9.1a5.71,5.71,0,0,0,1.4,1.14c4.92,3.08,5.86,5.12,1.56,8-6.82,4.63-9.66,12.66-16.44,17a29.64,29.64,0,0,0-2.73,2.09c14.32,20.25,24.4,42.4,31.56,65.9,1.31,4.31.18,9.36.18,14.48a57.39,57.39,0,0,1,4.15,6c2.67,5,2.29,10.82-2.21,14.05-5.56,4-11.69,7.94-18.18,9.75-15.82,4.42-31.95,3.94-47.89-.32-.78-.21-1.58-.33-2.68-.55.32,6.67.91,13.11.85,19.53s-.83,12.9-1.11,19.36c-.06,1.41.65,2.85,1,4.27,1.29-.36,2.95-.32,3.8-1.14,8.28-7.89,17.1-6.63,26.87-2.9,5.73,2.18,12.27,2.24,18.46,3.2,7.25,1.11,14.33,2.35,16.33,11.23.24,1.06,1.84,1.76,2.68,2.74,5.59,6.53,12.08,12.52,16.48,19.78,6.31,10.38,11.53,21.4,20.66,29.81a20.18,20.18,0,0,1,2.68,3.6,12.51,12.51,0,0,1,.86,1.89c-10.44-4.42-14.09-3.56-14.41,1,3.56,4.59,5.68,8.44,8.8,11.13,6.09,5.24,12.23,10.93,19.35,14.32,4.4,2.08,8.57,3.29,11.61,7.51,1.53,2.12,4.67,3,7,4.63,5,3.41,5.11,10.87-.05,13.19-1.72.77-4.3-.35-6.77-.64C396.78,399,387,397.9,383.12,393c-3.73,3.35-7.57,4.27-11.81-1a22.86,22.86,0,0,0,0,3.8c1.32,5.5-.26,7.68-5.9,6.67-2.83-.51-5.45-2.72-7.91-4.51-1.25-.9-1.93-2.58-3.13-4.27-1.16,1.26-2,2.17-3,3.28a11.85,11.85,0,0,1-1.79-2.38c-1-2.63-1.67-5.44-2.92-7.94-.67-1.33-2.33-2.15-3.47-3.26-1.45-1.4-3.88-2.75-4.06-4.33-.64-5.69-.26-11.48-.75-17.2s-.86-11.59-2.49-17c-3.49-11.68-8.36-22.79-15.33-29.87-6.72-.8-11.57-.53-15.76-2.06-8.24-3-16.35-5.51-25.44-3.16v60.44c3.39.93,7.07,1.22,9.93,2.9a80.79,80.79,0,0,1,12.57,9.49q14.89,13.27,29.4,27c2.95,2.8,6.19,5.95,7.54,9.6a13,13,0,0,1-1.13,10.15c-9.57,14.57-21.47,27.75-26.55,44.94-1.11,3.77-1.32,7.82-1.94,11.74-.48,3-.94,6.07-1.5,9.66-2.52-.55-4.24-1.19-6-1.24a31.48,31.48,0,0,0-5.4.76c1.15,1.57,2.22,3.21,3.5,4.67.5.57,1.58.61,2.2,1.12,1,.83,2.65,1.89,2.61,2.78-.44,8.52,9.5,8.64,11.85,14.84.13.31,1.23.27,1.88.38,10.24,1.8,10.24,1.8,17.64,7.93-.93.7-1.76,1.38-2.66,2s-1.72,1-3.77,2.18c4.47,1.8,7.34,2.82,10.09,4.1,8.08,3.74,10.83,11,6.42,16.8-1.75,2.28-3.77,3.63-6.92,1.85,4.78-2.9,5-6.67.58-9.61-4.25-2.8-8.84-5.09-14.07-8.06.74,3.13,1.29,5.43,2,8.6-8.06-5.43-20-4.76-21-18-1,.64-1.69,1-2.3,1.48s-1.21,1.1-2.88,2.65l-9.19-16.52c-5.62-1.44-6.4-2.42-6.3-9.35s0-13.8.6-20.64a12,12,0,0,1,3.77-7.28c9.13-7.86,13.87-18,16.93-29.36,2-7.4,4.58-14.76,13-18.69-12.75-11.34-22.15-25.75-38.78-33,.43,3.63,1.05,7,1.18,10.31,1.23,32-2.32,63.14-16.68,92.39-3.05,6.21-7.21,11.08-13.58,13.19-15.35,5.08-26.87,15.74-39,25.64a69.47,69.47,0,0,1-6.76,5.13c-4,2.5-8.18,2.76-12-.17q-8.73-6.68-17.12-13.78c-7.18-6-14.61-11.67-23.65-14.6-10.32-3.34-16-10.58-20.33-20.37-13.72-31.27-16.25-63.86-13.4-97.3C104.28,403,95,417.7,81.9,429c9.31,4.64,11.53,13.46,14,22,2.69,9.5,6.87,18,14.47,24.58,3.89,3.39,6,7.1,4.9,13.1-1,5.49.57,11.46.91,17.22.25,4.2-.61,7.63-5.71,8.4-.87.13-1.69,1.65-2.24,2.68-1.47,2.74-2.88,5.52-4.13,8.36-1.93,4.38-4.3,6.34-8.58.89-.58,14-12.9,13.06-20.94,18.9.71-3.12,1.22-5.38,2-8.77-5.45,3.11-10.15,5.4-14.41,8.32s-3.72,6.37.49,9.18l-.48,1.26c-1.93-.9-4.36-1.35-5.69-2.8-2.62-2.86-3.88-6.82-1.31-10.06,2.37-3,5.78-5.28,9-7.46,2-1.35,4.52-1.92,7.56-3.14l-5.26-4.37c4-4.07,7.48-8.78,14.63-8,2.18.23,4.78-2,6.93-3.44,3.14-2.14,6-4.62,9.35-7.2-1.24-4,.56-6.58,4.65-8.51,1.67-.79,2.59-3.18,3.85-4.84a54.91,54.91,0,0,0-5.84-.47,30.45,30.45,0,0,0-5,1c-.72-2.59-2.05-5.09-2-7.57.32-14.25-6.32-25.93-13.42-37.46-3.62-5.88-7.37-11.69-11.06-17.53a2.15,2.15,0,0,0-.59-.78c-4-2.28-6.94-5.85-5.32-10.18a34.18,34.18,0,0,1,7.95-12.14c9.14-9,19.3-16.92,28.16-26.13,6.75-7,13.88-12.32,24.11-13.2v-61a39.28,39.28,0,0,0-23.91,2.79c-7.88,3.43-10.1,3-15.66.53-8.82,10.74-15,22.57-17.72,36.61-1.88,9.5-.33,19-2.14,28.31-.35,1.78-1.67,4.68-2.79,4.8-5.45.61-5.29,5.09-6.72,8.52q-1.14,2.7-2.26,5.42l-1.08-1.3c-2,1-4,2.17-6,3.11-3.19,1.46-6.34,3.53-9.68,4s-6.61-.91-4.22-5.7C31.11,396,30.86,394.73,31,393.11Zm143.45-199a68.61,68.61,0,0,1-3.32,7.23c-3.49,5.79-7.14,11.5-10.86,17.16-2.24,3.41-5.48,6.36-7,10-6.45,16.12-6.82,33.13-6.18,50.18.11,3,1.11,6.07,1.7,9.1,21.17-4.57,44.22-4.09,51,.21,18.33-5.35,35.81-3.5,53.39-.95a4.51,4.51,0,0,0,.63-1.26c3.17-20.45,1.78-40.49-5.73-59.9-.88-2.25-2.67-4.17-4.15-6.17-3.53-4.75-7.39-9.27-10.59-14.23-2.31-3.58-3.76-7.71-5.74-11.9-.82.91-1.34,1.54-1.92,2.1-3.52,3.45-7.19,3.39-12-.21-.12-.09,0-.56.08-1l4.71.45a66,66,0,0,1-4.62-29.73c.8-12.89-.83-25.92-1.18-38.89-.08-3.1.92-6.2,1.1-9.32a96.62,96.62,0,0,0,0-11.79c0-.58-2.09-1-2.53-1.23-1.88,4.45-3.56,8.17-5,12a11.59,11.59,0,0,0-.49,4c0,2.33.46,4.7.16,7-.42,3.28-1.93,6.49-1.95,9.74q-.06,14.66.75,29.31c.26,4.89.78,9.55-3.87,13.07-3.64-3.57-4.12-7.62-3.3-12.12a97.8,97.8,0,0,0,0-35.25c-.75-4.14-4.52-8.22-.47-12.63.26-.28-.43-1.49-.74-2.23-1.78-4.19-3.58-8.37-5.74-13.42-.8.91-2.38,1.87-2.36,2.8.11,4.57.66,9.14,1,13.71a72.71,72.71,0,0,1,.33,7.94c-.49,12.79-2.2,25.67-1.28,38.35a63.17,63.17,0,0,1-4,27.74c-.13.36.16.87.26,1.29l4.74-.32C183,199.9,180.39,199.71,174.42,194.1Zm85.46,146.84c1.71-1.43,3.15-2.55,4.5-3.77,3.87-3.5,5-3.1,6.7,1.94.51,1.49,1.85,2.69,2.81,4,.77-1.32,2.17-2.64,2.2-4,.22-9.62.17-19.26.15-28.89a2.26,2.26,0,0,0-.78-1.73c-4.73-2.56-9.28-6.25-14.35-7.23-9.59-1.85-19.66-1.25-29.2-3.26C217.39,295,199.66,311.86,202,325.46c2.54,14.87,2.87,30.13,4.07,45.22.82,10.34,1.47,20.7,2.15,30.28l24.94-12.2,2.35,4.11a18.87,18.87,0,0,1,4.45.05c7.9,1.93,14.93-.65,21.77-4.1,3.37-1.7,6.55-3.76,9.82-5.67,1.84-1.07,5.14-2.07,5.21-3.25.14-2.29,2.29-6.25-2.56-7.14-.12,0-.29-2.74.36-3.37,1.82-1.75,3.2-8.83,1.15-10-4.51-2.49-1-3.82.83-6-1.58-1-3-2.62-4.5-2.78-4.25-.44-9-1.5-12.75-.12-7.57,2.81-13-2.35-19.76-3.17-3.79,4.16-5.83,4-10.67-1.47a45.06,45.06,0,0,1-3.32,4,29.89,29.89,0,0,1-5.58,4.75c-.81.48-3-.1-3.68-.92-1.39-1.81-2.17-4.07-3.78-7.32a23.4,23.4,0,0,0,3.37-2.38,11.54,11.54,0,0,0,1.75-2.89l1.78,4.73c2.24-1.55,4.36-2.94,6.39-4.44,2.69-2,5.18-3.94,7.85.23.59.92,2.49,1.2,3.83,1.38,2,.25,4-.2,5.93.24,7.8,1.81,9.49,1.26,13.41-5.25Zm-134,12.68,1.39.72c.26,1.59,1.31,3.75.65,4.68-2.88,4-4.38,7.51.5,11.11.43.31,0,2.81-.26,2.87-4.68.84-3.13,4.74-2.8,7,.21,1.36,3.32,2.35,5.2,3.37,1.14.62,2.69.67,3.6,1.49,5.92,5.31,13.18,7.36,20.69,9,4.49,1,12-1,14.55-4.64L194,401.08c.07-.76.23-2.2.34-3.65,1.68-22.4,2.92-44.86,5.22-67.2,1-9.9.52-18.11-8-24.85-5.88-4.65-11.56-8.18-19.38-7.06-6.75,1-13.55,1.63-20.34,2.3-3.64.36-7.31.35-11,.68-6.43.57-14.8,6.34-14.92,10.42-.24,8.15-.42,16.31-.28,24.47,0,2.55,1.19,5.08,1.83,7.62l1.74,0c.68-1.53,1.5-3,2-4.59,1.66-5,2.77-5.32,6.69-1.79,1.44,1.3,3,2.45,4.43,3.61l2.38-2c2.86,2,5.07,4.89,7.51,5.1,4.95.45,10-.5,15-1,.52-.06,1.12-.75,1.43-1.3,2.23-3.93,4.77-2.47,7.42-.52,2.13,1.57,4.33,3.06,6.89,4.86.55-2.46.84-3.79,1.29-5.8l4.85,7.13c-1.21,2.45-1.9,4.49-3.14,6.09-.67.87-2.75,1.71-3.42,1.3a39.13,39.13,0,0,1-6-5c-1.23-1.15-2.27-2.48-3.47-3.8-4.57,5.45-6.35,5.52-10.72,1.36-6.59,1.3-12,5.81-19.4,3.3-4-1.34-8.84-.24-13.26.19C128.44,351.16,127.21,352.72,125.91,353.62Zm-3.28,44c-.23,9.06-.76,18.66-.54,28.25,0,2.66,1.77,5.78,3.68,7.77a29.31,29.31,0,0,0,9,6.08c1.88.85,5,1,6.63-.07,5.43-3.62,8-3.72,13,.6,2.25,1.92,4.52,4,7.17,5.18,2,.83,5.08-.64,6.73.41,4.35,2.75,8.84.25,13.07,1.3a4.43,4.43,0,0,1,2.36,2.68c1,3.05,1.29,6.41,2.7,9.24.74,1.48,3.21,2.1,4.91,3.11.77-1.64,2.18-3.28,2.21-4.93.22-14.47.17-28.94.24-43.41,0-6.91-2.76-8.64-8.89-5.18-3.44,1.94-6.37,1.91-9.71-.4-1.71-1.19-4.18-1.35-6.35-1.75-2.4-.44-4.85-.7-7.29-.9a12,12,0,0,0-4.28.15c-6.64,2-8.3,1.23-11.3-4.91a7,7,0,0,0-4.14-3.12c-2.67-.71-5.53-.68-8-.94Zm145.73-1.12.25-.56c-2.14.65-4.56,2.27-6.36,1.75-4.07-1.16-5.35.56-6.45,3.9-1.17,3.51-3.69,5.25-7.65,5-5.82-.36-11.66-.42-17.49-.52a3.54,3.54,0,0,0-2.27.83c-4.06,3.82-7.95,3.61-12.6.65-3.76-2.4-7.31-.22-7.3,3.89,0,15.5.07,31,.29,46.49,0,1.36,1.29,3.75,2.11,3.81,1.45.1,3.83-.83,4.37-2,1.46-3.19,2.13-6.74,3.19-10.12.32-1,.78-2.71,1.37-2.8,2.65-.4,5.37-.24,8-.46,4.57-.38,9.27-.35,13.62-1.56,2.64-.74,4.66-3.59,7.06-5.34,3-2.16,6.67-5.2,9.78-1.93,5,5.23,8.55,3.26,12.6-.6a10.9,10.9,0,0,1,3.3-2.22c4.34-1.72,6-5.33,6-9.45,0-9.6-.45-19.21-.7-28Zm-18.09,96.07c5.52-3.09,11.76-5.51,16.62-9.57,6.74-5.62,8.17-14.21,9.31-22.55.08-.62.14-1.67-.17-1.84-5-2.76.4-3.15,2-6.39-2.89.73-5.44.6-6.15,1.68-5.11,7.76-16.61,5.53-21.26,13.82-.18.32-.91.33-1.39.47-3,.87-6,2.61-8.89,2.43-7.19-.44-12.94,2.18-19.38,5-4.38,1.89-7.61,5-11.73,6.91a3.16,3.16,0,0,0-1.25,2.43c-.09,7.57-.05,15.14-.05,22.61,11-4.09,21.25-7.71,31.35-11.79,3.1-1.25,5.7-3.74,9-6C248.3,489.82,249.05,490.85,250.27,492.56Zm-55.93,15.81c0-8.12,1-15.78-.43-22.95-.7-3.44-5.81-6.29-9.37-8.75-2.68-1.85-6.51-2.1-9-4.07s-4.33-2.69-7.54-1.67c-2.23.71-5.1-.16-7.57-.77-5.86-1.44-12-2.5-15.23-8.68a1.06,1.06,0,0,0-.86-.43c-6.33.42-10.52-3.1-14.49-7.43-.81-.88-3.09-.43-4.32-.55,1,2.42,1.85,3.74,1.89,5.09s-1.14,3-1,4.49c1.32,15.54,10.08,24.89,24.72,29.21a6.83,6.83,0,0,0,1.4.16c.7-1.07,1.37-2.07,2.78-4.2.53,6.79,5.42,7.27,9.28,8.83,4.62,1.86,9.48,3.15,14.13,5C183.69,503.58,188.58,505.87,194.34,508.37Zm58.53-277A74.88,74.88,0,0,0,255,240.2a5.47,5.47,0,0,0,3.21,3c11,2.87,22.18,4.77,33.58,3.43,8.74-1,17.54-2.34,25-7.64,1.15-.82,2.67-2.71,2.4-3.64-1.67-5.81,1.07-10,4.71-13.79-3.26-4.76-7.45-4.76-12-2.78a26.7,26.7,0,0,0-5.16,3c-4.93,3.64-10.17,4.69-15.95,2.32-2.46-1-4.92-2-7.42-2.92-4.51-1.59-9.05-2.4-13.5.19C264.29,224.65,258.73,227.94,252.87,231.38ZM78.33,221.83C82.14,225.72,85,230,83,236c-.23.66.81,2.13,1.63,2.7a31.85,31.85,0,0,0,6.87,4c17.55,6.34,35.28,5.47,53,.78,4.71-1.25,3.29-6,4.21-9.23.33-1.14-1.27-3.42-2.59-4.32-4-2.73-8.29-4.91-12.33-7.53-4.46-2.89-9.34-3.45-13.8-1.18-10.22,5.21-19.53,5.77-29.12-1.78C86.37,215.91,82.65,217.28,78.33,221.83Zm46.42-91.2c-4.84,3.68-8.66,6.27-12.11,9.3-3.2,2.8-7,5.57-8.78,9.22-7.23,15.13-13.93,30.51-20.47,45.95a49.43,49.43,0,0,0-3,13.05c-.34,2.67-1.31,6.42,2.82,7.46s7-.58,8.17-4.89c.76-2.72,1.78-5.36,2.78-8,4.63-12.2,9.8-24.07,20.28-32.64.2-.17.22-.54.37-.94l-3.25-.38c1.39-2.58,2.28-5.41,4.12-7.35,3.91-4.14,8.4-7.73,12.45-11.75,1.22-1.21,2.81-3.44,2.43-4.64C129,140.06,126.69,135.31,124.75,130.63ZM286,168.38c11.8,9.13,17.24,21.21,22,33.75,1.35,3.57,2.7,7.14,4,10.73,1.42,3.84,4.77,2.59,7.22,2.19,1.12-.19,2.7-3,2.56-4.41-.47-4.91-.82-10.08-2.64-14.58-5.34-13.24-11.71-26.06-17-39.33-3.34-8.41-8.06-15.08-16-19.59-2.79-1.58-5-4.15-8.33-7-1.94,4.3-3.84,8.6-5.81,12.85-1.38,3-.54,5,2.24,6.6,7.59,4.41,12.06,11.58,16.93,19.24ZM197.49,541.86c-1.16-9.32-2-17.39-3.29-25.4-.23-1.43-1.95-3.11-3.4-3.77-5.68-2.58-11.46-5-17.32-7.11-6.62-2.42-12.8-6-20.43-5.66-3.13.15-6.45-2.62-9.62-4.19-2-1-3.94-2.21-5.9-3.33l-.71,1c.79,2,1.59,3.93,2.38,5.9l1.23-1.06a32.5,32.5,0,0,1,2.4,2.53c-2.5,2.92.34,4.07,1.88,5.23a27.55,27.55,0,0,0,7.24,4.27c11.4,4,20.76,11,29.75,18.72C186.59,533.19,191.68,537.14,197.49,541.86Zm10.87-27.68c-1.11,8.35-2.3,17.28-3.64,27.33,9.54-7.63,17.81-15.18,27-21.33s19.49-11,29.3-16.45c-1.09-2.41-1.22-3.83-1-5.16,0-.2,1.94,0,3.31,0l2-5.66c-.29-.29-.57-.59-.85-.89-2,1.25-3.87,2.62-5.92,3.71-2.86,1.53-5.93,4.19-8.74,4-7.81-.54-14.26,2.93-21,5.56S215.6,511,208.36,514.18ZM315.14,292.1c-3.82-.64-6.23-1.17-8.66-1.42-7.69-.77-15.26-.71-22.68-4.41-8.73-4.35-15.73-2-22,4.83,4.49,4.17,9,8.27,13.44,12.54,3,2.88,6.16,3.71,10.38,3.32s8.41.39,12.51,1.26c4.51,1,8.85,2.74,13.33,3.92,3,.8,5.33-.23,5.95-1.93-3.41-2.33-7.41-3.6-8.57-6.15C306.73,299.46,309.64,295.57,315.14,292.1Zm-226.65-.32-.17,1.47c4.35,2.36,7.05,6.37,5.21,10.64-1.2,2.8-5.49,4.28-9.18,6.9,2.14.48,4.7,1.8,6.94,1.39,4.54-.84,8.83-2.9,13.34-3.92,3.77-.85,7.82-1.67,11.56-1.16,4.41.6,7.74-.19,10.87-3.24,4.39-4.29,8.95-8.39,13.44-12.57-7.12-7.24-14.55-8.37-24.1-4.23-4,1.73-8.48,2.49-12.82,3.19C98.6,291.05,93.52,291.29,88.49,291.78ZM295,398.68l-.67,1.68c2.41,2.21,4.87,4.36,7.22,6.63,7.07,6.83,14,13.8,21.18,20.52,3.47,3.24,5.75,2.71,7.56-.62,1.47-2.69,3.56-5,6-8.45a70.87,70.87,0,0,0-5.64-6.48q-15-14-30.16-27.66c-6-5.38-11.92-11-20.77-11-1.45,4.93-.06,7,4.9,8.19s9.58,3.87,13.77,6.76c2.72,1.87,4.38,5.27,7.19,8.86ZM65.41,419.45l2.16-.66a61,61,0,0,1,3.86,6.29c2.77,5.92,4.33,6.38,9.16,1.78,8.32-7.92,16.5-16,24.71-24,.89-.87,1.62-1.91,3.15-3.76l-11.24-1.69c5.2-11.57,15.51-14.31,25.52-17.34v-6.63c-8.75.18-14.66,5.44-20.47,10.65Q86.48,398.21,71,412.7C68.88,414.67,67.26,417.18,65.41,419.45Zm134.31,43.07H202c1-2.18,3-4.37,3-6.54q-.39-40.94-1.33-81.86c-.25-9.87-1.29-19.71-2-29.57a7.48,7.48,0,0,0-1.47,4.14,999.62,999.62,0,0,0-3,106.27C197.22,457.51,198.83,460,199.72,462.52ZM70.56,432.46c2.37,9.77,11.63,15.21,15.28,24s7.07,17.8,10.64,26.83h8.37l.11-.89-6.24-2.19,8.83-2.88a3,3,0,0,0-.12-1.1,9.17,9.17,0,0,0-1.24-1.55c-6.36-6.45-10-14.37-12.69-22.9-1.54-4.89-3.15-9.91-5.76-14.26a15.54,15.54,0,0,0-7.93-6C77.33,430.64,74.11,432,70.56,432.46Zm8-129.43c-4.19,4.48-8.85,8.19-11.88,13C59.48,327.36,53,339.23,46.6,350.19c1.92,1.16,4.47,2.55,6.84,4.2,3.64,2.53,9.49.65,9.91-3.48,1.32-13,6.72-24.26,14.75-34.2C81.61,312.38,82.73,308.66,78.61,303Zm277.84,46.41C343.33,336.14,341,314.19,323,303.55c-3,4.53-2.83,8.08.71,12.42C332,326.15,337.7,337.69,339,351.05c.13,1.37,1.47,3.62,2.41,3.71a17.67,17.67,0,0,0,7.52-1C351.47,352.85,353.7,351.08,356.45,349.44ZM297.08,482.08l.11.93h9.41c5.72-20.93,7.44-24.25,21.06-42.52,1.83-2.45,2.93-5.45,4.85-9.11-3.22.33-4.85.73-6.44.62-7.06-.51-9.72.72-12.75,7a72.66,72.66,0,0,0-4.2,11.18c-2.64,9.07-6.38,17.48-13.1,24.33a10.48,10.48,0,0,0-1.42,2.72l7.52,2.26-.22,1.1Zm-265-82.48c8.92,4.2,12.31-6.87,19.58-6.51,1-3.28,1.9-6.45,2.84-9.64-1.32-1.2-2.6-2.25-3.75-3.43-8.54-8.79-6.74-9.3-17.9-1.22a12.59,12.59,0,0,0-2.59,2.34c-2.88,3.67-6.07,6.58-11.21,6.37a4.88,4.88,0,0,0-3,1.64c-2.75,2.71-5.37,5.56-7.81,8.13,6-2.38,12.69-4.4,18.75-7.58,6.48-3.4,12.38-7.9,18.72-12,.37,5.92-1.95,9.35-7,10.64-2.77.71-4.87,1.81-5.1,5.18C33.53,395.42,32.68,397.31,32.06,399.6Zm362.06-1.87-1,.49a107.94,107.94,0,0,0-6.48-8.74c-1.09-1.22-3.11-1.59-4.68-2.41a75,75,0,0,1-8.44-4.53c-3.93-2.72-7.5-6-11.41-8.72-1-.69-3.22-1-4-.39-3.54,3-7.55,5.87-9.78,9.73-1.13,1.95,1.18,5.89,2,8.91.07.29.4.51.6.76a14.76,14.76,0,0,1,7.54,3.6c3.39,3.23,6.86,4.9,11.61,3a33.67,33.67,0,0,1-1.35-5.49c-.28-3.89-2.56-5.36-6-6-4.26-.8-6.83-5.27-6.08-10.2,5.6,3.48,11.23,6.88,16.74,10.45,2.81,1.82,4.63,5.67,9.15,3.49.82-.4,2.61,1.11,3.91,1.82C389,394.85,391.56,396.3,394.12,397.73ZM196.74,484.85c.41,18.84-1.25,37.56,4.38,55.77,5.51-18.45,4.15-37.38,4.42-56.44ZM172,112.43l1.35-1.21a18.16,18.16,0,0,0-1.88-2.94c-3.21-3.37-6.53-6.64-9.78-10-3.72-3.81-7.25-7.82-11.2-11.37a6.31,6.31,0,0,0-5.22-1.08c-2.19.7-4,2.53-7,4.55C146.45,102.69,161,104.87,172,112.43Zm91.9-23.53c-2.17-.55-3.46-.48-4-1.08-5-5.48-8.35-1.5-11.71,1.94Q239,99.2,230,108.8c-.54.57-.59,1.6-.87,2.43l1,1.32c10.18-5.88,20.44-11.65,30.48-17.77C262.14,93.86,262.63,91.29,263.89,88.9Zm28.86,11.95c-5,8.31-2.94,15.35,5.78,20.52,2.94,1.73,9-2,12.57-7.77ZM109.54,101,89.91,114.73c4.18,2.72,7.47,5.67,11.32,7,1.53.52,4.34-2.52,6.47-4.06C113.13,113.71,113.78,108.44,109.54,101Zm232,257.2c-.64,4.63-1.37,7.52-1.34,10.41a15.18,15.18,0,0,0,1.64,6.68c1,1.85,3.92,4.74,4.2,4.55a61.38,61.38,0,0,0,10.07-8.38c.88-.95.73-4.57-.17-5.18C351.71,363.48,347.08,361.27,341.52,358.24Zm-281.65.89c-3.19,1.64-6,3.12-8.91,4.58-7.6,3.84-7.87,5.73-1.65,11.77,1.07,1,2.06,2.19,3.2,3.15,3.28,2.75,5.89,2.33,7.44-1.57C62.12,371.58,63.35,365.93,59.87,359.13ZM300.13,126.91l-14.72-12.32c-1.47,4.54-3.37,9.42-4.59,14.47-.7,2.89,5.95,8.15,8.3,6.61C293.16,133,296.73,129.67,300.13,126.91Zm-183.26-12-14.71,12.2a114.43,114.43,0,0,0,9.41,7.76,5.66,5.66,0,0,0,5.17.15c2-1.4,4.85-4,4.58-5.73C120.56,124.33,118.43,119.61,116.87,114.88Zm186.34-11.2c2.13-6.86,4.16-13.37,6.24-20-4.48-1.31-8.41-2.91-10.3,1.83C295.76,94,294.54,98.76,303.21,103.68Zm-204.13.24c7.12-5.22,8.36-12.16,3.69-18.9-2.73-4-6.2-2.42-10-.75ZM323,91.53c-4.59-4.11-6-4.08-9.37.7-2.83,4-5.42,8.26-8.12,12.41C312.56,106.06,319.88,100.11,323,91.53Zm-243.8.13c4,9.61,9.07,13.41,17.53,13.17-2.72-4.22-5.3-8.45-8.12-12.5C85.35,87.73,84.27,87.71,79.16,91.66ZM302.63,505.6l-12.1-9.75c-.82,3.19-2,6-2.12,8.84-.12,2,.63,5.48,1.81,5.89,1.83.62,4.46-.57,6.58-1.43C298.71,508.37,300.38,507,302.63,505.6Zm-202,21.2c1.26-2.33,2.35-4.57,3.63-6.69,2.06-3.4,2.61-7.17-1.21-8.95-1.87-.87-5.39.84-7.67,2.21-1.34.81-1.7,3.25-2.51,5,1.75-.09,3.49-.21,5.24-.27.26,0,.52.24,1,.49l-3.59,5.76Zm202-9.06.67-.54a6.25,6.25,0,0,0,1.72.92c1.34.24,2.71.29,4.07.42-.36-1.48-.33-3.26-1.17-4.37a9.84,9.84,0,0,0-4.33-3.17c-1.46-.53-3.95-.77-4.76.06-1.3,1.32-2.55,3.92-2.09,5.47,1,3.5,3.12,6.7,4.79,10.05l5.07-2.61Zm-202.87-12c2.56,1.86,4.7,3.59,7,5.06,3.45,2.19,7.35.18,7.1-3.86-.22-3.56-1.22-7.07-2-11ZM201.25,295.6c-7,5.42-7,7.15-.06,17.58C208.13,301.3,208.13,300.58,201.25,295.6ZM309.32,93l1,.36c3.7-5.49,7.62-10.85,10.91-16.57.73-1.27-.83-3.84-1.33-5.81-1.49,1.06-3.79,1.82-4.33,3.24C313.18,80.4,311.34,86.74,309.32,93Zm-217.4.54,1-.44c-2-6.25-4-12.52-6.09-18.74-.68-2-1.65-4.8-4.32-2.93-1.25.87-2.15,4.33-1.42,5.59C84.33,82.75,88.24,88.09,91.92,93.56ZM323.25,538.71c.34-8.88-7.9-9.22-12.55-13.44C308.92,532.54,313.26,537,323.25,538.71ZM79,539.36c11.38-3.36,14.57-6.83,12.32-13.67C86.74,529.79,78.63,530.14,79,539.36Zm251-11.79a12.64,12.64,0,0,0-15.61-5.19C320.51,529.06,324.76,530.47,330,527.57ZM88.27,521.91c-6.77-.41-12.43.07-16.42,5.82C77.8,530.57,82.45,529,88.27,521.91Zm92.15-403.82,1.09-1.31c-1.81-2.62-3.63-5.23-5.2-7.48l-5.24,6.59Zm40.21-1.73,1.43,1.5,8.95-2.27L225.87,109Zm46.87-38.9c-6.47.75-7.47,2.41-6,9.14ZM140.43,86.28c1.43-7,.21-8.63-5.16-7.72ZM130.12,40.53l1.54-.3a38,38,0,0,0-.59-6.43c-.07-.31-2.63,0-4.78,0C127.89,36.6,129,38.56,130.12,40.53ZM276,32.7c-2.64.66-5,.77-5.18,1.38-.42,1.94,0,4.06.09,6.11l1.32.12ZM130.7,59,135,67.84C135.43,64.41,137.35,60.33,130.7,59Z" transform="translate(-0.15 0.84)"/><path d="M208.58,196.67l-4.08-.73c-.38,2.62-.38,5.05-1.24,7.12-.26.62-4.1.67-4.24.27a39.28,39.28,0,0,1-1.22-7.19l-2.75.58c0-.52-.13-1,0-1.09C199.74,192.17,202.81,192.21,208.58,196.67Z" transform="translate(-0.15 0.84)"/><path d="M196,160.84c-4.64-2.15-5.41-14.09-1.6-22.44C194.91,146,195.43,153.34,196,160.84Z" transform="translate(-0.15 0.84)"/><path d="M206.24,160.76c.56-7.56,1.12-15,1.64-22.14C211.56,143.63,210.77,158.55,206.24,160.76Z" transform="translate(-0.15 0.84)"/></g></svg>