<svg id="Layer_1" data-name="Layer 1" xmlns="http://www.w3.org/2000/svg" viewBox="0 0 324.06 704.44"><defs><style>path{fill:#ff3fb4;}</style></defs><title>EscarabajoRinoceronte</title><g id="mJGf0y"><path d="M209.16,258.41c-3.14-6.33-1.79-11.61,3.05-16.16,8.69,4.85,8.81,13.08-.25,18.6-4.83,2.95-10.7,4.21-17.42,6.72,11.64,21.22,23.05,42,34.46,62.83,11.06-5,22.21-4.93,33.88-.51-.21-2,0-2.93-.39-3.4-13.75-17.31-11.62-39.27-17.3-58.94-1.28-4.42.7-7.05,5-7.39s5.33-2.63,5-6.32c-.5-5.17.68-10.72-5.22-14.23-1.86-1.11-3.1-4.41-3.3-6.81a14.09,14.09,0,0,1,2.12-7.58c.33-.58,3.62.54,4.62.72V178.4l1.81-.32,3,13.33,1.24.11c.69-9.74,1.39-19.48,2.12-29.91.85,2.12,2.09,3.93,2.25,5.83.58,7,.87,14.08,1.14,21.13.25,6.49.24,13,.52,19.46.34,8.13-.1,15.68-6.31,22.28-1.62,1.73-.06,6.89.7,10.33.81,3.68,2.4,7.18,3.54,10.44a50.51,50.51,0,0,0,4.89,3.59,72,72,0,0,0,8.1,4.05c1.95.82,5.82,1.14,5.84,1.79.09,2.5-.22,5.92-1.83,7.43-6.86,6.37-5.61,14-4.74,22.1a10.54,10.54,0,0,1,3,0c2,.7,3.89,1.62,5.82,2.46-.82,1.56-1.3,3.49-2.51,4.63-6.56,6.17-5.22,14-4.55,21.54.48,5.45,0,9.75-5.39,12.81-1.44.83-1.27,4.2-2.24,6.21-1.18,2.42-2.23,5.56-4.3,6.79-9.33,5.55-19.82,8.36-30.08,11.72-1.11.37-2.15,2.2-2.46,3.53-1.13,4.88-1.57,10-2.93,14.76-2.12,7.5-5.46,9.52-13.23,8.85-2.54-.22-5.52-1.26-5.08,3.66,1.58.24,3.18.51,4.79.71,11.2,1.36,22.06,3.61,31.42,10.57a10.44,10.44,0,0,0,5.64,2.17c8.64.09,12.91,5.76,16.4,12.4,1.56,3,3.24,6.05,3.83,9.27,2.31,12.66,7.47,24.14,13.69,35.25a4.49,4.49,0,0,1,.44,1.74l-7.32,3.13c1.19,2.73,2.19,5.58,3.64,8.17,2,3.64,4.42,7.1,6.66,10.64,2.13,3.37,4.64,6.56,6.29,10.15,2.65,5.76,4.88,11.74,7,17.71,2.38,6.63,3.7,13.74,6.86,19.94,4.79,9.41,2.5,20.49,8.56,29.67,6.18,9.36,3.62,20.75-4.85,27.52a11.23,11.23,0,0,1-6,2c4.77-6.85,10-13.2,4.13-21.61l-10.8,9.73-1.38-1.28c.14-.62.07-1.46.46-1.84,7.94-7.92,5.93-17.17,3.65-26.49a21.67,21.67,0,0,1-1.07-5.44c.32-13.72-4.56-25.72-11.3-37.39-3.05-5.29-4.08-11.71-6.75-17.26-1.21-2.51-4.19-4.17-6.36-6.22l-1.63.75c1.35,11.87,1.9,23.89,4.26,35.55,2.79,13.78,1.51,26.9-1.88,40.3s-5.5,26.94-8.82,40.28c-1,4.11-4.15,7.7-7,12.66,1.25,2.74,3.54,7.09,5.24,11.66,2.76,7.42,5.1,15,7.67,22.47.73,2.11,1.29,4.38,2.51,6.18,1.78,2.6,3.1,4.43-.58,6.75-1.24.78-1.14,3.66-1.7,5.57-1.33,4.59-2.42,9.28-4.12,13.74-1.83,4.81-4.29,9.38-6.39,14.09-2.75,6.13-6.22,11.51-13.24,13.4-6.71,1.81-12.66-2.59-12.8-9.46,11.78,6.77,13.15,6.65,17.87-.08-1.77-4.46-4.22-7.86-4.2-11.26,0-4.64,3.28-7.56,8.46-8a6.62,6.62,0,0,0,4.42-2.83,96.31,96.31,0,0,0,6-12c.49-1.14-.06-2.77-.27-4.15-.29-1.92-.7-3.83-1.09-5.73a38.57,38.57,0,0,0-1.18-5.39c-1.7-4.8-3.57-9.54-5.36-14.31-.07-.17,0-.4-.11-.54a28.31,28.31,0,0,1-5-22l-2.35-.19c-1.4,3.87-2.79,7.73-4.63,12.85l-1.3-8c-1.87,4.07-3.18,6.91-4.48,9.75l-1.62-.55q7.44-24.69,14.9-49.39l-.83-.4c-6,6.38-11.47,13.34-18,19.05-22.64,19.61-47.59,35.06-78.56,36.3-17.37.69-33.89-3.82-49.28-12.36-19.75-11-37.91-23.72-51.35-42.29-.25-.35-.85-.46-2.35-1.22,5.24,17.36,10.22,33.83,15.2,50.3l-1.58.57-4.6-9.6c-.46,3.16-.71,4.84-1.15,7.87l-4.84-13.31c-1.22,1-1.77,1.31-1.74,1.48,2.28,11.25-6.27,19.76-7.64,30.19-.78,5.91-3.91,11.5-5.79,17.29a6.44,6.44,0,0,0,.06,4.16,72.08,72.08,0,0,0,5.5,11,8.27,8.27,0,0,0,5.18,3.48c5.21.63,7.66,3.7,8.37,8.32.66,4.36-1.31,7.55-5.72,8.9,5.59,8.81,8.35,9.09,18.88,2.06.4,6.59-5.78,11.34-12.49,9.52-7.22-2-10.76-7.5-13.49-13.88-1.81-4.23-4-8.3-5.62-12.61C47.26,672.23,46,667,44.34,662c-.93-2.78-2.24-5.44-3.73-9l17-45.44c-9.29-3.18-6.75-12.89-8.6-20.69-2.24-9.41-4-19-6.67-28.22-4.48-15.54-5.64-30.63-1-46.67,2.8-9.71,1.5-20.6,2.08-31.65-4,2.51-8.47,3.66-7.62,9.34a3,3,0,0,1-.35,1.62c-2,4.31-4.23,8.56-6.17,12.91-2.46,5.52-4.7,11.14-7.09,16.69-5.81,13.45-5.39,27.93-6.88,42.09-.17,1.63.73,3.55,1.61,5a88.07,88.07,0,0,0,5.4,7.33c-7.34-.19-9.1-5.6-12.43-8.69-5.43,5-5.07,7.33,2.62,21.84-1.73-.69-3.72-1-5.15-2.13-9.3-7.09-10.92-19.09-4.56-29.49a31.91,31.91,0,0,0,3.38-9.65c3.2-14.32,5-29.06,13.44-41.7A5.55,5.55,0,0,0,20.8,503c.33-7.78,4.6-13.55,8.6-19.87,3.34-5.27,5.83-10.91,10.55-15.3,1.19-1.11,1.63-5,.7-6-1.45-1.5-4.36-1.61-7.21-2.48,1.69-3.4,3.82-7.05,5.34-10.94,2.84-7.24,5.3-14.62,8-21.93,1.72-4.72,3.18-9.57,5.38-14.05,3.24-6.57,7.68-11.93,16-12a8.4,8.4,0,0,0,4.7-1.59c10.45-7.79,22.56-10.3,35.15-11.46.69-.06,1.36-.42,2.74-2.08-1.32-.75-2.64-2.13-4-2.14-11.45,0-12.72-1.55-16.39-12.27-1.87-5.46,3-14.56-8.22-15.93-6.39-.78-12.45-4-18.79-5.58-3.63-.93-10.64-8.69-11.33-12.76a10.4,10.4,0,0,0-3.32-5.8c-3.29-2.72-5.11-5.57-4.49-10.05.53-3.86,1-7.94.32-11.69-.75-4-2.86-7.76-4.49-11.57-.76-1.78-1.8-3.44-2.7-5.16,2.13-.78,4.25-1.58,6.41-2.31a9,9,0,0,1,2.17,0c1.16-7.65,2.36-14.87-3.76-21.41-1.82-1.94-2-5.45-2.86-8.24,2.24-.56,4.61-.82,6.68-1.76a73,73,0,0,0,7.84-4.52c1.44-.87,2.81-1.86,4.72-3.14,1.42-4.47,3.2-9.8,4.76-15.2.8-2.74,0-4.76-2-7.36-2.67-3.48-4.79-8.39-4.83-12.71-.15-15.57.59-31.16,1.2-46.73.1-2.35,1.31-4.66,2.28-7.92,1.25,13.57,2.38,25.83,3.59,38.9.86-7.87,1.63-14.88,2.4-21.9l2.44.22v47.56c1.09-.12,4.64-1,4.9-.44A17.14,17.14,0,0,1,75,233.74c-.22,2.21-1.58,5.11-3.36,6.2C64.54,244.3,67.3,251.08,67,257c0,.93,2.43,2.62,3.91,2.86,4.91.8,6.67,3.14,5.68,8.1-2.3,11.51-3.43,23.35-6.82,34.51C67.53,310,68,319,60.49,324.44a5.27,5.27,0,0,0-1.32,2.42,11.16,11.16,0,0,0,0,2.71c11.38-3.64,22.56-4.48,33.62,1,11.43-20.85,22.83-41.63,34.75-63.35-4-1.26-6.66-1.91-9.15-2.91-3.84-1.53-8.33-2.49-11.23-5.14-6.43-5.86-5.32-11.71,2.25-16.79,5.42,5.38,6,8,3.53,16.12,3.73.82,7.45,1.61,11.16,2.45,4,.91,4.73-1.89,5.32-4.75,5.3-25.52,12.55-50.82,15.44-76.61,4.87-43.3,6.85-86.92,10.28-130.39,1.3-16.48,3.25-32.91,6-49.5A10.61,10.61,0,0,1,162,2.25c2,26,3.82,52,5.89,78q3.27,41,6.88,81.92a517.46,517.46,0,0,0,17.72,94.36c1.1,3.93,2.91,5.23,6.77,4.15C202.23,259.84,205.31,259.28,209.16,258.41ZM158.92,624.78c.16-2.08.36-3.53.36-5q0-98.14-.22-196.31a11.21,11.21,0,0,0-4-7.69A45.82,45.82,0,0,1,140,395.37c-1.19-3.14-2.6-4.75-5.88-4.53-13.33.89-26.74,1.1-39.94,2.91-11.89,1.63-21.88,7.47-27.42,18.89-3.5,7.2-6.94,14.44-10,21.82-8.32,20-9.62,41.27-11.05,62.44-2.59,38.51,13.66,69.2,41.7,93.94,10.65,9.4,23.09,16.94,35.32,24.35C133.58,621.74,146.22,622.92,158.92,624.78Zm3.7.06c13.81-2.07,27.08-3.43,38.45-10.7,12.05-7.7,24.33-15.38,35.05-24.74,20.94-18.28,35.16-41.34,39-69.1,3.6-26.08.27-52.08-7.37-77.28-3-9.74-7.3-19.12-11.61-28.38-4.52-9.7-11.82-16.52-22.53-19.39-15.25-4.08-30.64-6.37-46.39-4.23a7.57,7.57,0,0,0-5,3.87c-3.46,7.79-7.57,15.11-14.72,20-3.93,2.67-4.92,5.78-4.91,10.28q.15,96.74,0,193.47Zm-1-501.74-2.06,0c0,4.71,0,9.42,0,14.12-.28,34.62-4,68.84-13.26,102.23-4.06,14.61-7.53,29.71-17,42.22-4.68,6.19-10.55,11.57-14.62,18.11-7.25,11.67-14.68,23.46-19.9,36.08-4.83,11.66-4.23,24.54-.3,36.76,2.35,7.34,4.48,8.11,12.07,7.4,14.47-1.34,28.91-2.37,43.45.24,6.31,1.13,13.17,1.62,19.39.4,15.08-2.94,30.06-2.08,45.1-.73,8.46.77,10.4-.23,13.08-8.3a46.9,46.9,0,0,0,1.56-7.07c3-18.14-2.57-34.27-11.95-49.35-3.92-6.29-8.54-12.14-12.77-18.23-6.54-9.4-14.93-18.06-19.17-28.41-14.82-36.21-20.84-74.45-22.55-113.41C162.31,144.46,162,133.78,161.67,123.1ZM45.3,265.36c4.27,9,7.64,18.4,1.55,28.31a1.88,1.88,0,0,0,0,1.59c3.46,6.57,2,13.41,1.2,20.23-.29,2.4-.8,5-.18,7.19.4,1.4,2.71,2.25,4.16,3.34.58-1.51,2.09-3.49,1.6-4.47-2-4-.28-5.25,3.33-6.19,5.23-1.36,6.32-3.83,4.07-8.62-1.89-4-4.39-7.85-5.82-12-.64-1.87.31-4.58,1.28-6.53.32-.64,3-.1,5.56-.1-.87-6.08-1.59-12.5-2.76-18.84-.66-3.61-2.07-7.08-3.09-10.45Zm219,21.48c3.77,3.56,3.68,6.69,1.24,10.38a67.16,67.16,0,0,0-4.67,9.47c-2.18,4.79-1.1,7.39,4,8.66,3.63.91,5.32,2.08,3.46,6.15-.47,1,1.27,3.08,2,4.66,1.27-1.12,2.89-2.05,3.71-3.44.55-.93,0-2.52-.06-3.82-.08-7.85-3.19-15.82.93-23.55.36-.67-.53-2-.71-3-.75-4.29-2.29-8.66-1.95-12.88.41-5,2.48-9.83,3.72-14.37l-9.55-6c-3.91,5.11-8,27.05-5.19,29.65ZM141.49,391.73c4.37,9.35,8.8,17.32,17.3,22.14a4.35,4.35,0,0,0,3.51.43c8.81-4.85,13.65-12.8,17.66-22.08-6.87.78-12.9,2.06-18.91,2C154.86,394.12,148.69,392.7,141.49,391.73ZM85,333.76c-6.17-2.58-27.42-.14-30.88,3.45,3.08,2.33,5.79,5.18,9.12,6.72,5.15,2.39,10.7,3.92,16.11,5.75,1.64.55,3.35.88,5.67,1.47-2-7-11.31-7.57-11.21-15.53ZM267.33,337c-.15-.86-.3-1.72-.46-2.58-9.68,1.77-18.57-5.11-28.59-.42l9.65,1.72c.18,8-9.17,8.44-11.21,15.4,8.32-2.72,16.21-5,23.79-8C263.17,342,265.08,339.05,267.33,337Zm-2.22,257.86,1.58.34,13.92-54.33-2.48-.6C275,558.7,263.47,575.19,265.11,594.81ZM43.51,539.56,41,540l14.19,55.25,1.62-.38C58.11,575.08,46.84,558.25,43.51,539.56Zm19.13-131c-10.6,11.49-11.33,27.33-18.15,40.6l2,.86ZM259,407.17c4.94,13.64,9.35,26,13.9,38.22.59,1.57,1.95,2.85,3,4.26l1.31-.77C270.49,435.72,269.71,420,259,407.17Zm-92.75-19.71H154.84C158.61,391.81,164.41,391.56,166.27,387.46Zm119.3,92.76,1.78-1.6q-4.08-4.37-8.15-8.75l-1.55,1.4ZM181.89,387.49l-.35-2.45L171,386.54c.12.77.25,1.54.37,2.32Zm-41.71-2.4-.34,2.4,10.62,1.4.34-2.46Z" transform="translate(0.99 0.34)"/></g></svg>