<svg id="Layer_1" data-name="Layer 1" xmlns="http://www.w3.org/2000/svg" viewBox="0 0 682.95 457.6"><defs><style>path{fill:#ff3fb4;}</style></defs><title>Escarabajo</title><g id="Ye3lb9"><path d="M64.39,311.23c-3.92,4.49-8,8.56-11.41,13.19-9.88,13.6-33.39,16.16-44.3,13.1-4.63-1.3-8-4.45-8.93-10.5l7.66,5v-4.77a9.47,9.47,0,0,1,1.46,1.56c2.12,4.07,5.43,5.67,10,5.27,8.94-.8,17.57-2.54,25-8,1.64-1.2,2.83-3,5.12-5.53-6.35.18-11.65,5.08-16.89.48,5.42-1.41,10.56-2.69,15.65-4.12.78-.22,1.33-1.21,2-1.76,3.67-2.89,7.26-5.9,11.09-8.56A27.08,27.08,0,0,1,68.33,303a6.84,6.84,0,0,1,5.21.62,54,54,0,0,1,9.19,7.86c10.25,11.25,19.9,23.06,30.48,34,11.23,11.59,23,22.69,35.09,33.38,4.24,3.75,10.11,5.64,13.71,7.56,4.37-5.75,7.52-10.06,10.84-14.23,3.55-4.47,7.25-8.81,11.29-13.69-5.58-2-10.12-3.41-14.52-5.2a156,156,0,0,1-73-59.87C87.48,279.5,84.47,263.1,81.8,246.94c-.5-3,1.86-6.48,3.17-10.58-5.13-3.41-3.42-9.36-2.06-15.5,3.56-16,7.08-32.22,17.33-45.5,20.32-26.31,45.39-46.48,77.45-57l5.12-1.69c-2.49-11.7-16.76-15.24-18.26-27.88-6.46-.42-11.81,2.82-16.28,6.88-11.94,10.87-23.8,21.87-35,33.44-11.93,12.29-23,25.39-34.7,37.93-3.6,3.85-7,7-13.52,2.57-5.35-3.63-12.72-4.25-15.85-11.22a2.28,2.28,0,0,0-1.4-.84,115.77,115.77,0,0,1-15.64-5c2.63-.29,5.31-1,7.88-.75s4.91,1.61,7.36,2.47c.72-.83,1.45-1.66,2.17-2.5-2.35-1.45-4.72-2.88-7.05-4.37a43.4,43.4,0,0,0-25.3-6.71c-3.24.12-6.37,3-9.53,4.61,0,.29-.06-.79-.2-2.67L-.1,147.43c.84-6.6,4.86-10.12,10.45-10.75,17.68-2,33.8.64,45.07,16.68,2.48,3.52,6.46,6,9.3,8.52,16.89-16.55,34.22-33.65,51.7-50.58,7.2-7,14.62-13.7,22.14-20.31,8.26-7.27,17.72-11.5,29.05-10.14.38,0,.89.3,1.13.14,8.81-5.9,14.21,1,19.36,5.89,6.27,5.9,11.38,13,17.23,19.36,1.47,1.59,3.95,3.44,5.81,3.29a216.34,216.34,0,0,1,62.67,4,189.44,189.44,0,0,0,38.81,3.61,24,24,0,0,0,2.71-.37c-.9-6-2.21-11.83-2.53-17.68s.85-11.66,7.9-13.85c-4.69-8.16-12.5-11.18-20.58-13C274,66.5,247.8,60.59,220.67,64.63a29.65,29.65,0,0,1-6.91-.17c-1.09-.11-2.92-.49-3.09-1.12-2.53-8.83-11.46-11.17-17-16.91-1.26-1.31-3.29-1.89-5-2.8l1.55-2.07,7.7-.49-16.65-11.7,3.57-3.28c-3.13-5.76-4.64-13.34-14.18-11.89l-.47-1.41c1.91-1.44,3.71-3.82,5.75-4a8.28,8.28,0,0,1,6.22,2.89c6.41,8.13,12.41,16.58,18.57,24.9,4.31,5.82,8.64,11.63,13.21,17.77,5.81-6.33,13.63-6.54,21.11-5,22.25,4.45,44.4,9.45,66.54,14.46,11,2.48,18.31,10,26.14,17.83,9.5,9.48,10.1,20.09,9.35,31.74-.3,4.73,1.28,7.15,5.73,9.65a128.31,128.31,0,0,1,22.4,16c7.19,6.39,10,15.28,10.27,25a120.34,120.34,0,0,0,1.13,13.8c.2,1.42,1.64,2.67,2.52,4,1.48-1,3.62-1.67,4.34-3.07,3.95-7.71,2-15.33-1-22.83-.42-1-1.06-2-2.42-4.5l15.07,4.4a124.65,124.65,0,0,1,8.54-38.31c.79-2,2.67-3.71,4.38-5.16,3.14-2.64,6.81-4.69,9.77-7.5a34.8,34.8,0,0,1,25.74-9.92c25.05.81,48.6-3.51,70.25-16.9,2.3-1.42,6.8.73,10.58,1.27-.52-4.84,1-9.16,6.06-12.41,1.89-1.21,2.11-5.1,3-7.81,1-3.18,1-7.17,6.14-6.83.63.05,1.65-1.35,2-2.26,2.18-5.26,4.28-10.56,6.25-15.9.35-.94-.07-2.15-.08-3.24,0-3.85,1.72-6.29,6.18-7.91-1.08,2.94-1.81,4.9-2.53,6.85l1.73,1.08L558,24.55c4.53,6.4-4,8.78-5.38,13.57-1.46,5.17-4.24,10-6.63,15.32,5.06,3,2.53,6.15-1.14,8.92-2.42,1.84-5.33,3-7.76,4.87a88.93,88.93,0,0,0-6.76,6.14L532.11,75l5.19-6.5,1.83.9c-1.31,3-2.41,6.17-4,9a67.74,67.74,0,0,1-6,9.32A39.58,39.58,0,0,1,522,95.12c-14.4,10.83-31,11.39-48,9.92-8.83-.76-17.65-1.68-26.49-2.11-9.08-.44-16.94,2.41-23.35,9.29-1.69,1.82-4.83,2.29-8.53,3.92-.21.92-.74,3.21-1.65,7.21l7.33-7.91c4.92,14.34-4.53,26.6-2.55,40.24,22.6.24,40.71,8.53,50,30.73L453.66,197l10.82,3.26-.44,1.63c-1.58-.16-3.3-.79-4.72-.39-2.35.67-6,1.6-6.42,3.16-.69,2.49,0,6.36,1.64,8.19,1.39,1.53,5.08,1.21,7.75,1.17,1.1,0,2.22-1.4,3.27-2.25,5.32-4.29,6.25-4.12,10.12,2.77-5.21-3.46-8.76.1-13,1.63-3,1.08-8,.51-10.49-1.43-3.86-3.06-4.78-8.27-2.85-13.23,2.85-7.33,7.76-12.78,15.71-15.33-7.06-15.92-19.37-24-35.66-26.34-6.44-.91-13.05-.47-19.58-.78-7.37-.34-14.73-.82-22.36-1.26a46,46,0,0,1,1.71,5c2,8,.5,15.7-3.18,22.94-13,25.63-13.24,52.65-8.37,80.08a72.42,72.42,0,0,0,6.15,18c5.21,11,9.31,22,3.78,32.8,13.56-.53,27.28-.47,40.88-1.76,16.69-1.59,29.17-10.07,35.73-24.23-5-5.57-10-10.18-13.81-15.63-3.35-4.81-1.83-12.85,2.22-15.79,4.77-3.47,9.2-1.55,13.9,1,2.38,1.31,5.8.74,8.6,1-2.4,5.51-4.2,6.05-9,2-3.44-2.89-7.24-5.62-11.14-1.83a9.72,9.72,0,0,0-2.12,8.11c.48,1.73,4.19,2.82,6.64,3.65,1.28.43,3-.3,4.45-.51l.52,1.53-10.58,3.43,15,10.68c-9.18,22.13-27.28,30.36-50,30.7-1.9,13.53,7.43,25.81,2.62,40.16-2.21-2.35-4.17-4.41-6.6-7-.08,4.72-.34,8.47,5.7,7.84,1.17-.12,2.79,1.18,3.71,2.24,6.32,7.31,14.53,9.94,23.81,9.47,8.65-.44,17.28-1.33,25.91-2.09,16.58-1.46,32.8-1,47.11,9.11,4.06,2.87,8.23,5.55,9,11.33.27,1.9,2.64,3.62,4.25,5.22,3,2.94,5.19,6,3.46,11.27l-5.62-6.93-1.78,1.75c2.4,2.08,4.71,4.29,7.24,6.19s5.26,3.18,7.69,5c3.68,2.8,5.29,5.92.14,8.93,4.43,7.76,8.86,15.17,12.86,22.81.86,1.65.12,4.13.12,6.4l-5.12-6.88-1.72,1,2,5.94-.94.95c-1.47-1.63-3.64-3-4.29-4.93-2.62-7.78-4.78-15.71-7.23-24-6,.75-6.51-3.83-8-8.06-1.11-3.2-3.6-5.9-5.19-9-1.74-3.39-3.15-7-4.75-10.56-7.45,2.55-7.44,2.52-16.3-2.27-19-10.26-39.46-13.78-60.81-13.09-12.47.41-23.05-3.55-31.28-13.16-.62-.73-1.09-2-1.83-2.17-11-2.74-11.44-12.54-13.61-20.81-2.11-8-3.18-16.35-4.71-24.62l-13.29,4c1.48-5.42,3.46-10.21,3.91-15.14.36-4-.86-8.28-1.95-12.28-.32-1.18-2.63-2.59-3.92-2.49-1,.08-2.47,2.22-2.69,3.61a77.75,77.75,0,0,0-1.14,12.64c0,11.47-3.83,21.37-12.58,28.66A133,133,0,0,1,342,352.09c-3.63,2-5,4-4.89,7.83.11,5.77,0,11.55-.37,17.31s-4.94,9.48-7.91,14.07c-10.34,16-26.5,20.16-43.21,23.76-16.37,3.53-32.74,7.07-49.21,10.05-7.76,1.4-15.85,2-22.32-4.93-4.21,5.59-8.44,11.12-12.58,16.71-6.39,8.63-12.6,17.41-19.13,25.93-4.16,5.42-8.69,4.53-11.71-2.52,9.39,1.63,11-5.84,14.19-11.81l-3.69-3.27,16.46-11.41-8.41-.89a63.75,63.75,0,0,1,4.53-4.73c4.73-3.94,11.28-6.85,14-11.85,4.9-9.08,11.75-6.24,18.68-5.71,27.69,2.11,54.49-2.94,80.79-10.84,5-1.51,9.24-5.71,15.37-9.65-8.69-2.94-10.16-8.61-9.79-14.72.36-5.85,1.64-11.65,2.56-17.85-10,0-20.13-2.33-28.58.51-15,5-30.39,5-45.63,6.67-9.52,1-19.24.45-28.84.1-3.32-.12-5,.91-7.16,3.3q-11.5,12.81-23.82,24.9c-3,2.92-6.94,4.21-11,1.2a4.1,4.1,0,0,0-2.67-.5c-12.3,1.41-22.24-3.63-30.8-11.71q-29.2-27.57-58.06-55.5C73.92,321.89,69.55,316.76,64.39,311.23ZM372.85,172.76c-3.81-1.11-7.3-1.57-10.24-3.09a77.53,77.53,0,0,0-29.06-8.78c-6.64-.57-13.2-2.67-16.84-8.76-5.86-9.81-11.09-20-16.8-30.41-33.51-.53-67.49.39-101.06,7.41-4,.84-9.88,2-12.25,0-6.24-5.38-10.36-1.14-15.77,1.08,10.06,2.65,12.61,6.66,10.41,16.45-1.67,7.4-6.86,12-13.63,14.53-10.23,3.91-20.53,7.65-31,11a28.94,28.94,0,0,1-11.37,1.12c-2.77-.26-6.73-1.66-7.64-3.68-.8-1.79,1.15-6,3.12-7.67,9.84-8.29,19.65-16.74,30.32-23.87,9.89-6.61,20.86-11.62,30.62-16.94l-1.69.32a17.83,17.83,0,0,0-2.81.62c-26.49,9.61-48.58,25.57-66.88,46.84-4.48,5.21-4.27,11.36,0,17.6,4.24-1.53,8.57-3,12.85-4.63,10.74-4,21.42-8.23,32.2-12.16a120,120,0,0,1,15.33-4.62c3.75-.81,5.43.89,3.82,5-2,5.18-4.42,10.35-5.4,15.76-1.38,7.56-4.69,12.15-12.64,13.51-3.32.56-6.33,3-9.47,4.58l.76,1.65L205.62,200l.06-1.57c-9.13-.78-18.28-1.48-27.4-2.39-1.77-.18-4.26-.72-4.94-1.92s.48-3.46,1.18-5.1c.89-2.1,2.69-3.94,3.13-6.09,3.35-16.14,10.77-18.75,23.2-19.51,28.41-1.74,56.88-2.7,85.34-3.52a81.21,81.21,0,0,1,21.69,2.39c3.22.8,6.56,4.5,8.11,7.72s1.23,7.52,1.22,11.34c0,6-3.08,9.56-9.08,10.88-7.89,1.73-15.71,3.76-23.54,5.76a39.07,39.07,0,0,0-4.77,1.84l.3,1.8c2.95.18,5.89.43,8.84.55,13.61.57,27.22,1,40.83,1.69,4.4.22,8.77,1.23,13.17,1.39,2.39.08,4.8-.88,7.7-1.48-3.19-6.16-8.3-5.75-12.56-6.85-12.23-3.17-18.49-10.69-18-22,.27-6.8,3.5-10.16,10.15-9.59,12.81,1.11,25.11,3.85,35.18,12.74,2.22,2,4.85,3.48,8.33,5.93C373.35,179.23,373.09,175.84,372.85,172.76ZM171.47,344.43c4.8,1.78,9.14,7,14.71,1,1.17-1.25,4.44-1.09,6.62-.77,8.36,1.22,16.62,3.13,25,4.14,27.55,3.34,55.18,5.26,82.39,3.8,4.7-8.86,9.39-17.39,13.77-26.07,4.28-8.46,11.63-11.4,20.38-13.23,9.13-1.9,18-5.09,26.94-7.82,3.73-1.13,7.39-2.51,11.59-4,.21-2.64.48-6.16.86-11-3.49,2.44-6,3.84-8.09,5.72-10,9-22.31,11.73-35.11,12.92-6.78.63-10.07-2.55-10.46-9.24-.55-9.37,4.59-17.57,13.34-20.78,3.23-1.18,6.8-1.47,10-2.69,2.52-1,4.73-2.75,7.08-4.17-.23-.72-.45-1.44-.67-2.16-2.76-.28-5.61-1.16-8.26-.76-18.88,2.9-37.8,4.68-56.92,3-1.54-.13-3.18.87-4.77,1.34a9,9,0,0,0,5,2.88c7.84,2,15.76,3.63,23.5,5.93,2.75.82,6,2.55,7.39,4.86,6.23,10.58-.47,25.25-12.59,25.9-20.92,1.11-41.93,1.32-62.88.79-15.34-.39-30.67-2.31-46-4.05-9.17-1-14-7.2-16.1-15.89-.62-2.57-1.92-5-2.89-7.44-.81-2.06-1.58-4.12-2.37-6.18,2.26-.69,4.47-1.74,6.78-2,8.7-1,17.43-1.73,26.15-2.57l-.12-1.42L147.69,269c-.22.67-.45,1.34-.68,2,3.65,1.55,7.18,3.57,11,4.53,5.14,1.31,8.66,3.89,10.25,9,2,6.59,3.91,13.24,6.27,19.71,1.63,4.48-.11,6.19-4.1,5.19a155.32,155.32,0,0,1-16.8-5.6c-14.44-5.43-28.83-11-43-16.45-4.78,8-4.45,13.58.71,19.43,17.47,19.84,38.23,35.08,63,44.59,2.7,1,5.58,1.58,8.38,2.36-15.31-5.45-28.55-14.4-41.38-23.82a209,209,0,0,1-22.21-19.22c-4.25-4.15-2.85-8.09,3-8.9a36.64,36.64,0,0,1,14.76.72,241.5,241.5,0,0,1,29.82,10.66,31.55,31.55,0,0,1,12.38,9.77C185.82,332.24,181.94,341.85,171.47,344.43Zm273-246.63c27.38,3.94,53.52.21,78.63-13.45-3.69-4.17-6.26-5.77-11.23-2.67a121.25,121.25,0,0,1-21.27,10C475.78,97.33,460.18,97.81,444.46,97.8Zm-1.11,278.57a9.17,9.17,0,0,0,1.92.76c3.65,0,7.31,0,11,.06,19.83.18,38.6,4.49,55.34,15.4,5,3.25,7.8,2.16,11.41-2.54C497.9,376.61,471.76,372.74,443.35,376.37Zm-202-257.21c-7.33-4.92-22.62-3.75-29.08,2.26ZM211.46,353c8.82,6.25,22.58,7.11,30,2.39ZM370.14,251.56c0-2.57.15-3.12,0-3.26-1.94-1.51-3.92-3-5.92-4.43-7.35-5.31-7.36-7.9,0-13.17,1.41-1,3-1.71,4.36-2.81a10.55,10.55,0,0,0,1.79-2.74c-.43-.38-.86-.76-1.3-1.13-3.72,3.49-7.65,6.79-11,10.59-.92,1-.93,4.27,0,5.31C361.38,243.72,365.31,247,370.14,251.56Zm35.33-129.79,8.51-8.13C408.5,113,405.65,115.06,405.47,121.77Zm1.81,231.81c-1.34,6.31.54,8.07,6.81,7.74Z" transform="translate(0.25 -8.72)"/><path d="M649.94,394.5c-.27,6.46-4.18,4.58-7.27,3.24a37.4,37.4,0,0,1-7.71-5c-2.43-1.86-4.6-4.06-7-6.18-.69,1.48-1.31,2.8-2.7,5.74-7.27-7-13.95-13.41-20.61-19.83-.27-.26-.32-.79-.6-1q-8.13-5.25-16.29-10.43c-1.11-.7-2.67-.95-3.46-1.88-4.64-5.5-9.07-11.19-13.68-16.72a23.24,23.24,0,0,0-3.73-3.08,56.88,56.88,0,0,1-4.89-3.79c-2.31-2.25-4.41-4.72-6.6-7.1-6-6.49-11.89-13-18-19.44-1.46-1.53-3.49-2.53-5.31-3.71-1-.62-2.24-.89-3-1.68-4.77-5-9.19-10.35-14.2-15.09-3.45-3.28-7.78-5.62-11.48-8.66a35,35,0,0,1-6.16-6.59c-1.83-2.56-3.52-4.13-7-5-4.6-1.12-8.67-4.37-12.61-6.5.68-4.35,1.22-8.31,2-12.23.19-1,1-2.67,1.57-2.69,4.94-.18,5.68-3.52,5.54-6.37,3.34-.67,6.11-1.14,8.8-1.9a5.07,5.07,0,0,0,0-2.81c-2.69-.76-5.46-1.23-8.8-1.9.13-2.85-.59-6.18-5.55-6.39-.61,0-1.43-2.05-1.66-3.25-.68-3.56-1.11-7.18-1.84-12.11l15.41-6.52c.51-.22,1.28-.4,1.43-.79,4.2-11.23,18.34-12,23.54-23.17,2.61-5.61,10.74-8.63,16.29-12.93,1.32-1,2.21-2.6,3.46-3.76,2.75-2.54,5.62-5,8.42-7.47a24.32,24.32,0,0,0,2.81-2.65c4.69-5.78,8.49-12.7,14.25-17.07,4.78-3.64,8.24-8,12.07-12.28,2.26-2.52,4.19-5.46,6.82-7.49,6.31-4.87,12.94-9.31,19.46-13.91a16.63,16.63,0,0,0,2.68-1.67c3.26-3.49,6.15-7.38,9.68-10.55s7.43-5.42,11.62-8.4l2.12,3.77c4.92-3.53,9.7-7.42,15-10.51,2.85-1.67,7-3.18,7.21,3.28,8.62-8.9,16.48-10.91,24.43-6.65a15,15,0,0,1,8,16.4c-1.76,8.66-7,12.84-17.27,13.81l.52,1.62c-1.77.87-3.51,2.4-5.32,2.48-6.34.31-12.7.12-20,.12l9.37,10.63-1,1.42c-3.56-1.19-7.23-2.14-10.65-3.63-10.88-4.74-22.28-3.69-33.5-2.67-3.38.31-7.07,3.22-9.6,5.9-7.24,7.68-13.67,16.13-21,23.76-5.24,5.49-11.4,10.08-17,15.21a45.43,45.43,0,0,0-4.53,5.4,17.2,17.2,0,0,1-1.6,2.34c-6.45,5.55-13,11-19.44,16.54-.84.72-1.54,1.59-2.34,2.36-3.25,3.12-6.2,6.67-9.85,9.21s-8.18,3-8.18,9.05c0,1.53-4.47,2.93-6.68,4.65a38.45,38.45,0,0,0-6.29,5.78,74.78,74.78,0,0,0-4.9,7.33c8.93,1.78,17.35,9.33,17.3,17.21,0,6.35-8.68,13.17-18.75,15.36,2.29,3.08,4.53,6.7,7.38,9.73,1.59,1.68,4.14,2.54,6.38,3.51,3.25,1.4,6.35,2.54,6.35,7.11,0,1.36,1.91,3.23,3.39,4,5.85,3,10.72,6.33,14.72,12.19s11.24,9.9,16.82,15c2.29,2.07,4,4.79,6,7.21a15.19,15.19,0,0,0,1.86,2.13c5.56,4.62,11.34,9,16.66,13.88,2.13,1.95,2.87,5.38,5,7.41,7.61,7.43,15.19,14.93,23.39,21.67,7.31,6,16.61,4.75,25.1,3.84,6.77-.73,13.29-3.66,19.94-5.54a7.73,7.73,0,0,1,5.12.26l-9.61,10.57c7.3,0,13.77-.19,20.22.13,1.79.08,3.52,1.67,5,3.34,10,1.7,15.25,6,17,14.64a15.06,15.06,0,0,1-8.09,16.36C666.34,405.35,658.76,403.4,649.94,394.5Z" transform="translate(0.25 -8.72)"/><path d="M450.86,256.06V219.32c3.82,3.57,8.56,7,11.81,11.46,1.59,2.2.05,6.45.54,9.69.71,4.65-3,5.56-5.51,7.75S453.31,253.19,450.86,256.06Z" transform="translate(0.25 -8.72)"/><path d="M499.73,290.42c-5.69-.69-11.48-.94-17-2.19-7.71-1.74-11.35-8.58-15.76-14.26-.43-.57,0-2.42.59-3a3,3,0,0,1,3-.08c3.13,3,6,6.33,9,9.44,1.14,1.16,2.39,2.51,3.86,3,5.51,1.85,11.12,3.39,16.7,5.05Z" transform="translate(0.25 -8.72)"/><path d="M500.27,186c-5.5,1.71-11,3.29-16.48,5.21a12.37,12.37,0,0,0-4.28,3.22c-2.79,2.86-5.28,6-8.2,8.74-.79.73-2.66.3-4,.41.13-1.36-.13-2.92.45-4.05,6.8-13.18,19.18-14.61,31.94-15.16Z" transform="translate(0.25 -8.72)"/><path d="M262.64,154.07c-22.09,1.27-44.17,2.7-66.27,3.67-3.7.16-10.2-.93-10.68-2.72a20,20,0,0,1,1.53-13.48c4.83-9,14.43-12,23.5-12.7,24.52-2,49.13-3,73.72-3.82,9.24-.3,21.36,11.56,22.93,20.85.91,5.44-1.88,9-8.28,9.19-12.12.32-24.26.09-36.39.09Z" transform="translate(0.25 -8.72)"/><path d="M263,350.51c-15.53-1.26-31.11-2.15-46.59-3.94a79.34,79.34,0,0,1-19.92-5.38c-6.74-2.69-11.33-7.92-12.12-15.62-.68-6.62,1.21-9.08,7.92-8.92,8.65.19,17.28,1.39,25.92,1.56,24.06.49,48.12.66,72.18,1a73,73,0,0,1,10.37.46c5.46.85,7.77,4.81,6.31,10.15-2.39,8.7-14.35,20.75-24.42,20-6.5-.49-13.08-.09-19.62-.09Z" transform="translate(0.25 -8.72)"/></g></svg>