<svg id="Layer_1" data-name="Layer 1" xmlns="http://www.w3.org/2000/svg" viewBox="0 0 398.16 597.53"><defs><style>path{fill:#ff3fb4;}</style></defs><title>Escarabajo2</title><g id="na4yEf"><path d="M206.38,596.88c-.3-2.41-.68-5.46-1.07-8.56H193.8q-.62,4.33-1.34,9.44c-1.58-2.37-2.58-5.23-4.58-6.52-2.24-1.44-5.39-1.45-8.14-2.11A165.38,165.38,0,0,1,126,565.86c-8.25-5.53-14.72-12.33-19-21.3A204.09,204.09,0,0,1,89.16,485a35.15,35.15,0,0,0-.83-3.9,8,8,0,0,0-1-1.64C86,486,84.65,492.13,83.54,498.29c-.25,1.34.24,2.84.45,4.26.9,6,2.22,12,2.6,18.08.29,4.61-3.32,6-7.68,6-.8,8.4-1.83,16.65-2.17,24.93-.08,1.87,2.24,3.83,3.85,6.36.18-.12-.91,1.25-1.73,1.11-4.26-.75-8.46-1.85-12.66-2.92-.75-.19-1.37-1-2.12-1.14-5.58-.78-5.26-4.34-4.23-9.13l3.22,5.53,2,.18c2.82-8.16,5.65-16.32,8.45-24.41-8.22-3.78-6.83-3.68-6.28-11.6.76-10.85,8.71-17.78,11.9-27.1.65-1.89,1-3.88,1.51-5.82l-1.23-.89-6.85,3.86c-.36-.56-.74-.89-.68-1.09,4.44-14.53.16-28.69-1.65-43-1.29-10.23-2-20.54-3-30.82-.11-1.11-.28-2.22-.62-4.86L59.5,422.28l4.35,1.28.07,1.12c-1.7.1-4.28.95-4.94.17-4.26-5-14.15-4.78-13.28-14.51l2.76,4.83c8-4.82,11.5-12.74,16.07-19.93-7.19-3.48-7.19-3.48-1.71-14.14l-4.38.38c0-4.45,1.64-7.42,5.85-8.92,5.34-1.91,10.09-11.44,8.74-17.82l-4.82,2.92c.67-2.69.56-5.36,1.6-5.92,4.83-2.59,3.27-6.82,3.65-10.78,1.81-18.54,3.64-37.09,6-55.56.5-3.81,3.49-7.31,5.33-10.95.08-.14.29-.22.34-.36,1.39-4.06,2.27-8.54,7.62-9.36,7.28-1.1,14.55-2,21.64,1a13.28,13.28,0,0,0,1.49.37c4.15-7.89,10.92-8.85,19-6.55,2.41.68,5.17.1,8.15.1.28-8.61-9.09-9.33-12-15.73h5.37c-17.53-6-34.52-12.78-50.81-23-1.73,2.26-3.77,5-5.9,7.7-1,1.27-2.09,3.35-3.28,3.45-5.19.45-6.24,4.76-8.52,8.06-4.15,6-8.54,11.81-12.74,17.78-2.66,3.79-5.13,7.73-7.73,11.57-4.28,6.31-8.63,12.56-12.88,18.89a27,27,0,0,0-2.5,4.72c-3.45,8.21-6.44,16.65-10.42,24.59-1.5,3-3,5.42-3,9,.09,8.32-1.64,16.3-3.87,24.44-2.06,7.56-.56,16.07-.74,24.17-.11,5.27-.76,10.55-.53,15.79a92.22,92.22,0,0,0,2.08,14.67c.82,3.89,2.6,7.57,3.4,11.46.46,2.29-.4,4.81-.26,7.19.27,4.22.36,8.55,1.45,12.58,1,3.63,3.31,6.86,4.8,10.38,1.09,2.56,3,5.61,2.37,7.88-1.22,4.6,1,7.34,3,10.78s4.15,7.39,4.07,11.08c-.21,10.16,1.38,19.44,8.38,27.33-12.4-9.72-15.21-23.92-18-38.12l-1.32,1c-1.33-1.36-3.43-2.49-3.87-4.09-2.66-9.6-4.94-19.31-7.46-29.4L7.58,435V396.2L6.06,396,.42,400.48C3,384.63,5.46,370.05,8,355l-6.87,7.45c.35-14.44,5.38-26.09,10.31-38.33l-6,.87,17.39-31.25c-4.67-2.25-5.39-3.84-2.22-7.67,5.62-6.78,11.74-13.14,17.6-19.73,2.08-2.34,4-4.82,6.85-8.25l-6.39,1.58-.87-1.13,28.83-28.69-6-.38A29.2,29.2,0,0,1,63.26,226c5.06-4.58,10.37-8.91,15.19-13.74,1.44-1.44,1.94-4.16,2.18-6.37.44-4.07-.31-8.37.63-12.28,3.33-13.9,6.91-27.76,10.93-41.48,1.75-6,5.38-11.4,7-17.39.91-3.37.16-7.65-1.15-11s-3.74-5.83-1.84-9.68c.37-.75-.26-2.13-.67-3.13-2.65-6.39-1.8-8.36,5.39-10.37q-4-17.49-8.13-35.06l-1.93-.26-3.09,4.93c-1.71-6.64-.36-8.86,8.22-10.47,7.8-1.46,11.71-1.24,12.06,7q-1.35-2.7-2.71-5.4l-1.49,1.3V100.4l2.83-.62c4.92-1,6.8.39,6.27,5.23-.37,3.39-1.71,6.72.68,9.91a1.55,1.55,0,0,1,0,1.45c-4.08,5.8-2.51,12.88-4.32,19.83l6.76-1.28c-2.7,6.69-5.33,13-7.83,19.39-4.92,12.51-9.83,25-14.57,37.59-.72,1.92-.46,4.2-.78,7.65,2.53-1.76,4.17-2.71,5.59-3.93,4.68-4,9.39-8,13.87-12.22,1.86-1.76,3-4.24,4.77-6.13s3.93-3.58,6.37-5.75c-5.29-11,4.75-13.82,11.22-18.07-1.78-6.54-3.47-12.72-5.15-18.91l1.51-.67c5.22,7.2,11.58,12.28,20.06,12.16-3.77-11.37-8.33-22.45-11-34-2.86-12.35-2.82-25,1.32-37.41,2.08-6.24,2.3-13.08,3.64-19.59,2.85-13.81,9.76-25.81,17.73-37.14,2-2.9,5.8-4.84,9.11-6.53,7.79-3.94,15.78-7.47,23.69-11.16l1,1.71L188.91,8l3.71,1.53c-.21.43-.3,1-.64,1.24q-6,3.58-12,7.06c-5.36,3.05-5.4,4.7-.17,8.27a11.77,11.77,0,0,1,1.49,1.67L175,32.63l6,3.46c-9.05,1-14.47,6.5-19.17,13.1-6.78,9.53-9.75,20.32-10.53,31.82a5.48,5.48,0,0,0,.83,3.33c6.19,8.56,5.27,19.1,7.92,28.63,1.24,4.46-.2,9.61.53,14.3,1,6.6,3.57,12.43,11,14.71,2.66.82,4.71,3,3.32,6.57l-6.84-5-1.16,1c1.11,3,2.22,6,3.31,8.88-3.36-3.28-6.89-6.33-9.91-9.84a13,13,0,0,1-2.38-6.13c-.74-4.32,0-9.07-6.49-10-2-.3-3.64-3-6.33-5.43,3.93,10.56,5,21.5,15.62,27.29-6.07,6.66-6.18,7.68-1.36,13.29-4,1.14-8.14,2.24-7.15,8.65,2.31-1.07,4.25-1.8,6-2.83,4.29-2.48,8.32-5.51,12.79-7.57,9.55-4.41,18.37.87,19.46,11.34.28,2.65.15,5.34.48,8,.39,3.22,2.17,4.67,5.57,3.88a12.54,12.54,0,0,1,4.82-.36c5.3.92,6.45.11,6.83-5.37.19-2.66.15-5.35.59-8,1.44-8.44,9.75-13.41,17.64-10.08,5,2.11,9.46,5.38,14.21,8.06,1.8,1,3.72,1.84,6.1,3,1-6.45-3-7.64-7.07-8.66,5.15-6.35,5-8-1.8-13,10.66-6,12.36-16.75,15.37-26.58-3.07,1.79-6.64,3-8.75,5.4-1.94,2.25-2.3,5.86-3.37,8.87-.74,2.09-1,4.59-2.35,6.16-3.05,3.54-6.62,6.63-10,9.9,1.06-2.8,2.19-5.77,3.31-8.75l-1.17-1.1-6.84,5c-1.42-3.16.3-5.35,2.77-6.27,11.14-4.16,12-13.46,12.24-23.26.25-11.32,1.86-22.35,6.72-32.77a16.14,16.14,0,0,0,1.5-8.07c-1.47-14.32-6-27.41-17.65-36.75-3.11-2.48-7.32-3.58-11.5-5.54l5.63-3-5.66-4.82c.12-.57.07-1,.27-1.19,6.55-4.74,6.41-5.93-1-9.9-3.37-1.81-6.64-3.81-9.95-5.74-.42-.25-.79-.59-1.72-1.28L210.27,8l-7.85-5.78.64-1.29a169.28,169.28,0,0,1,23.34,9.64C239.73,17.33,244.8,30,249.68,42.3a157.47,157.47,0,0,1,10.84,53.41c.52,17-4.88,32.76-12.85,47.66-.36.69-.63,1.43-1,2.23,7.6.8,11.58-1.35,22.79-11.06-1.68,6.18-3.37,12.36-5.14,18.9,6.39,4.28,16.56,7.05,11.48,17.49,2.71,3.23,4.78,5.68,6.82,8.17.3.37.33,1,.67,1.31q10.63,9.32,21.32,18.58l1.56-.66c-.54-3.45-.48-7.12-1.71-10.29-4.58-11.76-9.62-23.34-14.39-35-2.38-5.81-4.57-11.69-7.06-18.1l6,1.15c0-3.71.07-6.88,0-10a7.69,7.69,0,0,0-.83-3.22c-1.91-3.7-4.45-7.24-1.23-11.53.38-.5.1-1.59-.06-2.37-1.85-9.22-1-10.21,7.36-8.93.51-12.34,1-24.71,1.57-38.53l-5.34,4.79-.93-.59c1.54-2,2.74-5.38,4.68-5.9,5.36-1.44,11.15-.92,15.58,2.67,1.77,1.42,1.81,5,2.63,7.58l-1.18.37-2.81-5-1.51.13a169.73,169.73,0,0,0-8.26,35.26c6.47,1.83,7.39,3.9,5.09,9.79-.57,1.47-.17,3.3-.39,4.94-.28,2.08-.11,4.6-1.24,6.12-4.15,5.58-3.35,10.45-.55,16.63,3.66,8.09,5.58,17,8.06,25.6,2.66,9.26,5.39,18.53,7.53,27.92,1,4.59.63,9.48,1.21,14.19.28,2.22.75,4.93,2.18,6.38,4.55,4.62,9.57,8.78,14.49,13a24.06,24.06,0,0,0,3.82,2.24l-1.14,1.68-5,.87,28.6,28.46-.89,1.15-4.9-1.37-.88.83c5,5.58,10.06,11.13,15,16.74,3.19,3.61,6.47,7.16,9.37,11,2.29,3,1.9,5.62-3.07,6.34l17.6,31.49-5.82-.53c4.74,11.94,9.63,23.7,9.33,37.2L391,355c2.52,15,4.95,29.55,7.57,45.23l-6.93-5.12V435l-5.35-1.42c-.17.66-.35,1.27-.49,1.9-2.1,9.23-4.07,18.51-6.43,27.67-.41,1.59-2.52,2.74-4.49,3.63-3.54,13.71-6.35,27.92-18.85,37.5,1.37-2,3.24-3.82,4-6,1.69-4.95,3.81-10.05,4-15.15.24-7.68,2.07-14.38,6.74-20.43.82-1.05,1.66-2.89,1.29-3.94-1.64-4.67.52-8.27,2.3-12.29,2.54-5.72,4.35-11.77,6.41-17.71a3.49,3.49,0,0,0,.17-2.44c-3.66-6.49,0-12.22,1.76-18.14,2-6.85,3.61-13.47,2.15-21-1.13-5.83.35-12.21.89-18.32a55.15,55.15,0,0,0-2.38-21.06c-2.14-7.2-2.14-15-3.12-22.6-.2-1.59,0-3.73-1-4.63-7.78-7.37-8.58-17.8-12.26-27a37.64,37.64,0,0,0-3.71-6.23c-4-6.13-8-12.2-12-18.33-1.44-2.23-2.59-4.65-4.11-6.82-6.27-9-12.64-17.87-19-26.8-.29-.4-.5-1.14-.84-1.2-7.72-1.39-9.29-9.66-14.34-13.14-16,10-32.86,17-51.8,22.28l6.62.63C265,250.29,255.65,251,255.92,260c3.48-.25,6.67,0,9.59-.79,7.56-2,13.5-.38,16.8,5.53,7.68-.19,14.57-.65,21.43-.44,4.62.15,8,2.29,9.32,7.47.78,3,4,5.35,4.91,8.36a79.79,79.79,0,0,1,3.58,16.54c1.53,16.55,2.53,33.16,3.87,49.73.1,1.22,1.26,2.37,2,3.52,1.25,2,2.53,4,3.79,6L329.77,357l-3.43-2.24c-.4.47-.94.8-1,1.17-.55,6.2,4.45,14.46,10.25,17,3.52,1.56,4.48,3.25,4.75,8.65l-4.06-.82c.85,5,9.23,10.51-1.17,13.81,1.21,6,9,16.47,15.42,20.43.87-1.49,1.73-3,2.6-4.44,1.47,4.62,1.11,5.17-2.52,7.25a76.92,76.92,0,0,0-9.23,6.28c-2.42,1.91-4.33,1.9-6.62-.57l4.75-1.05c-2.25-5.28-4.34-10.2-6.44-15.12l-.83-.09c-.35,2.79-.71,5.58-1,8.36-1.8,15-3.94,30-5.25,45.12-.59,6.85.44,13.84.76,20.76.06,1.25.25,2.49.46,4.55l-8.14-4.79c-.11,2.16-.67,3.77-.16,4.86,2.71,5.75,4.78,12.17,8.83,16.85,4.88,5.65,3.5,12.27,5,18.36.33,1.41-3.51,3.82-5.43,5.77l-1.76-.4q4.11,12.28,8.24,24.58l1.82.1,3.11-4.69c2.22,4.26,1.3,6.71-3.24,8.16-4.27,1.37-8.48,3-12.82,4-1.59.39-3.5-.51-5.56-1.58,5.46-.93,5.71-4.18,5.22-8.25-.87-7.26-1.41-14.57-2.08-21.8-7.65-2.27-7.76-2.37-7.9-10.64,0-2.15.24-4.31.39-6.46.36-5.14,4.5-9.49,2.23-15.36-1.82-4.68-2.12-9.95-4.05-15-1.34,7.3-2.06,14.78-4.16,21.85-4,13.53-8.5,27-13.36,40.2-5.61,15.28-18.45,23.42-31.78,31.07-15.36,8.82-32.09,13.61-49,18.1C210.16,591.63,208.45,594.82,206.38,596.88ZM131.46,452.34l1.79-.26a32.63,32.63,0,0,0,3.62,4.57c7.16,6.38,13.86,13.53,21.84,18.69,9.19,5.93,16.94,4.23,23.86-4.26,3.44-4.22,5.49-9.73,7.53-14.91,2.47-6.3,5.26-12.73,6.15-19.34,2.59-19.2-2.07-37.42-10.1-54.73a102.51,102.51,0,0,0-11.71-19.54c-4.91-6.33-12.87-7.58-19.84-3.61A39.65,39.65,0,0,0,144.18,368c-7,8.44-13.44,17.4-20.44,25.87-1.82,2.2-5.57,5.18-7.22,4.56-2.47-.93-5.09-4.54-5.48-7.32a150.68,150.68,0,0,1-1.28-22.78c.09-8.15,1.09-16.28,1.39-24.43.07-2.14-1-4.33-1.54-6.5l-1.52.18a18.13,18.13,0,0,0-1.38,3.54c-2,12.66-5,25.26-5.72,38-1.16,20.77-1.5,41.63-1,62.42.8,30.8,8.81,59.86,24.61,86.49,5.37,9,11.13,18.61,21,22.89,13.83,6,28.34,10.44,42.74,15,4.88,1.55,8.35-3.26,6.23-8-1.87-4.25-5.54-6.06-10.07-5.93-7.63.23-14.33-2.26-20.58-6.45a20.11,20.11,0,0,0-6.74-3.09c-14.15-3-19.14-12-16.78-23a18.33,18.33,0,0,0-4.62-17.14c-2.71-2.92-5-6.22-7.43-9.41-6.92-9.15-6.34-19.74-6.42-30.83l8.31,2.37C130.71,460,131.09,456.17,131.46,452.34Zm159.4-114.87-1.72,0c-.45,2.41-1.39,4.84-1.28,7.23.52,11.14,1.77,22.26,1.87,33.4a49.54,49.54,0,0,1-3,16.52c-2,5.61-6,5.9-9.83,1.36-2.6-3-4.82-6.39-7.32-9.5-6.37-7.91-12.42-16.13-19.33-23.54s-15-8.26-22.55-3.07a28.37,28.37,0,0,0-8.67,9.47c-10.24,18.95-17.65,38.86-16.85,60.84.22,6.05,1.68,12.15,3.26,18A96.31,96.31,0,0,0,211,462.66c6.41,14.32,17.32,20.66,30.94,11.86,7.55-4.89,13.7-12,20.41-18.13A40.74,40.74,0,0,0,266,452l1.45.27c.45,3.92.89,7.83,1.37,12.09l8.55-2.5c-.38,6.22-.56,11.65-1.09,17.05-.95,9.76-7.47,16.55-13.32,23.53-4.09,4.89-5.25,10.22-4.56,16.26.12,1,.22,2,.39,3,1.28,7.63-1.42,13.6-8.14,17.22-3.87,2.08-8.68,2.52-12.38,4.8-8.09,5-16.22,8.73-26.12,8.38-4.95-.17-9,5.38-8.32,9.5.67,4,3.91,5.48,10.06,3.62,11-3.32,21.83-7.05,32.67-10.78,7.94-2.74,14.17-7.89,19.36-14.44,16.67-21.05,25.33-45.52,30.26-71.48C301,442.92,300,417,298.91,391.24c-.68-16.54-4.18-33-6.5-49.45A22.37,22.37,0,0,0,290.86,337.47ZM186.72,171.71l-1.54-1.46c-2.92,7.61-9,9.84-16.08,11.11-5.85,1.07-11.72-.06-17.79,2-3.76,1.28-5.9,2.14-7.18,5.61a16.74,16.74,0,0,1-2,2.82l-2.65-9.58h-9.72c-3.18,2.53-7.43,3.21-10.28,5.57-7.37,6.12-14.12,13-21.09,19.53,7,7.79,20.09,11.05,38.65,9.63-1-2.75-1.27-6.11-3-7.39a42.07,42.07,0,0,0-12.23-6c-2-.61-5,.42-6.84,1.74-1.17.85-1,3.58-1.35,5.34-4.06-4-4.08-8.89,1.34-11.9A46.56,46.56,0,0,1,130.33,194c5.17-.79,10.54-.17,15.91-.17.36-1.55.71-3.06,1.12-4.8,3.1,3,5.46,6.39,8.7,8.17,11.46,6.26,23.41,11.26,36.93,10.69,6.56-.28,13.19.16,19.7-.59,14.55-1.66,28.28-5.45,37.86-17.87.12-.15.62,0,1.27,0,.3,1.48.62,3,1,4.66,6.68,0,13.28-.8,19.56.26A31.57,31.57,0,0,1,286,200.61c4.12,3.25,3.3,6.51-1,10.21.69-5.25-1-7.71-6.07-7.56-5.47.16-10.66,1.84-14.12,6.34-1.48,1.92-1.8,4.75-2.8,7.6,14.57.4,27.58.22,38.11-8.7-4.68-5-8.8-9.82-13.33-14.18-3.58-3.46-6.57-8-12.62-7.95-1.12,0-2.24-1.77-3.43-2.63a6.23,6.23,0,0,0-2.71-1.5c-2.7-.21-5.42-.08-8.57-.08-.77,2.85-1.6,5.9-2.43,9l-1.24,1c-.72-10.79-9.76-9.87-15.22-10.28-10.62-.78-20.94,0-27.76-10.63a36.75,36.75,0,0,0,5.82,8.83c2.14,2.53,5,4.62,6.52,7.44,1,1.78.91,5.13-.21,6.7-.82,1.17-4.42,1.38-6.19.63-3.09-1.3-5.29-.79-7.82,1-9,6.46-13.69,6.24-23.16,0-1.83-1.2-4.77-.74-7.2-1s-6,.33-6.64-.84c-1-1.81-.86-5.25.25-7.16,1.71-2.93,4.77-5,7-7.69C183.21,176.85,184.89,174.22,186.72,171.71ZM156,237.27l-2.22,1c-1.35-.91-2.73-1.79-4-2.76-2-1.46-3.83-3.25-6-4.35-.83-.42-3.48.59-3.51,1.08-.39,5.13-.42,10.28-.48,15.43,0,.41.54.81.8,1.23,1.82,3,3.48,6.05,5.52,8.86.66.92,2.54,1.87,3.43,1.56,12.91-4.51,25.13-1.3,36.83,3.83,9,4,17.28,4,26.34.05,11.69-5.13,23.91-8.41,36.81-3.88.86.3,2.89-.17,3-.55,1.16-6,10.08-9.28,5.93-17.11-.36-.68.53-1.92.45-2.88-.21-2.63-.63-5.25-1-7.87-2.34,1-4.76,1.9-7,3.13-1.12.62-1.76,2-2.83,2.78a15.67,15.67,0,0,1-3.42,1.3c1.25-4.78,3.21-8.84,3.12-12.86s-2.25-7.84-3.64-12.19c3,.34,6.17,1.27,6.54.63,1.78-3.15,4.53-7.22,3.71-10-1.11-3.83-5.19-1.24-8.1-.29-7.08,2.3-14.21,4.44-21.29,6.73-4.41,1.42-9,2.53-13.08,4.63-6.42,3.3-8.42,13.07-4.52,19.2,2.1,3.3,4.32,2.92,6.12,0a37.22,37.22,0,0,0,3.09-7.31c2.47-7.12,14.15-16.16,21.56-16.64,2.37-.15,4.49.53,3.58,3.18-1.6,4.62.29,8.76.62,13.13.27,3.41-1.68,7-2.84,10.48-.35,1-1.8,1.76-2,2.78-.83,4-3.07,6-7.17,6.24-3.52.22-7.15,1.59-10.49,1-2.94-.5-4.59-.19-6.39,2-7,8.73-20.63,8.68-27.79.2-1.11-1.32-3.55-2.88-4.78-2.48-5.46,1.73-10.2-1.49-15.34-1.67-1.11,0-2.28-2.07-3.18-3.36s-1-3-2.06-3.87c-4.56-4-4.37-8.83-3.15-14.19a27.26,27.26,0,0,0,.26-9.15c-.41-3.38.68-5.3,3.91-4.19,9.2,3.13,18.34,6.53,21.51,17.32a25.21,25.21,0,0,0,3,6.78c1.79,2.71,3.91,2.73,5.84-.2,4-6,2-15.82-4.33-19.28a58,58,0,0,0-10.16-4c-8.5-2.74-17-5.41-25.61-7.86-2.06-.59-4.4-.21-6.61-.27,0,2.2-.34,4.5.18,6.58,1.2,4.88,4.61,5.75,10.32,3C152.4,221.43,147.56,229.48,156,237.27ZM89.52,284.8c-4.82,24.67-6.13,50.07-.09,75.67l-1.35.07-2.2-2.73-6.4,14.95h8.69c6.38-28.59,12.65-56.72,19-85.16Zm202.32,2.74,19,85.15h8.79c-2.36-5.34-4.38-9.91-6.59-14.89l-2.15,2.79-1.33-.22c6.13-25.63,4.77-51.07-.08-75.46ZM90.65,186.34l21.29-47.06C100.6,141.92,86.61,172.84,90.65,186.34Zm218,.79a19.26,19.26,0,0,0,.54-3.14c-.49-14.76-5.56-28-14-39.92-1.72-2.43-5-3.74-7.58-5.57l-.55.88C294.17,155,301.22,170.6,308.68,187.13ZM82.86,429.32l.91,0C84.83,418,85.88,406.71,87,395H76.14c1.91,10.44,3.74,20.52,5.62,30.6A38,38,0,0,0,82.86,429.32Zm232.35-.2,1.5.33c2-11.39,4-22.79,6.05-34.32H312C313.11,406.77,314.16,417.94,315.21,429.12ZM233.4,263.81l-.68-2a41,41,0,0,0-4.56.81c-8.6,2.54-17.17,5.24-25.8,7.67a11.31,11.31,0,0,1-5.72,0c-5-1.35-9.81-3.16-14.76-4.61-5.12-1.51-10.31-2.8-15.48-4.19l-.67,1.73A35.28,35.28,0,0,0,171,266c9.15,2.94,18.34,5.75,27.54,8.53a4.37,4.37,0,0,0,2.3-.21c5.88-1.7,11.78-3.35,17.61-5.22C223.5,267.44,228.43,265.57,233.4,263.81Zm81.06,27.85-1.63.29c1.88,20.9,4.95,41.78,1.48,63.18,1.6-.68,3.14-1.57,3.55-2.83a21.38,21.38,0,0,0,1.19-7.33c-.37-10.12-.78-20.24-1.62-30.33C316.79,307,315.47,299.32,314.46,291.66Zm-229.12-.07a25.79,25.79,0,0,0-1.4,4.51c-1.44,11.71-3.14,23.4-4,35.15-.48,6.57.3,13.26.93,19.86.15,1.54,2,2.92,3.12,4.38l1.33-1C81.08,333.55,84.5,312.66,85.34,291.59Zm31.45-104.8c-13.93,8.53-25.41,19.81-36.91,31.07l1.61,1.81C94.77,210.42,104.47,197.13,116.79,186.79Zm166.44-1.17c-.35.48-.71.95-1.06,1.42,10.49,10.14,20.95,20.33,31.54,30.37,1.11,1.05,3,1.24,4.57,1.83l1.19-1.77ZM148.66,76.35l13.17-37.79C151.84,49.82,149.31,62.76,148.66,76.35Zm88.49-37.79c4.61,13.19,8.9,25.45,13.18,37.71C249.53,62.78,247.23,49.83,237.15,38.56Zm-37.52,251.6,5.7-10.19H193.27Zm60.8-67.49c-2.43-2.22.61-7.17-4.53-6.65-1.1.11-3.07,2.83-2.78,3.37,1.19,2.25,3.09,4.13,4.73,6.14Zm-122.32-.37c1.34,1.55,2.06,2.4,2.78,3.24a53.31,53.31,0,0,0,5-6.39c.23-.38-2-2.18-3-3.32C141.38,217.88,139.87,219.93,138.11,222.3Zm-36.88,45.8c4,4,10.37,3.86,13.56,0ZM283.71,268c4.33,4.34,11.6,4.05,14.57,0Zm39.64,259.1c-1.34,9.53,1.06,19.32,4.79,20.64C326.62,541.16,325.13,534.72,323.35,527.05Zm-248,1.11q-2.25,10-4.51,20l1.26.28A30.77,30.77,0,0,0,75.36,528.16Zm-5.51-3.88,4.45-12.63c-4.66,1.49-6.15,4.55-6.49,8.05C67.68,521,69,522.52,69.85,524.28Zm256.7-12.9-1.63,1.15,4.48,12.17c.78-2.4,2.13-4.31,1.67-5.55C330,516.38,328.12,514,326.55,511.38ZM105.35,133.06l3-.12v-6c-1.12.21-3.19.32-3.22.65A31.23,31.23,0,0,0,105.35,133.06Zm185.31-.14,3,.13a31.23,31.23,0,0,0,.22-5.45c0-.33-2.1-.42-3.23-.62Zm-1.13-21,2.8-.59L290.71,104l-2.56.52Zm-182.78-.51,1.66.3c3-2.24,3.41-4.69,1.42-7.33l-1.76-.21Zm193-48.38-.93,9.17C301.75,69.37,303.51,66.44,299.77,63.05ZM99.05,63c-3.29,3.62-2.06,6.58,1.2,9.23Z" transform="translate(-0.42 -0.23)"/><path d="M199.54,146.86c-6.84,4.51-9.95,3.47-13-3.92a10.79,10.79,0,0,0-3.36-4.74c-.91-.62-3.66-.17-4.3.72-2,2.75-4.26,2.92-6.35,1.05-3.59-3.19-6.76-6.86-10.1-10.33l1.23-1.66,10.87,3.33,1.21-1.17-8-13.64c4.4-3.22,4.4-7.16-.57-11.36l-4.94,5.36c-3.87-11.29,6.69-28.85,18.07-29-.88,2.52-1.38,4.9-2.48,6.95a26.14,26.14,0,0,0-2.26,20.74c.48,1.58,1.21,3.48.75,4.88-2.45,7.45,2.1,12.29,5.87,17.62a103,103,0,0,1,6.78,11.53c2.3,4.33,5.42,4.19,10.51-.92.77.74,1.53,1.5,2.34,2.22,3.34,3,6.24,2.14,8.41-1.59,3.47-6,7.52-11.68,11.07-17.66a15.33,15.33,0,0,0,1.65-6c.36-3.27-.24-6.74.58-9.86a27.35,27.35,0,0,0-2.23-20.77,52.24,52.24,0,0,1-2.56-6.92c11-.57,21.54,16.61,18.2,28.87l-6.06-6.53c-1.39,3.92-2.45,6.93-3.52,9.94l4.22,2.17c-2.86,4.78-5.59,9.33-8.32,13.87l1.17,1.28L236,127.71c-1.95,6-4.81,10.19-9.74,12.37-1.49.65-4.72.27-5.45-.79-2.45-3.62-4.38-2-6.32,0a12.3,12.3,0,0,0-2.11,3.91C209.55,150.26,206.14,151.32,199.54,146.86Z" transform="translate(-0.42 -0.23)"/><path d="M183.12,153.86h33.34c-2.34,5.51-8.42,6.2-11.71,10.58-3.46-4.21-6.84-5.13-10.11-.14l-12.29-9.14Z" transform="translate(-0.42 -0.23)"/><path d="M204.07,170.62,199.39,175c-1-1.8-2.39-3.51-2.9-5.45-.13-.51,2.36-2.41,3.61-2.38S202.3,169,204.07,170.62Z" transform="translate(-0.42 -0.23)"/><path d="M159.91,247.38c9.89,2.77,19.86,5.28,29.62,8.42a31.51,31.51,0,0,0,20,0,272,272,0,0,1,26.94-7c3.59-.74,7.58.16,11.32.74,1.11.17,2,1.82,3,2.79-1.24.84-2.45,1.73-3.75,2.49a2,2,0,0,1-1.47,0c-9.75-3.73-18.53.58-27.5,3.32-2.85.88-5.71,1.76-8.51,2.78-9.59,3.52-18.57.58-27.62-2.36a146.22,146.22,0,0,0-17.26-4.68c-2.93-.57-6.13.26-9.21.5-1.31.1-2.73.7-3.89.36s-2.17-1.58-3.23-2.42c.83-.91,1.52-2.36,2.52-2.63a86.12,86.12,0,0,1,8.8-1.56Z" transform="translate(-0.42 -0.23)"/><path d="M151.56,246.49c-6.81,1.95-8.65-.33-6.78-8.09Z" transform="translate(-0.42 -0.23)"/><path d="M253.75,238.79c1.71,8,.32,9.57-6.2,7.74Z" transform="translate(-0.42 -0.23)"/></g></svg>