<svg id="Layer_1" data-name="Layer 1" xmlns="http://www.w3.org/2000/svg" viewBox="0 0 359.94 589.8"><defs><style>path{fill:#ff3fb4;}</style></defs><title>EscarabajoCaquero</title><g id="zUvZhf"><path d="M286.81,577.6c.88,5.9-3,11.12-9.07,12.49-3.65.84-6.39-.13-7.94-5.15,4.86,3.69,7.8,1.36,10.45-1.67,2.49-2.86,4.36-5.66,1.76-9.77-2.36-3.73-.3-7.35,1.68-10.73,1.76-3,4.08-5.88,5-9.14,1.13-3.84,2.23-8.37,1.23-12-1.63-5.92-.15-11.53-.48-17.21-.36-6,2.2-12.1-.91-18.17-1.58-3.08-1.51-7-2.35-11.42l-8.31,7.31-1.32-.89c.74-1.82,1.19-3.85,2.29-5.42,4.08-5.76,5.59-12.36,6.32-19.13.52-4.79-.55-5.48-5.61-5.22L281,457.14l-4,.84c.71-2.49.93-4.61,1.89-6.31,1.85-3.28,1.86-5.62-2.08-6.52-.94-9.06,7.12-13.89,8.91-21.68L281.83,426c2-7.57.52-16.06,8-21.73l-1.24-.72-8.71,1c-.67,12.26-5.35,23.32-9.86,34.68-3.47,8.75-3.51,18.85-5.19,28.33-2,11.11-3.34,22.34-9.52,32.31-6.07,9.8-15.17,15.07-25.53,19-6.37,2.41-12.47,5.53-18.87,7.83s-13.3,4-19.94,6.09c-5,1.53-7.53-.67-8.71-5.33a33.22,33.22,0,0,0-1.54-3.86A7.48,7.48,0,0,0,179.6,525c-3.08,8.91-1.78,9-13.42,7.1a19.91,19.91,0,0,1-4.38-1c-14.82-6.3-30-12-44.27-19.29-9.5-4.86-15-14.27-17.23-24.72-2.52-11.85-3.81-24-6.15-35.86-1.14-5.8-3.45-11.37-5.23-17-3.07-9.77-6.15-19.53-9.4-29.85l-8.69-1.11c7.19,6.76,6.51,15,9.54,22.21l-1.19.59-3.85-2.54-.8.55,11.4,20.14c-10.17,3.81-.43,8.93-2.65,13.46l-3.26-.4c.48,4.89.93,9.56,1.39,14.22-5.49-.26-7.33,2.1-5.35,8.16s4.67,11.55,7,17.35a37,37,0,0,1,1.19,4.46l-1.11.73-7.89-6.95a57.07,57.07,0,0,1-2.28,7.09c-2.93,6.18-.55,12.86-2,19.15a8.09,8.09,0,0,0,.35,2.92c.92,5.75,1.71,11.35-.35,17.2-2.56,7.22,1.36,13.34,5,19.13,3,4.83,5.55,9.09,2.3,15.19-.91,1.7,1.82,5.91,3.67,8.38,2.1,2.79,5.18,4.39,8.9,1-1.08,4.76-3.82,5.71-7.45,4.9-6-1.34-10-6.59-9.12-12.32-7.81-2.3-9.42-8.45-9.07-15.61.22-4.32,1-8.63,1-12.94,0-7.77-2.24-15.57.79-23.29.39-1-.56-2.5-.76-3.79-.48-3.12-.71-6.3-1.34-9.39-1.28-6.16,1.67-12.23-.15-18.59-.78-2.73,1.6-6.37,2.73-10.24A18.83,18.83,0,0,0,64,486.3c-2.73,3-4.54,1.92-5-1.4A98.15,98.15,0,0,1,58.7,473c-.07-12.95-.23-25.9-.11-38.84.08-9,.11-18,1.06-26.89.4-3.69,3.13-7.14,4.82-10.68a10.76,10.76,0,0,0,1.32-2.53c1.4-9.12,7-14.21,16.21-16.84-.41-7.92-.86-16-1.22-24.15-.32-7.14-.12-14.33-1-21.39-.37-2.95-2.92-5.62-4.48-8.4-.87.58-1.35.75-1.35.92,0,9.86-3.39,18.78-6.71,27.9-2.87,7.9-4.46,16.36-5.71,24.71-.47,3.16,1.62,6.71,3,11.75l-7.46-5c-.17,1.39-.25,2.63-.49,3.84-.2,1-.48,2.64-.9,2.69-7.53,1-4.87,8.61-8.06,12.41-6.26,7.43-8.55,17.15-13.92,25-5.1,7.49-7.43,15-5.06,24,.53,2,.32,5.34-.94,6.39-3.69,3.07-3.61,6.56-1.49,9.72,1.72,2.58,4.83,4.23,7.69,6.59-1.75,2.83-5.26,2.66-8.66.66-5.25-3.09-6.43-9.05-3.33-14.7-6.63-8.65-6.27-16,1.51-24.94A23.73,23.73,0,0,0,29,422c.44-3.34,3.55-6.3,5.37-9.48a39,39,0,0,0,2.13-4.7c.23-.58-.07-1.61.28-1.86,6.85-4.91,4.21-13.89,8.56-20,1.28-1.79.41-5.11.59-8.88l-4.73,3.09a17.64,17.64,0,0,1,6-12.67c3.8-3.43,5.31-7.74,5.29-14l-5.82,5.17c1-3.42,1-6.14,2.41-7.64,6.5-7.1,9.79-15.76,12.8-24.61,1.64-4.85,3.85-9.22,8.72-11.64.58-.29,1.31-.76,1.48-1.3,1.86-5.75,5.59-6.85,11.16-5.38,2.38.63,3.69-1.19,2-3.76-3.85-5.81-3.05-11.76-1.42-18.2,1.44-5.66,1.48-11.71,1.9-17.6.29-4-2.16-4.73-5.73-4.73-9.38,0-15.64-3.54-17.66-10.93-1-3.63.33-7.89.68-13.1.6,1,.47.53.27.49-9.52-1.59-12.8-8.45-14.43-16.83a29.61,29.61,0,0,0-9.59-16.56c-1.55-1.41-2.85-3.08-4.66-5.08l6.94-3.9c2.47,1.79,4.32,2.93,5.91,4.36,1.39,1.27,3,2.69,3.59,4.36,1.26,3.41,1.67,7.15,2.94,10.55,1,2.57,2.73,4.83,4.41,7.69,7.26-9.57,7.85-25.4,1.36-34.58V205.7l-1.94.15c-.09-2.85-.23-5.69-.27-8.54s0-5.89,0-8.83l-2.25-.1c-.36,5.88-.71,11.76-1.13,18.76-1.18-4.81-2.19-8.65-3-12.53-.76-3.42-2.7-5-6.24-4.48-.42.07-1.17.44-1.2.38-4.13-8.31-11.85-3.4-17.82-4.87-.15,0-.28-.18-1.05-.7.89-4.36,3.29-8,7.6-9.64,5.38-2.07,7.9-5.39,8-11.23.06-4.45,1.41-8.87,1.64-13.33.25-5-3-7.11-8-6.9a44.93,44.93,0,0,1-12.51-1.17c-4.51-1.11-8.13-.77-11.34,2.77-2.62,2.89-5.6,5.18-9.61,4.28,2.65-3,5.43-5.87,7.89-9,7.1-9,16.79-13.3,27.7-15.52,5.38-1.1,10.16-3.25,12.42-8.83.3-.73.82-1.58.65-2.24-1.18-4.84-3.41-9.61-3.58-14.47-.24-6.75-3.15-12.34-5.43-18.3a4.18,4.18,0,0,1-.15-2.94c2.86-5.49-.53-10.14-1.68-15.15C35.37,50.13,35,37.22,42.19,25c.57-1,.15-2.84-.34-4.08C38,11.18,41.07,5.8,51.24,4.49A12.75,12.75,0,0,0,56,2.38C61-.76,65.5.31,67.81,4.4c-3.88,1.43-8.63,2-11.68,4.62s-4.8,7.26-6.86,11.14A3.4,3.4,0,0,0,50,23.21c4.25,4.15,4,8.91,2.07,13.87-1,2.8-2.31,5.53-3.62,8.21-3.56,7.27-4.26,15-3.59,22.9.13,1.48,1.35,2.89,2.15,4.29.88,1.56,2.81,3.2,2.63,4.59C48.6,85.22,52.1,92.43,53.86,100a12.3,12.3,0,0,0,.61,2.37c1.53,3.49,3.12,6.94,4.93,10.91a16.58,16.58,0,0,0,2.23-1.51c3.15-2.68,6.36-2.18,8,1.17,3.82,8,7,16.26,10.59,24.74-3.75-2.61-6.77-5.13-10.19-6.88-1.26-.64-3.45.54-5.22.88.71,1.31,1.16,2.88,2.18,3.86,2.44,2.35,2.55,2.24-.69,7.35,2.83,6.09,10.9,8.42,10.2,17-1-.85-1.94-2.12-3.12-2.48a55.41,55.41,0,0,0-7.1-1.23c-.31,2.58-1.63,5.63-.69,7.61,1.26,2.65,4.3,4.45,6.53,6.65.68.66,1.23,1.44,2.29,2.7L69.5,175.6c1.59,1.06,3.34,1.79,4.43,3.07s1.73,3.28,2.56,5c-1.88.36-3.74.75-5.63,1.06a6.3,6.3,0,0,1-1.7-.32c-.82,4.5,0,8.34,3.55,11.2,2.65,2.1,2.62,3.76,0,6-3.69,3.16-4.27,14.61-1.18,18.56,4.45,5.67,4.3,6.36-2,10.46-.67.43-1.54.91-1.78,1.57a2.61,2.61,0,0,0,.59,2,4,4,0,0,0,2.53-.75c8.72-8.35,8.7-8.36,17.3.35,1.86,1.88,3.76,3.74,6.06,6a25.83,25.83,0,0,0,3.67-3c6.78-7.77,14-15.25,20-23.53,7.37-10,15.58-18.58,27.34-23.33,1.32-.53,2.31-2.75,2.74-4.37.68-2.54.53-5.28,1.11-7.86a7.42,7.42,0,0,0-6.14-9.27c-2.46-.44-4.92-.85-7.4-1.17-4.68-.59-7.86-3.21-10.3-7.08-3.26-5.17-3.13-17.62,1.2-22.63,1.31,7.08,2.76,13.36,3.54,19.73.45,3.7,2.43,5.74,7.62,5.93,1.49.06,3-.33,4.48-.14a16.36,16.36,0,0,1,3.64,1.38c3.47-3.14,3.47-3.14,10.24.65.27-.79-1.38-4.55-3.87-8.71-1.79-3-3.61-6-5.5-9.06,6.83,2.74,15.89,13.7,13.09,21.15a31,31,0,0,0-2.09,15.89c.37,2.39-.93,5.15-1.92,7.56-.32.78-2,1.24-3.16,1.39-2.76.37-5.87-.23-8.3.81-8.77,3.74-15.28,10.17-21.19,17.69-8.32,10.56-17.45,20.49-26.44,30.51-6.8,7.59-9.07,16.16-7.94,26.26a41.54,41.54,0,0,1-1.21,16.09c-4.8,16.27,1.06,22.72,18,21.52,9.22-.66,18.76,1.77,28,3.52,5.84,1.1,11.31,4.12,17.15,5.19,6.82,1.26,13.19,5.62,21,.6,5.81-3.73,13.51-2.74,20,.84,3.87,2.12,7.27,3.31,11.4-.16,1.84-1.55,5.42-.93,8.17-1.53,13.77-3,27.48-6.36,41.31-9.06,4.62-.9,9.65.39,14.29-.44,6.2-1.11,8.18-4.25,8.28-10.63a9.3,9.3,0,0,0-.15-3.47c-3.93-9.73-3.36-19.72-2.61-29.92.6-8.08-4.08-14.24-9.49-20.08-8.7-9.39-17.14-19.06-24.95-29.19-6-7.71-12.66-14.17-21.62-17.92-2.3-1-5.25-.28-7.85-.67-1.23-.18-3-.84-3.4-1.75-1-2.4-2.14-5.21-1.73-7.6.89-5.29-.47-10-1.86-14.94a13.41,13.41,0,0,1,3.82-14.16c2.78-2.68,5.33-5.6,8-8.41l1.15.89L203,165c4.92.42,7.92-7.58,11.28-1,3.11-.26,5.8-.62,8.49-.7,6.36-.17,7.24-1.7,7.85-7.87.55-5.66,2.61-11.17,4.15-17.33,1,.91,2,1.42,2.18,2.12,2.5,11.55,1.94,26.29-14.93,27.79-2.57.23-5.62.52-7.48,2-2.67,2.12-2.69,5.29-2.63,9.12.12,8.19,4.07,11.49,10.8,14.58,9,4.12,14.78,12.11,20.53,20,4.9,6.71,10.41,13,15.84,19.29a92.27,92.27,0,0,0,7.36,6.89c3.91-3.67,7.39-7.21,11.15-10.41,4.28-3.64,6.92-3.25,10.44,1.07a17.85,17.85,0,0,0,1.5,2,10.93,10.93,0,0,0,2.64,1.85c.19.1,1.32-1,1.24-1.19a9,9,0,0,0-1.93-2.55c-.87-.75-2.09-1.08-2.95-1.83-2.52-2.18-3.05-4.56-.67-7.33,4.95-5.75,4.63-15-.19-20.66-.77-.9-.57-3.94.31-4.71a12.3,12.3,0,0,0,4.18-10.61l-7.64-1.79,5.79-8.63-3.84-1.91c1.57-1.56,2.73-2.77,3.95-3.93a41.28,41.28,0,0,0,4.38-4.06c2.26-2.88,3.12-6.23-.08-8.89-3-2.45-5.56-.78-7.76,1.72a4,4,0,0,1-2.87,1.29c-.1-7.75,7.54-10.48,10.84-16.48-2.29-2.64-5.06-5.77.69-8.42.5-.22.7-2.7.29-3-1.12-.71-3-1.51-3.94-1-3.7,2-7.14,4.42-10.6,6.64a15.43,15.43,0,0,1,.66-2.65c2.54-6.3,5-12.64,7.75-18.86s4.69-6.37,11.88-2.38c3.15-7.81,6.38-15.66,9.43-23.59.44-1.14.07-2.62,0-3.93-.41-5.2-.87-10.3,3.81-14.27,1-.88,1.29-3,1.37-4.59.39-8.27-.76-16.21-4.8-23.67a36.78,36.78,0,0,1-3.54-10.32c-.41-2.11-.19-5.09,1.06-6.61,2.91-3.56,3.5-6.54.95-10.59-2-3.23-3.2-6.74-7.54-8-3.15-.91-5.64-4.69-9.73-.94,1.88-5.91,6.8-7.4,11.87-4.57a24.9,24.9,0,0,0,7.17,2.66c7.35,1.45,11.21,6.86,8.46,13.33-1.74,4.08-1.08,7,.64,10.91,5.42,12.43,4.91,25.32.63,38.05a17.37,17.37,0,0,0-.94,9.4c.66,3.64-1.58,7.82-2.6,11.76-.56,2.18-1.22,4.33-1.82,6.5-.69,2.49-1.56,5-2,7.49-.79,4.57-2.38,9.35-1.69,13.73.76,4.78,5.28,7.37,10,8.67,3.37.92,6.77,1.72,10.13,2.67,8.85,2.5,15.7,7.78,21.22,15,1.93,2.54,4.31,4.74,6.77,7.41-3.33.95-6.43-.62-8.55-3.15-4.29-5.12-9-5.25-14.77-3a19.12,19.12,0,0,1-9.17.59c-6.25-.89-9.47,1.32-9.05,7.58a85.62,85.62,0,0,0,2.54,17.22c.66,2.35,3.72,4.5,6.18,5.76,4.44,2.28,7.1,5.56,9.07,11.09H326.18c-1.49,0-3.58-.55-4.38.21-2.8,2.67-6.86,3.26-9.4,5.29-2.71,2.16-3.14,7.22-4.45,11.06a18.54,18.54,0,0,1-1.17,3.78q-.55-8.88-1.12-17.74l-2.32.11v17.37h-1.85V191.22l-1.67-.14c-.36,4.43-6.19,7.54-2.26,13.1.64.9.46,2.7.1,3.91-1.73,5.85.39,10.73,4.41,16.75,1.81-2.67,3.77-4.72,4.72-7.15,1.33-3.38,1.47-7.25,2.95-10.54.94-2.07,3.42-3.42,5.14-5.16,1.17-1.19,2.21-2.5,3.82-4.35l7.61,4a29.93,29.93,0,0,1-3.14,3.81,34.26,34.26,0,0,0-11.57,19.88c-1.57,7.82-5.07,14.3-15.67,14.53,4.76,7.26,4.76,13.48-.73,18.92-5.16,5.12-11.89,5.4-18.69,5.13a28.85,28.85,0,0,0,0,20.78c2.54,6.83,3.41,13.47-1,20.05-1.8,2.7.38,4,2.63,3.37,5.1-1.37,8.83-.77,10.25,5,9.66,5.12,10.88,15.27,14.64,24,1.88,4.37,5.08,8.16,7.53,12.3,1.44,2.46,2.56,5.1,3.83,7.66l-1.12.68-4.52-4.21c-.68,6,1.07,10.21,4.61,13.57a20.32,20.32,0,0,1,6.55,13.19L316.36,378c-2.48,3.48-1.95,6.47-.13,9.93,1.47,2.78,1.65,6.21,2.57,9.3a17,17,0,0,0,2,4.41c1.63,2.51,5.09,4.18,3.25,8.15-.18.38.64,1.56,1.25,1.92,5.11,3,7.18,7.09,7,13.23-.09,3,2.66,6.16,4.33,9.13s3.91,5.78,5.46,8.87c3.1,6.18,2.46,11.91-2.92,16.65,2.79,6.78,1.36,12.74-3.71,15.63a6.19,6.19,0,0,1-8.1-1.22c2.58-2.09,5.71-3.72,7.44-6.29,2.1-3.13,2.33-6.68-1.45-9.71-1.22-1-1.61-4.12-1.1-5.91,2.8-9.92.37-18.38-6.3-25.92-.76-.86-1.84-1.86-1.9-2.85-.61-10.06-9.81-15.78-12.38-24.81-.46-1.59-.91-3.19-1.43-4.76-.31-.93-.83-2.62-1.11-2.59-6,.59-4.11-4.62-5.27-7.51l-6.18,4.19-1-.77c5.91-12.82.45-24.46-3.22-36.32-2.73-8.79-5.22-17.66-7.77-26.34-2.68,2.42-4.78,5.52-4.57,11.23.39,10.6-1,21.26-1.62,31.9-.18,3.29,0,6.6,0,9.81,8.77,2.73,14.55,7.7,16,17.19.37,2.49,3.65,4.46,4.29,7a95,95,0,0,1,2.94,17.63c.37,6.28-.52,12.63-.51,18.95,0,12.61.32,25.23.44,37.85a40,40,0,0,1-.43,8.42c-.9,4.36-2.27,4.62-5.43,1.59a4.42,4.42,0,0,0-3.58-1.39c.51.88,1.09,1.72,1.53,2.63.72,1.49,2.32,3.45,1.87,4.45-2.45,5.4.86,10.8-.43,16.14-.4,1.69.35,3.62.18,5.4-.28,3-1,5.94-1.28,8.93a35.74,35.74,0,0,0,0,8.71c.66,4,2.05,7.61,0,12-1.31,2.8,0,6.85.22,10.33.2,3.82.67,7.64.62,11.46C295.76,570.73,293.73,575.76,286.81,577.6ZM279.7,331.14l-2.54-.7c-1.13,2.41-3,4.74-3.27,7.24-1.6,14.71-2.64,29.48-4.26,44.18-1.67,15.23-4.45,30.17-10.43,44.5a58.61,58.61,0,0,0-4.83,21.07c-.21,14.27-3.63,27.08-11.16,39.24-2.72,4.38-3.57,10.22-4.16,15.51-.48,4.26,2.56,5.9,6.13,3.46a33.31,33.31,0,0,0,8.82-8.57c6.57-9.86,8-21.36,9.12-32.81s2.48-22.88,8-33.64,5.68-22.68,5.59-34.61c-.09-12.92.43-25.86,1-38.77C278.11,348.52,279,339.84,279.7,331.14Zm-195.4-.66-3,.6c.64,8.67,1.51,17.32,1.87,26,.54,13.08.94,26.18,1,39.27.06,12.91,1,25.51,6.8,37.4a55.4,55.4,0,0,1,4.81,14c2.29,12.57,3.58,25.33,6.07,37.86a29.39,29.39,0,0,0,12.85,19.52c4.64,3,7.81,1.57,7.23-3.81-.55-5.12-1.7-10.69-4.35-15-7.34-11.85-11.17-24.35-10.79-38.29A45.36,45.36,0,0,0,102,425.92,69.48,69.48,0,0,1,96.51,411c-5.7-23.53-7.28-47.61-9.32-71.64C86.93,336.32,85.29,333.42,84.3,330.48Zm147.89,66.65,1.25-.21c-2.13-14.25-4.18-28.52-6.49-42.75a14.87,14.87,0,0,0-3.1-6.05,3.88,3.88,0,0,0-3.49-1.06c-.84.3-1.58,2-1.62,3.16a53.33,53.33,0,0,0,.55,7.44c2.09,18.87,3.8,37.63-.29,56.58-2.34,10.81-3,22-4.18,33-.17,1.54,1,3.23,1.58,4.84,1.56-1,3.56-1.66,4.57-3.06a39.07,39.07,0,0,0,4.18-7.88C231.08,427.07,231.85,412.13,232.19,397.13Zm-104.53-.74c1.8,12.61,2.87,24.39,5.37,35.85,1.37,6.32,5,12.17,8,18.09.48,1,2.44,1.63,3.68,1.58.58,0,1.54-2.1,1.52-3.23a146.32,146.32,0,0,0-.78-15.39c-1.9-15.64-4.94-31.21-5.79-46.9-.6-11,1.78-22.17,2.51-33.28.13-2-1.3-4.19-2-6.29-1.82,1.68-3.73,3.27-5.4,5.08a5.66,5.66,0,0,0-.87,2.83C131.74,368.82,129.66,382.92,127.66,396.39Zm124.5-87.63c-9.65,0-17.45,3.1-24.86,7.41-2.54,1.48-3.57,3.08-1.46,6s3.22,6.38,5.35,9.18c1.78,2.35,4.39,4.08,6.64,6.08,1.18-1.89,2.81-3.64,3.47-5.7,2.94-9.09,5.88-11,15.65-9.91a11.3,11.3,0,0,0,4,.14c1.66-.43,3.94-1,4.57-2.2s-.09-3.57-1-4.89C261.35,310.26,257,307.91,252.16,308.76Zm-142,.14a34.28,34.28,0,0,0-5.46.05c-4.63.73-10.88,7.05-9.57,10,2.18,4.94,6.75,3,10.46,2.51,7.33-.91,9-.24,12.25,6.27a38.54,38.54,0,0,1,2.17,6c1.23,4.12,3,4.89,6.31,2.1,1.66-1.39,2.66-3.62,3.82-5.55,1.51-2.49,2.52-5.38,4.4-7.52,2.55-2.91,2.34-4.82-.91-6.69C126.35,311.93,118.71,308.91,110.16,308.9Zm39.41,215.92c7.61,2,14,3.8,20.54,5.31,2.69.62,4.74-.82,4.72-3.67-.05-6.25.31-12.64-.88-18.7-1.33-6.77-6.16-7.75-10.53-2.37C158.84,511,154.94,517.22,149.57,524.82Zm61.86-.07c-5.46-7.66-9.49-14-14.2-19.72-4-4.89-8.74-3.93-10,2.26s-1,12.43-1.13,18.68c-.06,3.32,2.21,4.9,5.32,4.16C197.72,528.63,204,526.77,211.43,524.75ZM197.62,323.16c-5.38-1.91-10-.48-9.11,2.47,1.71,5.72-1,9.43-3.92,13.66-1.59,2.34-1.84,5.59-2.67,8.44-.31,1.09-.56,2.21-.74,2.95-3-6-6-11.73-8.72-17.59-.59-1.26-.3-2.93-.5-4.39-.27-1.93,0-4.94-1.06-5.54-1.93-1.09-4.67-.75-8.1-1.12l17.69,33.55Zm71-82.42c2.26,4,4.2,7.64,6.37,11.14.58.94,2.12,2.22,2.76,2,1.25-.43,3.08-1.79,3.1-2.79a89.74,89.74,0,0,0-.78-11.68c-.27-2.57-.84-5.12-1.35-8.06ZM81.3,230.45a60.62,60.62,0,0,1,1,7.05,52,52,0,0,1-.65,6.19c-.17,1.44.08,3.16-.62,4.28-2.63,4.2.3,5.1,3.37,6.41l8.09-13.59Zm65,265.87,2-.22c.69-7.29,1.52-14.56,1.93-21.87.08-1.4-1.47-2.89-2.27-4.35-1.22,1.33-3.45,2.61-3.5,4-.27,6.4,0,12.83.25,19.24C144.74,494.2,145.72,495.25,146.27,496.32Zm67.08-.15,1.57.15c.54-1.27,1.49-2.53,1.54-3.83.26-6.09.53-12.21.2-18.28-.09-1.5-2.43-2.87-3.73-4.3-.76,1.65-2.2,3.32-2.17,5,.14,5.77.71,11.54,1.27,17.3A18.93,18.93,0,0,0,213.35,496.17ZM316.54,27.79c-5.09,5.94-3.1,12,4.21,15.36ZM40.45,42.41c8-4.54,9.42-9.82,4.2-15.3C43.12,32.67,41.79,37.54,40.45,42.41ZM218.33,331c3.82-4.08,2.51-7,.75-9.67-.63-1-2.33-1.2-3.54-1.77-.53,1.3-1.82,2.88-1.46,3.85C215,325.84,216.63,328.05,218.33,331Zm-75.39-.17a66.85,66.85,0,0,0,4-7.86c.31-.83-.74-2.42-1.56-3.29-.34-.36-1.91,0-2.58.45C139.9,322.22,139.65,326.88,142.94,330.79ZM315.47,16.53l2.21-.57c-.58-2.34-.68-5-1.91-6.9-.83-1.3-3.24-1.59-4.95-2.33l-1,1.55ZM44.78,17.62c2.62-3.85,4.55-6.7,6.77-10C44.61,7,42.67,9.74,44.78,17.62ZM73.41,566.26l-2.15.9c.28,1.9.57,3.79.85,5.69l5.19-1.29Zm216.38.93-2.15-1-4,5.27,5.17,1.36C289.16,571,289.47,569.08,289.79,567.19Z" transform="translate(-0.56 -0.56)"/><path d="M198,310c0,1.35.08,2.48,0,3.59-.25,3.14-1.67,3.54-4.33,2.06-8.68-4.83-17.49-4.79-26.21-.12-3.67,2-4.17,1.49-4.83-5.58-1.37-.08-2.81-.23-4.25-.25-7.24-.1-10.83-3.23-12.31-10.45-.86-4.22-1.93-8.41-3.13-12.55-5.52-19-4.15-36.31,9.51-52.34,5.11-6,7.17-15,9.42-22.93,1.49-5.28,2.76-10.34,7.06-13.86,1.48-1.22,4.17-2.26,5.69-1.7,1.18.44,2,3.48,2,5.36-.09,13.81-.46,27.62-.64,41.42a64,64,0,0,0,.68,7.15l1.37-.05,2.1-35.86.76,0q1.08,18,2.15,35.92l1.29.11a58.18,58.18,0,0,0,.74-7c-.16-13.81-.53-27.61-.63-41.42,0-1.92,1.09-3.85,1.67-5.78a43.59,43.59,0,0,1,6.24,2.11,5.58,5.58,0,0,1,2.6,2.94c1.59,5,2,10.56,4.57,14.91,2.67,4.54,6.61,8.12,6.6,14,0,1.87,1.35,4.09,2.73,5.54,13.67,14.45,14.29,31.45,9.93,49.45-1.06,4.35-2.71,8.57-3.54,13-1.8,9.41-4.47,11.9-13.9,12.09C200.35,309.64,199.39,309.81,198,310Zm-12.32-7.7c-.86-3.39-1.6-6.34-2.34-9.28l-1.14.19-1,5.63h-1.42l-1-5.62-1.25-.14-2.15,9.22Z" transform="translate(-0.56 -0.56)"/><path d="M97.69,281.83c.79-3.88,1.43-7.79,2.39-11.63,2-8,3.93-16,6.4-23.91A48.88,48.88,0,0,1,125,220.89c1.81-1.3,5.23-1.92,7.12-1.08,1.5.67,2.45,4,2.5,6.21.07,2.74-1.34,5.49-1.55,8.27-.44,5.78-.56,11.57-.7,17.37-.14,6.3-.37,12.6-.18,18.9.19,5.91.75,11.83,1.39,17.72.45,4.12,1.6,8.17,1.84,12.29.1,1.61-1.4,3.32-2.18,5-1.66-.91-4.5-1.55-4.77-2.78-1.5-6.61-6.4-4.78-10.6-4.84a4.19,4.19,0,0,0-1,.09C101.13,301.79,98.19,295.92,97.69,281.83Z" transform="translate(-0.56 -0.56)"/><path d="M262.81,282.19c0,.84,0,1.67,0,2.5-.19,12.4-5.41,16.43-17.45,13.74a29.65,29.65,0,0,0-8.41-.51c-1.09.07-2.27,1.4-3.09,2.42s-.94,2.68-1.88,3.41c-1.2.92-3.18,1.92-4.33,1.52s-2.19-2.62-2.08-3.95c.32-4.29,1.41-8.52,1.82-12.8.6-6.38,1-12.79,1.24-19.19.19-5.64.13-11.3-.09-16.94-.28-6.91-.79-13.82-1.3-20.73-.17-2.31-1.14-4.66-.87-6.88.23-1.88,1.3-4.42,2.76-5.18a6.86,6.86,0,0,1,6,.51c13,9.33,19.95,22.38,22.7,37.92.51,2.9,1.24,5.77,1.95,8.63,1.27,5.11,2.6,10.2,3.91,15.3Z" transform="translate(-0.56 -0.56)"/><path d="M179.75,91.29c-1.45,3.57-5.69,6.6-1.49,11.3.64.72.54,2.22.55,3.36,0,11.14,0,22.27-.71,33.64-.68-2.33-1.36-4.66-2.29-7.79l-2.44,5-.75-.11c0-5.19-.07-10.38,0-15.57.07-4,.89-8.06.35-12s-2.6-7.76-3.51-11.74c-1.08-4.71.29-8.92,2.91-13.09,1.81-2.89,3.3-6.6,3.22-9.9-.12-4.32,2.1-4.27,4.89-4.27s5.25-.07,4.83,4.29c-.26,2.73.38,6.34,2.07,8.33,4.68,5.52,6.18,11.82,3.18,17.8-6,11.86.37,24.09-2.64,36.49-.88-1.71-1.63-3.15-2.72-5.24-.86,2.95-1.57,5.37-2.28,7.79l-.7-.06c0-3.73,0-7.46,0-11.18,0-6.81-.21-13.63,0-20.44.08-2.31,1.74-4.6,1.65-6.87-.14-3.35-1.19-6.66-1.85-10Z" transform="translate(-0.56 -0.56)"/><path d="M204.31,150.17c-4,.19-8,.94-11.86.42s-4.2-3.71-3.56-6.57l15.86,4.76Z" transform="translate(-0.56 -0.56)"/><path d="M172,144c.64,5.63-1.21,7.35-6.64,6.48-2.79-.45-5.71-.08-8.57-.08l-.49-1.54Z" transform="translate(-0.56 -0.56)"/><path d="M188.11,185.79l7.45,5c-.9.67-2.4,2.08-2.6,1.91-2.56-2.11-7.51,1.41-8.54-3.5C184.27,188.44,186.45,187.25,188.11,185.79Z" transform="translate(-0.56 -0.56)"/><path d="M164.28,192.85c3-5.43,6.48-6.25,10.43-5.71a3.13,3.13,0,0,1,1.92,1.84c.22.56-.3,2-.68,2.1C172.51,191.73,169,192.17,164.28,192.85Z" transform="translate(-0.56 -0.56)"/></g></svg>