<svg id="Layer_1" data-name="Layer 1" xmlns="http://www.w3.org/2000/svg" viewBox="0 0 921.24 772.66"><defs><style>.cls-1{fill:#ff3fb4;}</style></defs><defs><style>path{fill:#ff3fb4;}</style></defs><title>EscarabajoRosa</title><g id="NLJ1e2"><path class="cls-1" d="M920.89,201.89c-14.28-42.52-27.38-85.47-40.48-128.43-7.55-24.75-14.69-49.63-23.25-74l-23.67,0c11.61,40.69,22.32,81.65,32.77,122.65,13.88,54.4,33.16,106.78,54.7,158.3V267c-26.25-65.71-51.16-140-52.84-166.55,4.11,4.08,28.29,63,52.8,125.89ZM921,370.55l-.24-.24c-10.94-10.73-17-22.16-18.48-37.23-1.74-17.77-3-35.94-8-52.93-6.86-23.6-15.26-47.1-26-69.16-18-36.78-38.23-72.41-57.76-108.41-1.21-2.24-4.37-3.43-5.13-4-.51,4.68-1,8.75-1.43,12.92-8.14-8.58-14.34-16.16-21.61-22.55-15.25-13.39-31.06-26.16-46.64-39.18C723.09,39.61,710,29.89,697.86,19.17q-11-9.66-21.8-19.54h-8.82a1085,1085,0,0,0,89.32,73.52c12.58,9.3,26.31,18.4,35.49,30.62,16.14,21.52,31.11,44.41,43,68.46C852,206.48,865.72,242.32,881,277.38c1,2.35,3.66,4,5.64,5.93,0,0,0-.05,0-.07l.06.14.16.15c-5.36-16-9.1-32.81-16.42-47.85-19.06-39.16-39.69-77.54-59.69-116.24-.55-1.07-1.08-2.16-1.87-3.73,16.14,5.83,82.31,143.65,82.9,171.42l-2.41,2.4q-1.32-3.07-2.67-6.15l-.07-.07c-.54,4.32-2.25,8.86-1.4,12.89,3.36,16,7.53,31.83,9.34,48.05L611.39,50h17.49c-18.09-19.67-34.7-38.81-57.81-50.27l-58.2.06A42.11,42.11,0,0,0,514,4c2.75,8.21,7.27,15.82,11,23.68l-2.63,1.15c-5.12-9.62-12.75-18.13-14.71-29.08h-5.05a19.37,19.37,0,0,1-1,3c-3.8,9.05-9,17.49-13.62,26.21l-2.79-1.37c2.45-5.3,4.91-10.59,7.33-15.9,1.65-3.62,3.66-7.13,4.82-10.9.1-.34.2-.67.29-1l-25.4,0c-1.89,23.61,6.59,40.79,22,55.84-16.49-2.36-30.31-36-22.06-55.84l-33.56,0C422,10.07,406.17,21.05,394.19,37.1c-3.25,4.35-8,7.57-13.4,12.5l18.55,0L114.53,346.69c3.11-16.58,5.69-31.64,8.83-46.59a216.08,216.08,0,0,1,6.44-23.23c17.73-54.15,42.73-105,73-153,13.12-20.8,32.51-36.94,52.59-51.64A990,990,0,0,0,342.86-.06H331.79c-24.94,21.58-49.87,43.16-74.59,65C240.48,79.71,219.8,90.51,209,111.49l-3,.16q-.34-6.33-.71-12.66c-.43-.95-.87-1.89-1.3-2.83-1.76,2.86-3.61,5.69-5.25,8.62-3.08,5.51-5.75,11.27-9.1,16.61-22.73,36.25-42.79,73.84-57.33,114.18-6.33,17.55-13.72,34.87-18,52.92-4.16,17.3-4.26,35.53-7.57,53.09-1.47,7.72-4.9,16.2-10.12,21.86-26.1,28.37-53.09,55.91-81.75,85.81,4-12.7,6.2-24.39,11.13-34.79,18.38-38.84,39.15-76.62,56.16-116,17.54-40.66,34-82.07,46.85-124.38C146.5,116.68,160,58.07,175.54.1l-23.13,0c-11.52,32.89-19.53,67-30.78,100C100.13,163.26,80.37,227,57.91,289.72,43.68,329.5,25.63,367.92,9.84,407.16c-6.47,16-13.3,32.56-8.2,50.39,1.63,5.7,5.66,11,9.47,15.71,3,3.73,7.48,6.23,11.09,9.49,5.85,5.3,9.93,4.4,14.26-2.71,3.25-5.34,6.61-10.83,10.86-15.34,13-13.83,26.56-27.21,39.84-40.81,4-4.11,7.9-8.37,12.74-13.52,0,13.67.36,25.31-.13,36.91-.19,4.4-4,9.06-3.18,13,2.61,13.34,6.12,26.55,10,39.56,7.33,24.25,17.55,47.88,22.17,72.59,4.78,25.5,14.13,48.26,26.83,70.32,9,15.57,18.1,31.17,25.47,47.51C194.06,719,210.43,744,238.88,760c4.7,2.66,9.4,5.32,14.08,8h6.91l-22.25-13.37,1.73-2.92L266.88,768H275q-27.5-16.41-54.91-33C217,733.17,216,728,214,724.33c-20.86-37.58-42.4-74.81-62.2-113-6.27-12.06-7.85-26.56-11.67-39.92-6.69-23.36-12-47.27-20.54-69.92-12.68-33.44-10.25-67.5-8-101.73.26-3.95,4.2-8.15,7.33-11.36C176.93,329,235.3,269.92,293.24,210.39c30-30.84,59.27-62.39,88.94-93.55,2.72-2.86,5.88-5.28,7.59-6.79-2.58,22.3-5.14,45.76-8.17,69.15a15.65,15.65,0,0,1-5.12,8.9q-58.83,50.54-118,100.7c-3.76,3.22-7.41,6.55-9.66,8.54,1.45,8.08,1.19,15.14,4,20.62,8,15.57,16.39,31.07,26.22,45.53,9.08,13.36,20.21,25.33,30.71,38.26-26.4,25.83-51.18,50.05-74,72.38,4.27,6.61,8.08,11.68,11,17.21,10.88,20.47,27.24,36.13,44.38,51.07,8.54,7.44,17.44,14.48,27.23,22.57-2.89,5.34-5.76,10.68-9.23,17.11,4.82,9,15.72,10.24,26.87.94l49.27,55.55c1,10.14,2.82,18.86,2.19,27.39-.32,4.4-4.24,9.46-7.95,12.5-5.85,4.82-13.15,7.83-19.35,12.29-5.1,3.66-7.9,8.38-5.49,15.58,1,2.94-1.35,7.28-2.84,10.7-5.19,11.77-11.65,23.09-15.75,35.22-2,5.92,1.84,12.17,7.62,15.68a17.64,17.64,0,0,0,14,2.25l-2.44-2.26c-2.77-2.54-5.56-5.09-8.73-8l13.75-3c-14.42-6.13-14.63-6.64-10.26-20.63,1.48-4.77,2.83-9.61,4.46-14.33,3.48-10.06,6.81-20.36,23.13-20.65-6.53,7.22-11.92,13.18-17.38,19.2,15.09-.05,25.91-12.27,30.91-35.59,1.33,2.32,1.85,4.42,3.16,5.22,2.27,1.37,5,2,7.6,2.88.72-2.28,2.32-4.67,2-6.81-2-14.65-4.77-29.21-6.5-43.88-.44-3.64,2-7.61,2.95-10.87q-32.93-35.55-66.64-71.92l11.85-21.19c1.4.48,2.15.51,2.53.9,3,3.07,6,6.2,9,9.31,2-4,5.5-7.94,5.63-12,.28-9-1.17-18.13-1.82-27.21a38.77,38.77,0,0,1,.19-6.55c.26-2.6,1.47-5.3,1.05-7.74-4.33-25.13-2.91-51.91-22.16-73l23.14-20c-3.45,82.05,15.25,160.25,61.76,231.21,11.76-11.34,19.43-11.55,32.06-.37a95.36,95.36,0,0,1,12.72,14c3.51,4.62,6.13,9.92,9.88,16.12q-2.37-22.11-4.17-39l60.34-.06c-1.16,11.23-2.51,24.26-4,38.85,3.45-5.71,5.64-10.94,9.23-14.87,6.66-7.28,13.32-15.08,21.49-20.28,10.4-6.61,15.41-4.51,22.46,5.32,26.09-31,70.67-127.86,62-234.09,7.19,8,13.93,15.61,20.95,23.49-3.85,9.33-9.34,20.34-12.84,31.93-2.3,7.63-1.66,16.12-2.53,24.22-.28,2.57-1.58,5-1.72,7.6-.32,5.73-.18,11.48-.29,17.23,0,1.9.38,4.21-.51,5.64-6.4,10.23-2.22,20.8-.92,31.13.37,2.93,3.79,5.47,5.8,8.19,2.25-2.2,4.58-4.33,6.68-6.66.83-.92,1.17-2.3,2.6-5.27,4.88,8.34,9.09,15.55,12.83,21.93-15.71,18-30.8,35.66-46.36,52.88-4.4,4.86-10.33,8.31-15.33,12.66-3.72,3.23-8.59,6.56-2.13,11.89.81.66,1.14,2.45,1,3.64-1.74,14.08-3.78,28.13-5.36,42.24-.41,3.68.47,7.5.77,11.26l11-5.48c3.36,15.79,11,29.83,32.49,34.76-7.22-7.76-12.81-13.74-19.82-21.27,11.2.83,17.56,4,20.32,12.69s5.76,17,8.83,25.41c3.26,9,1.93,15.2-9.55,17.67l13.45,3.45-11.47,7.57-1.59,1.05,1.65,3.42c3.79-1.27,8.67-1.5,11.15-4,.14-.15.29-.29.44-.43,4.31-3.93,13.07-5.77,9.44-14.6-4.64-11.27-9.75-22.37-14.88-33.43-2.56-5.53-7-10.1-3.9-17.41,1-2.42-1.87-7.82-4.51-10.12-4.93-4.34-10.87-7.59-16.58-11-8.33-4.94-15.64-9.23-10.47-21.69,2.26-5.42-.68-13-1.22-19.24L675,582.85c11.68,9,21.88,7.82,26.84-.73-3.37-6.59-6.09-11.86-8.68-16.91,15.33-13.73,31.05-25.81,44.26-40.2,11.31-12.32,19.62-27.37,29.54-41,2.28-3.13,5.68-5.45,9.53-9.05-24-23.39-48.73-47.55-74.77-72.94,6.91-9.46,13.68-18.8,20.52-28.09,9.67-13.1,20.24-25.63,28.72-39.46,4.49-7.32,5.31-16.88,7.89-25.4,1-3.37,2.29-6.65,4-11.51-14.45-12.2-29.69-25-44.85-37.9Q676,224,634.24,188.19c-2.52-2.18-5.08-5.61-5.49-8.75-3.13-23.71-5.72-47.49-8.46-71.14,12.92,13.82,26.28,28.6,40.15,42.86q86.92,89.29,174.1,178.34c19.34,19.79,39.16,39.13,58.13,59.28,3.92,4.15,6.52,10.8,7.15,16.57,4.25,39.36.36,77.59-15,114.7a205.41,205.41,0,0,0-13.21,49.1C868,595,856.53,617,844,639.11c-17.24,30.35-33.07,61.51-49.6,92.27a11.28,11.28,0,0,1-4.12,3.93q-27,16.11-54,32.27h8.29l30.25-18,1.7,2.83q-12.51,7.58-25,15.14h7.41q8.86-5.5,17.7-11c19.27-12,34.89-27.31,44.85-48.87,12.41-26.85,27.45-52.5,41.45-78.61,8.53-15.91,15.64-32.2,17.93-50.43,1.19-9.52,3.81-18.94,6.51-28.2,8.65-29.71,17.72-59.31,26.4-89,.74-2.55-.18-5.6-.44-8.41q-1.95-20.7-4-41.39,6.09,5.24,11.79,10.51V407.3c-3.09-3.93-5.06-8.21,0-12.87ZM201.64,115.83c-33.75,55.24-61.58,112.05-81.6,172.55C117.33,265.22,184.2,123.71,201.64,115.83ZM139.51,99.14l3.16,1.52c-7.42,58.67-84.56,258.41-108.35,280.58l-2.77-1.07Q85.54,239.67,139.51,99.14ZM59,440.12c-2.07,1.63-8,.69-10.48-1.2-2.11-1.59-3.35-6.84-2.37-9.5a35.44,35.44,0,0,1,8.35-12.15c10.31-10.26,21-20.09,31.56-30,2.1,4.2,4.24,8.46,7,14C86.48,417.07,73.06,429,59,440.12ZM214.3,733.55l-4.31,2.3L144.71,613.29l3.17-1.48ZM145.79,604.46l-3.86,1.27Q122.16,537,102.38,468.24l4-1.14Q126.08,535.77,145.79,604.46ZM537.8,1.39c8.71,16.28-3.91,48.84-20.55,53.9C531.24,40.37,539.6,23.45,537.8,1.39Zm-101,10.69c-5.33,4.65-10.81,9.14-15.95,14-6.81,6.43-6.27,11.48,1.45,16.9a22.88,22.88,0,0,1,3.23,2.19C437,56.65,445.44,55.53,454,41.38c.55-.91,1.46-1.61,3.34-3.63,1.28,15.08,6.14,28.6,20.08,30.62,18.09,2.62,37,2,55.23.13,10.23-1.07,16.56-10.46,18.77-21.19.57-2.79,1.32-5.55,1.91-8,4.19,4,7.5,8.06,11.65,10.92,7,4.8,12.82,4.39,18.67-3.34C595.52,31.16,596,31.49,580.34,18a38.28,38.28,0,0,1-6.63-6.65c15.38,5.19,27.84,13.89,36.31,29.73-20.15,1.89-27.43,18.62-39.47,29.4-3.55,3.18-8,6.16-12.54,7.22-5.36,1.26-11.22.36-16.87.37-23.92,0-47.85-.34-71.76.16-13.19.27-23.33-.38-34-12.5-8.4-9.58-15.57-26.11-35.61-23.3C408.25,25.06,421.32,17.16,436.82,12.08ZM590.25,83.66l-21.8,1c-.11-1.1-.22-2.2-.32-3.29,4.17-4.81,8.35-9.61,12.91-14.88Zm-62.54-1c-.89,22.35-9,33-22.24,33.17-13.86.13-22-10.32-23-32.54,6.13,1.51,11.42,3.17,16.84,4a36.29,36.29,0,0,0,11.72,0C516.16,86.32,521.17,84.5,527.71,82.65Zm-83.55,1.23L420,83.9c3.48-6.6,6.27-11.86,9.09-17.23C433.51,71.71,437.74,76.56,444.16,83.88Zm-252.34,189c-.35-.29-.71-.57-1.06-.87,4.74-5.32,9.26-10.83,14.24-15.92q90.15-92.17,180.38-184.28c6-6.18,11.51-12.92,17.32-19.34,4.21-4.68,8.52-6.18,13.2.2Zm90.54,5.17c10-8.54,19.9-17.31,30.74-24.7,5-3.4,9.78,1.43,8.42,7.48-2.11,9.42-24,26.82-35.42,26.88-.91-.58-3.8-1.49-4.91-3.41C280.36,282.84,281,279.18,282.36,278.05Zm-24.31,34.87c4,17.87,16.45,30,27.43,43.15,10.73,12.83,21.37,25.75,33.49,40.36C303.86,396,258.68,331,258.05,312.92Zm13.12,133.67c15.1-14.37,30.74-28.18,46.18-42.19l3.29,2.92L309.3,422.48c.66.84,1.33,1.67,2,2.5l23.61-17,2.67,2.64c-8.69,8-17.43,15.92-26.08,24-9,8.39-17.74,17.12-27,25.22-4.86,4.22-11.21,8-17,2.18S267.14,450.42,271.17,446.59ZM393.91,628.2l-1.75,3.27c-3.35-1.32-7.71-1.72-9.89-4.1-20.72-22.76-41.06-45.86-62.59-70.06C351.15,575.58,365.86,608.72,393.91,628.2ZM347.73,514.46c-1.81,7.8-7.16,15.19-12.29,21.68-3.82,4.83-9.79,8-17,13.52-17.2-15.23-37.35-32.46-56.63-50.61-3.93-3.71-4.59-10.88-5.93-14.32,8.21-2.32,15.44-2.46,20-6,14.12-11.1,27.2-23.49,40.7-35.36,2.48-2.17,5-4.29,9.75-8.32,3.45,9.58,5.75,17.39,9.07,24.75s7.74,14.48,11.65,21.71c.6,1.11,1.55,2.28,1.55,3.42C348.58,494.8,349.93,505.05,347.73,514.46Zm.64-39.5c-5-12.39-9.84-24.25-14.71-36.1-2.11-5.11-4.35-10.13,3.28-12.66C352.4,445.32,357.6,468.58,348.37,475Zm-27.58-82.79c-17.76-28.53-47.38-46.48-57.64-76.48,7.83-4.26,14.71-6.64,19.87-11,30.46-25.87,60.5-52.22,90.72-78.39,2.47-2.14,5.12-4.08,9.87-7.85,0,7.61.45,13.1-.05,18.51-2.92,32.16-5.74,64.33-9.41,96.41a29.83,29.83,0,0,1-8,16.39C352.06,363.86,337.09,377.07,320.79,392.17ZM471.94,596.9c-1.33,12.83-.17,25.92-.16,40.42-14.42-11.1-27.26-24.48-46.78-13.49-16.17-28.7-33.88-56.23-40-89.15-4.83-25.82-13.81-51.44-14.56-77.34-1.06-36.1,3.26-72.44,6.43-108.57,1.78-20.22,5.86-40.23,9-60.34.71-4.72,1.6-9.41,2.41-14.11l2.75,0q.9,10.38,1.8,20.75l2.18.22c1.49-8.64,2.64-17.35,4.64-25.85.65-2.71,4-4.66,5.3-7.35.92-2,1.5-5.48.41-6.77-5.09-6.12-4.86-22.6,1.33-28.37,4.17-3.88,5.45-6.81-.8-9.54a6,6,0,0,1-2.34-1.75c-3.8-4.94-9.63-38.1-7.78-47.51,3.27,8.28,5.61,15.4,8.86,22.09,3.79,7.84,8.47,17.36,18.58,15.11,9.48-2.11,9.94-12.31,10.16-20.76.34-13.05-1.84-24.82-13-34.1-3.89-3.24-4.39-10.53-7.3-18.3-9.14-3.54-10.33-7.43-4.16-21.1.86-1.9,1.32-5.6.28-6.47-11.84-9.92,1.1-13.25,4.08-19.53,5.92,2.65,10.86,5.62,16.21,7s11,1.25,16.71,1.8c-7.65,12-8,21.2-.49,28.86l3.8-7.65c4.89,6.53,9.43,12.56,14,18.6,8.2-12.37,4.13-29-9.58-40C468,92,471.32,93.23,479.11,105c4.86,7.37,14.94,11.32,14.74,22.34,0,.85,6.11,1.81,10,2.9,0,18.69,2.25,38.38-.66,57.28-2.29,15-10.53,29.14-16.85,43.35-2.5,5.61-6.71,10.55-10.66,15.36-1.17,1.43-5.22,2.55-6,1.79-1.61-1.52-3-4.68-2.55-6.77a253.71,253.71,0,0,1,6.38-25.08c5-16.23,11.64-32.08,15.29-48.59,2.1-9.5-.33-20-.72-30.05l-4.58,0c0,2.86-.35,5.78.07,8.58,2.23,15.11-2.68,27.63-11.29,40.12-9.75,14.16-18,29.51-25.47,45.05-6.94,14.48-6,15,10.71,13.47-1.65,3.62-4.32,6.77-3.92,9.48.32,2.16,4.37,3.77,7.05,5.83-.32,9.61.84,10.57,10.89,7.42-.73,7.22-1.47,15.3,10.76,6.34,1.07,5.57,1.89,9.81,2.84,14.72,9.39,1.34,11.4,8.88,11.09,17.26-1.35,37-1.53,74.09-4.85,110.92C485.94,476.92,478.15,536.84,471.94,596.9Zm41.55-105.69c2.15,30.57,4.71,61.12,6.32,91.72.48,9.19-1.69,18.52-2.65,27.79-.72,6.91-4.46,9.43-11.45,9.39s-10.27-2.23-11.65-9.21c-5.11-25.9-3.43-51.78-.6-77.72,1.8-16.51,3.49-33,5.23-49.56l-2.85-.1q-8.23,50.09-16.48,100.17l-1.2-.14c3-22.66,7-45.22,8.92-68,5.33-63.45,10.39-126.93,14.36-190.47,1.86-29.71,1-59.58,1.33-89.37l4.89-.16C508.93,351,513.55,466.05,531.2,580.2l-16.14-97.27-1.6-.21C513.46,485.55,513.29,488.39,513.49,491.21Zm163.1-65.74c.5,3.71,2.4,7.95,1.24,11-3.44,9-8.44,17.36-12.1,26.27-1.51,3.65-1.16,8.06-1.7,12.4C653.09,469.09,658.11,445.64,676.59,425.47ZM629.17,626.82c-2.27,2.5-6.82,2.93-11,2.39L686.71,557l2.55,2.32C669.29,581.89,649.43,604.54,629.17,626.82ZM747.59,500.46C729,518,709.4,534.36,688.89,552.28c-8.9-12.21-16.51-21.95-23.22-32.27-2.36-3.63-3.21-8.63-3.52-13.09a159,159,0,0,1,.31-21.93c.12-1.77,2.49-3.36,3.72-5.1s2.8-3.59,3.57-5.62c4.73-12.6,9.29-25.26,14.69-40.07,11.34,10.23,20.35,18.51,29.52,26.59,7,6.15,13.72,12.79,21.48,17.82,4.77,3.08,11.25,3.54,19.59,5.93C753.34,488.33,752.13,496.16,747.59,500.46Zm-4.86-50.31c1.92,2.6,1.2,7.15,1.69,10.8-4.58.41-10.62,2.9-13.48.88-9.46-6.67-17.92-14.8-26.49-22.67-10.89-10-21.51-20.31-32.24-30.49l2.15-2.38q12.5,9.27,25,18.52l2.29-2.57L689.93,407C710.78,417.93,729,431.48,742.73,450.15Zm-47-53.51c13-31.94,47.53-49.47,56.59-84.34C754.82,327,721.23,378.15,695.73,396.64Zm.67-144c11.5,8,21.89,17.63,32.65,26.68.67.56.77,1.79,1.78,4.36-3,1.2-6,3.45-8.91,3.38-9.52-.23-29.47-16.38-32.49-25.58C687.44,255.41,691.92,249.52,696.4,252.63ZM628,218.73c6.56,5.62,12,10.29,17.45,15,28.49,24.63,56.84,49.44,85.64,73.73,3.89,3.28,10,4,16.74,6.54-2.18,4.86-3.79,11.86-7.84,16.87-16.28,20.18-33.33,39.73-50.93,60.51C672.67,375.8,656.7,360.79,641,345.54a13.7,13.7,0,0,1-3.81-7.88c-3.53-37.47-6.82-75-10.09-112.45C626.93,223.68,627.5,222.09,628,218.73Zm-6.34,54.91c.77,2.53,1.87,5,2.26,7.6,5.09,33.63,11.3,67.13,14.77,100.92,3.66,35.73,7.27,71.74-2.78,107.37-7.67,27.19-12.84,55.18-22.08,81.79-6.36,18.32-17.79,34.88-27.1,52.51-19.07-10.31-31.94.75-44.73,11.61-.69-.5-1.6-.87-1.59-1.21,1.64-58.77-14-115.81-17.45-174q-4.56-76.38-8.71-152.78c-.46-8.46.91-16.81,11.21-18.73.95-5.35,1.67-9.34,2.58-14.44l10.26,4.9c.43-4.34.74-7.6,1.08-11.07,5.67,1.2,12.52,3.68,10.14-7a2.7,2.7,0,0,1,.68-1.81c4.92-6.76,5.46-8.62,3.75-14.86,1.77.21,3.25.29,4.69.54,8.88,1.52,11.11-.63,7.22-8.62-7.26-14.91-14-30.39-23.54-43.78-12-16.76-20-33.62-16.05-55-6,8.65-7.88,18.34-5.48,27.64,4.33,16.73,10.38,33,15.55,49.56,2.58,8.24,5.09,16.52,7,24.93.55,2.47-1.13,5.45-1.79,8.2-3.2-1.23-7.92-1.52-9.34-3.83-6.78-11-13-22.44-18.82-34-12.87-25.65-5.25-53.09-7.43-80.66,7.13.83,11.23.36,12-8.27.44-5.09,9.19-9,11.5-14.51C534.71,93.83,544.8,92.64,555,92.73c-3.5,5.83-8.74,11.69-10.62,18.51s-.39,14.62-.39,22l2.64.5c4.54-5.93,9.08-11.86,13.4-17.52,2.55,1.92,4.78,3.6,7,5.27.91-2.38,2.79-4.85,2.56-7.1-.71-6.84-2.24-13.58-3.34-19.77l31.41-8.1c3.66,4.51,14.47,8.62,3.09,18.62-.92.81.34,5.09,1.56,7.19,6,10.37,3.42,17.49-8.41,20.32,4.53,10-1.78,15.44-8.09,22.2-10.73,11.49-11,26.28-7,40.55,3.51,12.49,13.31,14.18,21.25,3.84,4.37-5.68,6.9-12.81,10-19.43,1.53-3.27,2.48-6.83,5.81-10.21,0,6.15,1,12.5-.22,18.42-1.7,8.42-4.89,16.56-7.67,24.74-.58,1.7-1.88,3.71-3.39,4.42-6.16,2.93-5,5.7-.75,9.55,7.39,6.63,6.72,24.75-1.78,31.45,15.82,7.84,7.15,25.16,15.4,38,.93-8.29,1.71-15.2,2.49-22.12ZM594.26,52.47c4.63-6.28,8.85-4.74,12.86-.62Q709.11,156.42,811,261.07a38.08,38.08,0,0,1,7.65,11.15ZM801.38,735.42l-4.33-2.32L863.6,610.7l3,1.64Zm104.88-258c-4.92,16.95-10.65,33.69-15.31,50.72-6.22,22.77-11.66,45.74-17.52,68.6a91.27,91.27,0,0,1-3.28,8.94l-2.36-.91c6.23-47.67,24.57-92.13,39.11-138C906.73,470.27,907.24,474,906.26,477.39ZM715.74,767.6h6c4.89-3.3,9.85-6.5,14.93-9.49C729.7,761.25,722.62,764.22,715.74,767.6Zm-441.15-8c4.76,2.63,9.41,5.46,14,8.4h6.77l-16.8-8A6.13,6.13,0,0,0,274.59,759.59ZM794.9,89.24c-5.18-4.69-10.41-9.38-15.94-13.63q-47.49-36.49-92.42-76h-5.49q27.76,24.6,55.6,49.15,31.26,23.67,62.49,47.35A15.93,15.93,0,0,0,794.9,89.24ZM320.28,0q-47.34,40.24-94.66,80.51c-5.51,4.7-10.45,10.07-15.65,15.14l2.45,2.53L328.53,0Z"/><path class="cls-1" d="M615.49,513.37l-8.75-21.2c-1.43,6.07-2.51,10.68-3.6,15.3l-2.17.16c-.67-3.59-1.77-7.17-2-10.79-1-20.15-4.93-39.27-13.35-58-9.18-20.41-8.51-41.49,4.06-61.21,1.82-2.86,2.41-6.51,4.44-12.25-6.21,2.2-10,3.7-13.89,4.91-10,3.12-14.82.3-18.29-9.53-8.43-23.89-1.44-46.83,4.21-69.75,2.21-9,5.92-17.62,9.57-26.16,1-2.27,4.61-5.25,6.39-4.87,2.62.55,6.13,3.47,6.72,6,3.83,16.19,7.43,32.46,10.13,48.87,1.27,7.73-12.59,19.13-20.14,16.79-2-.62-3.84-5.93-3.56-8.87,1.21-12.78,3.23-25.47,3-38.45-6.27,19.31-15,38.46-8.23,59.23,4.49,13.71,13,15.27,22.69,4.72,11.13-12.06,14.11-26.8,12.06-42.7-.53-4.19-1.82-8.29-.73-13.13,1.92,5.35,4.8,10.57,5.58,16.08,1.82,12.84,4.24,25.94,3.3,38.71-.63,8.62-5.4,17.64-10.41,25.07-7.32,10.85-13.53,21.38-10.92,35,1.92,10,7.49,12.51,15.38,6.16,4.6-3.71,8.24-8.64,12.25-13.07,3.29-3.63,6.49-7.33,9.66-10.92C647,403.09,638.65,493.9,615.49,513.37ZM625,468.52c3.7-15.7,11.16-31,4.76-49.34C623.15,436.26,620.72,452.08,625,468.52Z"/><path class="cls-1" d="M561.39,416.91c-1,6.82-2.35,12.49-2.43,18.18-.2,13.67-1,27.49.78,41,1.26,9.75,6.34,19,9.25,28.55.75,2.45.75,6.51-.73,7.88-1.72,1.61-5.92,2.24-8.18,1.27-6.39-2.75-13.11-5.67-18.17-10.23-3.1-2.8-4.58-8.7-4.71-13.27-.54-18.09-.25-36.2-1.58-54.84q-3,13.41-6,26.81c-5.4-28.74-8.78-57.42-7.87-86.35l3.63-.36c.35,3,.71,6,1.06,8.95.63,5.34,2.18,9,8.81,9.9,8.18,1.17,10.63,8,11.07,15.58q1.83,31.45,3.84,62.89c.14,2.16.58,4.31.88,6.47l2.74-.05c0-10.58-.14-21.16,0-31.74a176.62,176.62,0,0,1,1-19c1.27-10.44-1.82-24.54,18-21.11-.18,2.35-.5,5.46-.64,8.57-.61,13.63-1.75,27.28-1.45,40.89.12,5.21,3.45,10.41,5.56,15.52,1.13,2.74,3,5.16,4.14,7.91,4.35,10.79,8.52,21.65,13.17,33.55-6,5.72-12.89,4.29-17.85-5.92-12.35-25.38-14.21-52.44-12.83-80,.15-3,.21-5.94.27-8.91C563.23,418.78,562.85,418.55,561.39,416.91Z"/><path class="cls-1" d="M546.62,595.93c-4.17-29.22-8.15-57.19-12.2-85.54,15.17,6.56,28.22,11.85,40.85,18,2.17,1.06,4.4,6.64,3.46,8.71-8.19,18.12-17,36-25.89,53.77C551.94,592.66,549.47,593.68,546.62,595.93Z"/><path class="cls-1" d="M625.38,520.26c-1.65,6.88-2.32,12.13-4.17,16.93-6.08,15.82-12.32,31.58-19,47.14-5,11.52-13.84,18.94-25.59,23.81-10.6,4.4-20.52,10.44-33.05,14.3,3.06-5.05,5.88-10.27,9.25-15.1,9.31-13.32,18.41-26.82,28.46-39.57,6.48-8.22,14.6-15.14,21.79-22.83C610,537.54,616.67,529.9,625.38,520.26ZM603,560.44l-3.39-2.56-31.14,41.63,2.59,2C587.75,592.46,596.55,577.36,603,560.44Z"/><path class="cls-1" d="M559.48,269.4c4.64,22.37-15.05,68.72-35.78,85.5C507.18,339.31,528.09,288.58,559.48,269.4ZM550,300.7l-3.73-1.64c-9.21,11.25-21.13,21.19-19.63,37.59l3.38,1.68Z"/><path class="cls-1" d="M552.59,195.84c-4.45-6.52-8.9-13.06-13.48-19.5-5.77-8.11-5.11-15.71,0-23.43a3.48,3.48,0,0,1,6.24,1l0,.11a3.46,3.46,0,0,0,4.22,2.46l18.05-4.7a3.47,3.47,0,0,1,4.34,3.63c-.1,1.25-.18,2.45-.25,3.66-.39,7.06-.76,14.13-1.06,21.2-.07,1.55.49,4.44.23,4.5-5.53,1.3-7.56,4.89-8.48,9.2Z"/><path class="cls-1" d="M556.17,131.12c.43-3.68,6.26-3.16,9.46-4.77a3.51,3.51,0,0,1,4.88,1.91c2.14,6-5.5,5-9.76,6.43A3.47,3.47,0,0,1,556.17,131.12Z"/><path class="cls-1" d="M535.5,113l-6,16-4.1-1.25q2.12-8.23,4.22-16.49Z"/><path class="cls-1" d="M407.64,507.48c-.87-4.34-1.74-8.68-3.05-15.28-3.59,8.2-6.34,14.51-9.2,21.07-22.45-18-31.93-107-13.48-123.91,5.07,6.08,9.51,12.79,15.33,17.95,4.61,4.09,10.89,6.27,16.43,9.3,2.05-6.3,6.53-13,5.56-18.8a56.36,56.36,0,0,0-10.73-24.12c-7.77-10.06-12.74-20.45-11.19-33,1.7-13.84,4.15-27.58,6.63-41.3.55-3,2.63-5.79,5-8.48-5.44,15.65-5.18,30.85,1.19,46,4.51,10.7,15.18,20.09,21.4,18.38,6-1.64,12.82-14.59,11.55-25-1.88-15.46-5-30.76-7.66-46.12l-4.64.64c1.33,12,2.72,23.9,3.95,35.87.34,3.38.19,6.8.27,10.21-3.74-.31-7.87.31-11.12-1.09-11.38-4.9-13.27-10.16-10.65-22,2.8-12.68,4.33-25.64,7.29-38.27.85-3.61,4.75-6.5,7.25-9.72,2.66,2.15,6.77,3.77,7.78,6.53,10.14,27.86,21,55.78,15,86.36-3.95,20.42-8,22.38-27.15,15-1.44-.56-3-.77-6.35-1.6,1.44,4.67,1.78,8.38,3.57,11.14,12.93,19.95,13.87,41.27,4.41,62.08-8.65,19-12.17,38.61-13.33,59-.18,3.15-.82,6.28-1.25,9.42ZM384,469.55l3.23-.24c2.39-22.78.38-36.88-6.83-48.06l-2.88.39Z"/><path class="cls-1" d="M440.25,406.72c1.23.47,3.72,2.4,5.13,1.79,8.21-3.5,8.63,2.84,9,7.43,1.47,17.94,2.37,35.93,3.49,53.9.19,3.14.37,6.28,2.6,9.45,1.24-21.87,2.58-43.74,3.68-65.62.5-10,2.12-18.6,14.61-20.23,2.05-.27,4.17-4.58,5.14-7.4,1.12-3.26,1-7,1.5-11.24,5.79,6.72,2.68,71.7-4,88-2.22-9.9-4.12-18.43-6-27-.85.31-1.93.52-1.93.73,0,17.15-.58,34.34.4,51.45.53,9.26-1.54,15.63-10.24,19.32-1.53.64-2.86,1.91-4.43,2.29-5.46,1.3-11,2.34-16.5,3.48.42-5.48-1.18-12.55,1.64-16.15,10-12.78,7.34-27.28,7.63-41.34a200.68,200.68,0,0,0-2.62-35.92c-1.53,20.16-2.18,40.44-5,60.42-1.44,10.32-6,20.42-10.51,30-1.51,3.21-7,5.06-11.05,6.33-1.81.56-4.55-1.85-6.87-2.91,1.09-2.25,2.05-4.57,3.27-6.74,2.58-4.56,5.65-8.88,7.88-13.59,3.79-8,7.38-16.15,10.45-24.45a42.4,42.4,0,0,0,2.62-13.59C440.47,439.24,440.26,423.34,440.25,406.72Z"/><path class="cls-1" d="M476.55,510.13c-4,28.59-7.82,56.37-12.15,87.53-4.32-5.54-7.79-8.8-9.81-12.79-7.36-14.49-14.26-29.21-21.27-43.87-2.8-5.85-2.77-10.63,4.26-13.83C448.92,522,460,516.3,471.25,510.88,472.06,510.49,473.11,510.6,476.55,510.13Z"/><path class="cls-1" d="M383.81,520.86c35.94,30.34,59.72,65.83,83.61,101.23l-2,1.83c-14.57-7.51-30.51-13.24-43.21-23.13-8.79-6.84-14.26-18.9-19.14-29.57C396,555.69,390.76,539.31,383.81,520.86Zm57,80.4,2-1.75-31.63-41.67-2.3,1.76C411.71,575.81,426.35,594.93,440.78,601.26Z"/><path class="cls-1" d="M488.34,356C461,332.68,453.22,302.71,451.5,269.8c14.61,15.83,31.63,29.94,38.93,50.94C494.26,331.77,495,343.92,488.34,356ZM463.5,298.56l-3.16,1.71q10.46,19.31,20.92,38.62l2.83-1.53C485.27,320.1,473.62,309.74,463.5,298.56Z"/><path class="cls-1" d="M464.85,153.88l0-.11a3.68,3.68,0,0,1,6.61-1.08,27.1,27.1,0,0,1,2.67,4.67,16.18,16.18,0,0,1,1.19,8.45c-1.54,9.48-11.23,24.36-21.13,33.12a3.68,3.68,0,0,1-6-1.88q-.24-.92-.42-1.83c-.38-1.91-.12-5.45-.73-5.59-10.77-2.38-5.92-10.38-6.43-16.6-.46-5.66-1.31-11.29-2.08-16.65a3.68,3.68,0,0,1,3.93-4.18,57,57,0,0,1,9.83,1.25,45.31,45.31,0,0,1,7.47,2.82A3.68,3.68,0,0,0,464.85,153.88Z"/><path class="cls-1" d="M443.52,122.28c-1.22,8.28,16.87,1.82,9.52,15C436.92,129.92,436.92,129.92,443.52,122.28Z"/><path class="cls-1" d="M480.26,111.25l4.89,16.24-4,1.41q-3.23-7.86-6.46-15.73Z"/><path class="cls-1" d="M488.52,93.74c5.73,1.43,11.3,3.9,16.87,3.9,5.31,0,10.61-2.6,16-4.07.51,8.78-7.4,17.34-15.91,17.56C497.21,111.34,489.22,103.4,488.52,93.74Z"/></g></svg>