<svg id="Layer_1" data-name="Layer 1" xmlns="http://www.w3.org/2000/svg" viewBox="0 0 960.99 664.36"><defs><style>.cls-1{fill:#ff3fb4;}</style></defs><defs><style>path{fill:#ff3fb4;}</style></defs><title>Escarabajo</title><g id="vj5q6L"><path class="cls-1" d="M215.25-1q-46.32,44.31-92.52,88.67c-4.43-4.32-11.54-9.37-16.19-16.11C85.44,41,54.92,36,21.44,39.54c-10.84,1.14-18.09,8-20.82,21l14.81-9.65c.18,3.48.28,5.65.39,7.81,5.75-11,14.68-13.61,25.36-11.46C51.49,49.29,62.1,51,71.73,55c7.89,3.24,14.53,9.54,21.73,14.48-.54.93-1.08,1.86-1.63,2.79-9.62-.12-19.46-10.06-29.11-.68C73.28,74.34,83.4,77,93.5,79.73a2.71,2.71,0,0,1,1.39,1.55c6.69,17,25.92,15.58,37.59,25.33,1.19,1,5-.08,7-1.29a52.93,52.93,0,0,0,11.16-8.69c21.69-23.62,42.54-48,64.87-71Q228.64,12,242.32-1ZM961.61,505.73V484.68c-20-6.46-41.35-6.22-63-4.43-17.8,1.47-35.59,3.28-53.42,3.95-13.89.52-26.31-4.13-37-13.56-5.27-4.62-11.79-7.82-17.74-11.66l-2.41,2.3c-.68-4.15-1.35-8.31-2.43-14.88L800.16,462c0-13.65,1.06-24.41-.27-34.86-1.76-13.89-5.4-27.53-8.51-42.58,45.25-.63,79.66-16.15,97.14-58.18l-28.71-20.27,20.56-6.24c-.27-1-.53-2-.8-3-3.18.39-6.5,1.55-9.49,1-4-.77-9.83-1.93-11.05-4.64a19.27,19.27,0,0,1,.13-14.3c4-8.83,13.55-8.54,23.86-.16,9.57,7.79,12.17,7.16,17.8-3.59-5.29-.4-11.87.88-16.33-1.62-9.22-5.15-17.86-9.12-27.14-1.71-7.49,6-9.84,20.85-3.38,30.06,7,10.05,16.34,18.53,25.79,28.93C868,357,844.67,373.17,813.64,376.48c-26.33,2.82-53,2.56-79,3.65,9.08-18.09,3.83-36.62-3.84-56-7.58-19.11-14.56-39.08-17.45-59.3-5.83-40.79-4.42-81.62,13.12-120.09,9.93-21.76,19.72-43.18,8-65.37,13.94.91,27.46,2,41,2.61,6.9.3,13.86-.67,20.77-.4,37.42,1.47,68.16,14.24,85.29,51.48-15,5.14-26.13,15.19-29.44,30-1.7,7.66,1.25,18.2,5.9,24.71,2.66,3.7,13.17,3.15,19.83,2.24,7.63-1,14.93-4.61,22-7-4.95-9.06-7.2-9.55-17.08-1.6-2.26,1.82-4.73,4.76-7.11,4.77-5,0-11.67,0-14.56-3s-4.23-10.39-2.75-14.63c1.11-3.19,7.54-5.07,12-6.37,2.76-.82,6.16.52,9.26.89.33-1,.66-2,1-3L860,153.45l28.71-19.64c-17.92-42.44-52.52-57.76-94.8-58.35-3.17-26.12,14.21-49.3,4.83-76.16L787.15,12.18c-.75-10-.86-11.76,4.94-13.18h-9.51L770.52,10.77c-.72-5.55-.33-9.28,1.8-11.77h-4.66a14.42,14.42,0,0,0-1.58,2.79C756.21,25.36,751.14,50,749.41,75.7l-28.65-8.46c2.41,4.47,3.59,6.27,4.4,8.22,5.57,13.4,9.2,27.15,3.13,41.22-1.45,3.38-5.84,5.49-8.88,8.18-1.85-3.12-4.79-6.06-5.33-9.39a171,171,0,0,1-2-23.93c-.37-19.15-6.32-36.39-20.65-48.95a240.06,240.06,0,0,0-40.78-28.87c-7.15-4-11-7.62-11.32-14.72H597.68q.29,1.68.54,3.39A360.6,360.6,0,0,1,539.88-1H348l1.74,2.19c-5.41,1.7-8.53,2.65-11.64,3.66C277.38,24.62,229.92,62.78,191.39,112.52c-19.66,25.39-26.46,56.35-33.13,87.11-2.46,11.34-5.62,22.22,7.14,30.52-10.86,6.95-11.09,16.12-7.94,26.38,1.38,4.5,1.66,9.33,2.78,13.92,8.37,34.23,19.69,66.62,44.33,93.65,39.9,43.76,85.73,77.67,145.89,94.8-8.4,10-16,18.56-23.15,27.55-5.84,7.37-11.09,15.2-18.74,25.79-7.05-3.69-18.16-7.14-26.15-14.16-22.66-19.91-44.75-40.62-65.74-62.28-20.28-20.93-38.78-43.57-58.38-65.16a81.15,81.15,0,0,0-17.4-14.82c-3-1.81-8.73-1.22-12.24.4-13.12,6.06-28.67,8.9-35.53,24.25-.19.42-1.33.43-2,.62l-29,7.68c10.36,8.23,20-.28,31.32.93a20.21,20.21,0,0,1-10.54,9.4c-13.18,4.87-26.44,9.7-40,13.38-11.08,3-21,.67-27.1-14.79v11.8L1.45,400.13c2.46,11,7,17,16,19.54,20.28,5.79,65.86,1.22,84.68-25.28,6.25-8.8,14.22-16.39,21.35-24.47,8.09,8.87,15,17.33,22.83,24.88Q203,449.49,260.07,503.71c16.46,15.57,35.52,25.38,59.26,22.31a7.86,7.86,0,0,1,5,1.42c6.94,4.82,13.69,3.1,19.06-1.81,13.64-12.5,28.27-24.41,39.48-38.9,8.67-11.2,16.22-15.12,30.89-14.86,43.28.74,86.41-.73,128.87-13.23,17-5,36.67-.82,55.39-.82-.27,21.46-16.26,44.69,12.25,62.38-9.69,6.33-17.59,14.28-27,17.21-47.56,14.76-96.21,23.42-146.32,21.17-9.81-.44-19.6-1.39-29.41-1.6-2.66-.06-7.42,1.26-7.73,2.69-3.14,14.72-17.74,18-26.33,27.14-4,4.29-8.64,8-14.61,13.45l16.76,1.55-31.42,22,7.19,5.55c-6,11.48-8.73,26.19-27.52,22.61,7.68,13.78,15.24,14.82,23.26,4.31,12.09-15.88,23.66-32.15,35.54-48.19,7.91-10.69,16-21.27,24-31.9,11.32,10.29,22.68,13.28,43,9.24q55.19-11,110.11-23.18c25.61-5.64,47.58-16.72,63.06-39.65,5.79-8.57,15.09-14.83,15.77-26.28.65-10.9,1-21.83.9-32.74-.08-7.85,1.68-12.6,9.94-16.58,37.15-17.89,65.84-42.51,63-89a13.68,13.68,0,0,1,.64-5.41c2.18-5.86-2.33-16.74,7.08-16.76,10.12,0,9.27,11.25,11.17,18.68a14.33,14.33,0,0,1-.11,6.51c-2.36,10-4.94,20-7.69,31l24.69-7.24c3.32,17.24,5.69,34,10,50.34,3.76,14.35,5.49,31,24.53,35.31,1.68.38,2.79,3.22,4.22,4.86,15.47,17.68,35.2,25.11,58.37,24.36,41-1.33,80.29,5.21,116.4,25.45v-6c-29.65-17-62.37-24-96.79-24.26-7.57-.07-15.14,0-22.62-.9C883.5,488,923.21,491.28,961.61,505.73ZM458.54,6.45,401.83,11C418.05-.79,443.86-2.48,458.54,6.45ZM402.8,449.22l55.09,4.31C445.35,462.83,416.23,460.75,402.8,449.22ZM707.11,351.6c-7.86,2.7-14.78,5.28-21.82,7.43-16.93,5.16-33.7,11.24-51,14.84-16.56,3.45-30.52,8.91-38.63,24.94-8.32,16.43-17.19,32.58-27.1,51.26-34.27-1.4-70.7-1.82-106.94-4.69-29.31-2.33-58.36-7.82-87.57-11.49-9.11-1.14-17.82-2.72-26.74,4.8-3.61,3-14.26-2.31-21.81-5.27,9.42-2.71,17.79-6,19.53-16.16,1.91-11.2-.49-21.5-8.17-30.55-10.37-12.22-25.31-15.25-39.15-20.49-11.55-4.37-23.1-9.13-35.07-11.92a90.13,90.13,0,0,0-30-2.18c-11.19,1.26-13.47,8.4-6,16.83a178.9,178.9,0,0,0,22.94,21.77c30,23.71,61,45.95,97.49,59.72-4.55-1.24-9.22-2.12-13.62-3.75-48.22-17.9-88.34-47.4-122.08-85.87-9.16-10.44-9.55-21-.8-36,26.89,10.27,54.12,20.79,81.44,31.05,10.47,3.93,21,7.91,31.79,10.65,7.34,1.87,11.06-1,7.9-9.7-4.45-12.25-8-24.83-11.86-37.3-3-9.67-9.57-14.65-19.32-17.14-7.22-1.84-13.94-5.65-20.89-8.58.42-1.27.83-2.54,1.25-3.81l110,10.62c.09.89.17,1.77.26,2.65-16.48,1.6-33,3-49.43,4.9-4.38.51-8.61,2.43-12.91,3.7,1.45,3.9,2.85,7.82,4.38,11.69,1.73,4.35,4.29,8.5,5.27,13,3.9,18,14,29.8,32.75,31.7,30.77,3.14,61.6,6.88,92.47,7.65,37.45.94,75,.21,112.44-2,22.2-1.32,34.86-31.14,22.38-49.74-2.7-4-8.45-6.95-13.38-8.38-14.67-4.26-29.64-7.47-44.47-11.21-3.23-.81-6.34-2.08-9.51-3.13l.21-3c4-.67,8-2.12,11.93-1.88,31.75,1.92,63.28,1.62,94.65-4.95,8.19-1.72,17.12.13,25.71.35l1.05,5.15c-4.74,2.49-9.29,5.5-14.28,7.33-6.12,2.25-12.81,3-18.88,5.29-16.26,6.24-25.85,22.4-24.3,39.92,1,11.65,7,17.62,18.53,16.63,24.61-2.12,48.27-7.27,67.56-24.49,4-3.54,8.71-6.23,15.4-10.93C708,339.84,707.51,346.48,707.11,351.6ZM691,242.71c4,2.83,8,5.63,13.76,9.7-9.6-.52-27.49-14.95-28.36-21.21-.22-1.62.17-4,1.24-5,7.25-7.24,14.76-14.23,22.18-21.3l3.27,3.81c-4,2.81-7.88,5.65-11.84,8.45C676.64,227.42,676.59,232.47,691,242.71Zm2.7-124.13c-18.91-17-42.12-22.42-66.37-24.64-13.75-1.26-20.16,5.37-20.21,19.28-.07,21.16,11.41,34.47,34.29,40.39,8.06,2.08,17.73,1.31,24.55,14.83-11.94,0-21.74,1.61-30.8-.29-28.85-6.08-57.79-6.67-87-4.71-5.48.36-11.06-.65-16.59-1-.18-1.15-.36-2.29-.53-3.44a82.8,82.8,0,0,1,9.11-3.42q22.77-5.75,45.61-11.19c9.7-2.31,15.57-8.21,15.75-18.23.15-8,.84-16.7-2.13-23.63-2.62-6.09-9.27-13-15.4-14.52a146.41,146.41,0,0,0-40-4.45c-53.86,1.51-107.71,3.8-161.54,6.29-24,1.11-41.17,11.19-44.88,37.39-.53,3.71-3.82,6.94-5.32,10.61-1.41,3.45-4,8.34-2.68,10.48,1.52,2.46,6.73,3.23,10.45,3.61,16.89,1.74,33.83,3.09,50.75,4.57l-.15,2.95L281.15,170.06c-.5-1.17-1-2.33-1.49-3.5,6.38-2.94,12.5-7.18,19.21-8.55,13.32-2.72,19.66-10.16,22.26-23.29,2.1-10.58,6.7-20.67,10.27-30.95,3.11-9,1.25-12-8-10.13-9.5,1.91-18.78,5.26-27.92,8.61-20.39,7.45-40.63,15.33-60.95,23-8.1,3-16.27,5.89-24.28,8.77C201.9,121.5,202,110.09,211,99.7c34.13-39.14,74.86-69,123.91-86.9A54.11,54.11,0,0,1,341.2,11c1.86-.43,3.76-.69,4-.72C326.84,20.3,306,29.8,287.28,42.35c-20.18,13.49-38.74,29.51-57.35,45.22-3.71,3.13-7.34,11.19-5.78,14.51,1.81,3.84,9.26,6.31,14.54,6.89a50,50,0,0,0,20.47-1.89c20.39-6.62,40.7-13.64,60.6-21.6,13.85-5.54,23.62-15.46,25.46-31.42s-3-22.7-19-25.86c10.26-8.74,14.91-8,27.19-3.28,7.2,2.75,16.58,2,24.47.37,63.56-13.18,127.85-15,191.05-14,11.12,20.12,21.11,39.79,32.67,58.5,7,11.29,20,13.2,32.23,16.17,17.53,4.24,34.7,10,52,15.22,6.77,2,13.46,4.37,21.22,6.91.41,5,1,11.74,1.74,21.05C702.35,124.71,697.62,122.1,693.71,118.58Zm88.1,348.75L767,454.84l3.68-4.39L785,463.72Q783.38,465.52,781.81,467.33Z"/><path class="cls-1" d="M930.82,198.4c13.51,3.38,24.45,9.94,30.79,17.87v28.92c-6.71,7.46-18.12,13.8-29.49,15.71,4.4,6.09,8.72,13.31,14.33,19.32,3,3.18,8.12,4.42,12.4,6.26.94.4,1.87.8,2.76,1.22v28.72c-2.38-1.82-4.74-3.66-7.05-5.57-4.08-3.38-8.19-7.06-11.14-11.38-3.79-5.55-7.42-9-14.79-10.74-8.65-2.05-16.25-8.48-23-12.29,1.28-8.4,2.16-15.6,3.6-22.69.42-2.08,2.18-4.11,3.8-5.68,3.92-3.81,8.12-7.35,10.55-12,5.44-1.26,10.9-2.43,16.25-4,.36-.1.27-4.38-.27-4.54-5-1.51-10.21-2.55-13.15-3.23-5.23-4.63-9.77-8.27-13.8-12.42a15,15,0,0,1-3.66-7.15c-1.32-6.37-2-12.86-3.43-22l28.88-12.49c1-.42,2.55-.61,2.8-1.28,4.3-12,14.79-17,24.43-22.83v25.23c-1.51,1-3.05,1.79-4.43,2.48-5.9,3-11.12,4.89-13.92,12.21C941.33,191.11,935,194.46,930.82,198.4Z"/><path class="cls-1" d="M854.7,266.46V196.23c6.94,6.25,14.66,12.77,21.76,19.92,1.59,1.6,1.16,5.36,1.36,8.16.91,12.86-.91,24.11-14.64,30.38C859.73,256.27,858,261.65,854.7,266.46Z"/><path class="cls-1" d="M947,330.59c-10.77-1.33-21.73-1.82-32.26-4.19C900.11,323.11,893.38,310,885,299.28c-.79-1,.1-4.58,1.33-5.56s4.63-1,5.72,0c5.79,5.4,11,11.39,16.7,16.92,2.63,2.56,5.48,5.43,8.79,6.64,10,3.62,20.22,6.5,30.35,9.67Z"/><path class="cls-1" d="M948.31,132.57c-10,3.3-19.84,7.05-30,9.69-4.62,1.21-7.57,1.38-10.23,7-3.22,6.77-10.41,11.74-16.24,17.1-1.06,1-5.09.75-5.57-.13-1-1.81-1.58-5.19-.53-6.6,10.12-13.74,20-27.73,40.09-27.47,7.11.1,14.24-1.94,21.37-3C947.57,130.29,947.94,131.43,948.31,132.57Z"/><path class="cls-1" d="M498.33,72.54c-41.8,2.42-83.59,5.14-125.42,7-7,.31-19.26-1.91-20.14-5.29-2-7.83-.84-18.31,3.09-25.51,9.23-16.92,27.38-22.54,44.55-23.93,46.4-3.77,93-5.71,139.51-7.18C557.39,17,580.39,39.7,583.18,57.2c1.64,10.23-3.71,16.92-15.87,17.23-22.94.6-45.91.17-68.87.17C498.4,73.92,498.37,73.23,498.33,72.54Z"/><path class="cls-1" d="M499.63,444.34c-29.76-2.41-59.61-4.16-89.26-7.56-12.46-1.43-24.88-5.4-36.67-9.93-12.08-4.64-20.52-13.9-23-27.19-2.68-14.55,1.62-19.9,16.52-19.45,15.64.46,31.23,2.64,46.87,3,45.52.92,91.06,1.27,136.6,1.88,6.19.08,12.44-.13,18.55.64,11.69,1.48,16.54,9.12,13.19,20.13-5,16.47-27.41,38.88-46.74,37.19-11.93-1-24-.19-36-.19Z"/></g></svg>